<?xml version="1.0"?>

<!DOCTYPE svg PUBLIC '-//W3C//DTD SVG 1.0//EN' 'http://www.w3.org/TR/2001/REC-SVG-20010904/DTD/svg10.dtd'>
<svg fill-opacity="1" xmlns:xlink="http://www.w3.org/1999/xlink" color-rendering="auto" color-interpolation="auto" stroke="black" text-rendering="auto" stroke-linecap="square" stroke-miterlimit="10" stroke-opacity="1" shape-rendering="auto" fill="black" stroke-dasharray="none" font-weight="normal" stroke-width="1" xmlns="http://www.w3.org/2000/svg" font-family="&apos;Dialog&apos;" font-style="normal" stroke-linejoin="miter" font-size="12" stroke-dashoffset="0" image-rendering="auto">
  <!--Unicode Character 'KEYBOARD' (U+2328)-->
  <defs id="genericDefs" />
  <g>
    <g>
      <path d="M262.125 385.875 L25.875 385.875 L25.875 213.0469 L262.125 213.0469 L262.125 385.875 ZM255.2344 378.9844 L255.2344 219.9375 L32.7656 219.9375 L32.7656 378.9844 L255.2344 378.9844 ZM237.6562 254.8125 L223.1719 254.8125 L223.1719 240.4688 L237.6562 240.4688 L237.6562 254.8125 ZM194.3438 254.8125 L180 254.8125 L180 240.4688 L194.3438 240.4688 L194.3438 254.8125 ZM151.1719 254.8125 L136.8281 254.8125 L136.8281 240.4688 L151.1719 240.4688 L151.1719 254.8125 ZM108 254.8125 L93.6562 254.8125 L93.6562 240.4688 L108 240.4688 L108 254.8125 ZM64.8281 254.8125 L50.3438 254.8125 L50.3438 240.4688 L64.8281 240.4688 L64.8281 254.8125 ZM237.6562 292.2188 L223.1719 292.2188 L223.1719 277.875 L237.6562 277.875 L237.6562 292.2188 ZM194.3438 292.2188 L180 292.2188 L180 277.875 L194.3438 277.875 L194.3438 292.2188 ZM151.1719 292.2188 L136.8281 292.2188 L136.8281 277.875 L151.1719 277.875 L151.1719 292.2188 ZM108 292.2188 L93.6562 292.2188 L93.6562 277.875 L108 277.875 L108 292.2188 ZM64.8281 292.2188 L50.3438 292.2188 L50.3438 277.875 L64.8281 277.875 L64.8281 292.2188 ZM237.6562 329.7656 L223.1719 329.7656 L223.1719 315.2812 L237.6562 315.2812 L237.6562 329.7656 ZM194.3438 329.7656 L180 329.7656 L180 315.2812 L194.3438 315.2812 L194.3438 329.7656 ZM151.1719 329.7656 L136.8281 329.7656 L136.8281 315.2812 L151.1719 315.2812 L151.1719 329.7656 ZM108 329.7656 L93.6562 329.7656 L93.6562 315.2812 L108 315.2812 L108 329.7656 ZM64.8281 329.7656 L50.3438 329.7656 L50.3438 315.2812 L64.8281 315.2812 L64.8281 329.7656 ZM208.8281 364.2188 L79.1719 364.2188 L79.1719 349.875 L208.8281 349.875 L208.8281 364.2188 Z" stroke="none" />
    </g>
  </g>
</svg>
