solid clips
facet normal 0.0 0.0 -1.0
  outer loop
    vertex 9.999999999999996 12.0 0.0
    vertex 0.9999999999999999 0.0 0.0
    vertex 0.9999999999999999 12.0 0.0
  endloop
endfacet
facet normal 0.0 0.0 -1.0
  outer loop
    vertex 0.9999999999999999 0.0 0.0
    vertex 9.999999999999996 12.0 0.0
    vertex 9.999999999999996 0.0 0.0
  endloop
endfacet
facet normal 0.0 0.0 1.0
  outer loop
    vertex 3.9999999999999996 0.0 4.999999999999999
    vertex 0.9999999999999999 12.0 4.999999999999999
    vertex 0.9999999999999999 0.0 4.999999999999999
  endloop
endfacet
facet normal 0.0 0.0 1.0
  outer loop
    vertex 0.9999999999999999 12.0 4.999999999999999
    vertex 3.9999999999999996 0.0 4.999999999999999
    vertex 3.9999999999999996 12.0 4.999999999999999
  endloop
endfacet
facet normal 0.0 -1.0 0.0
  outer loop
    vertex 9.999999999999996 0.0 1.9999999999999998
    vertex 0.9999999999999999 0.0 0.0
    vertex 9.999999999999996 0.0 0.0
  endloop
endfacet
facet normal 0.0 -1.0 0.0
  outer loop
    vertex 0.9999999999999999 0.0 0.0
    vertex 9.999999999999996 0.0 1.9999999999999998
    vertex 3.9999999999999996 0.0 1.9999999999999998
  endloop
endfacet
facet normal 0.0 -1.0 0.0
  outer loop
    vertex 0.9999999999999999 0.0 0.0
    vertex 3.9999999999999996 0.0 1.9999999999999998
    vertex 0.9999999999999999 0.0 4.999999999999999
  endloop
endfacet
facet normal 0.0 -1.0 0.0
  outer loop
    vertex 0.9999999999999999 0.0 4.999999999999999
    vertex 3.9999999999999996 0.0 1.9999999999999998
    vertex 3.9999999999999996 0.0 4.999999999999999
  endloop
endfacet
facet normal -1.0 0.0 0.0
  outer loop
    vertex 0.9999999999999999 12.0 4.999999999999999
    vertex 0.9999999999999999 0.0 0.0
    vertex 0.9999999999999999 0.0 4.999999999999999
  endloop
endfacet
facet normal -1.0 0.0 0.0
  outer loop
    vertex 0.9999999999999999 0.0 0.0
    vertex 0.9999999999999999 12.0 4.999999999999999
    vertex 0.9999999999999999 12.0 0.0
  endloop
endfacet
facet normal -0.0 1.0 -0.0
  outer loop
    vertex 0.9999999999999999 12.0 0.0
    vertex 3.9999999999999996 12.0 1.9999999999999998
    vertex 9.999999999999996 12.0 0.0
  endloop
endfacet
facet normal -0.0 1.0 -0.0
  outer loop
    vertex 3.9999999999999996 12.0 1.9999999999999998
    vertex 0.9999999999999999 12.0 0.0
    vertex 0.9999999999999999 12.0 4.999999999999999
  endloop
endfacet
facet normal -0.0 1.0 -0.0
  outer loop
    vertex 3.9999999999999996 12.0 1.9999999999999998
    vertex 0.9999999999999999 12.0 4.999999999999999
    vertex 3.9999999999999996 12.0 4.999999999999999
  endloop
endfacet
facet normal -0.0 1.0 -0.0
  outer loop
    vertex 9.999999999999996 12.0 1.9999999999999998
    vertex 9.999999999999996 12.0 0.0
    vertex 3.9999999999999996 12.0 1.9999999999999998
  endloop
endfacet
facet normal 1.0 0.0 0.0
  outer loop
    vertex 9.999999999999996 12.0 0.0
    vertex 9.999999999999996 0.0 1.9999999999999998
    vertex 9.999999999999996 0.0 0.0
  endloop
endfacet
facet normal 1.0 0.0 0.0
  outer loop
    vertex 9.999999999999996 0.0 1.9999999999999998
    vertex 9.999999999999996 12.0 0.0
    vertex 9.999999999999996 12.0 1.9999999999999998
  endloop
endfacet
facet normal -0.0 -0.0 1.0
  outer loop
    vertex 9.999999999999996 0.0 1.9999999999999998
    vertex 3.9999999999999996 12.0 1.9999999999999998
    vertex 3.9999999999999996 0.0 1.9999999999999998
  endloop
endfacet
facet normal -0.0 -0.0 1.0
  outer loop
    vertex 3.9999999999999996 12.0 1.9999999999999998
    vertex 9.999999999999996 0.0 1.9999999999999998
    vertex 9.999999999999996 12.0 1.9999999999999998
  endloop
endfacet
facet normal 1.0 -0.0 -0.0
  outer loop
    vertex 3.9999999999999996 12.0 1.9999999999999998
    vertex 3.9999999999999996 0.0 4.999999999999999
    vertex 3.9999999999999996 0.0 1.9999999999999998
  endloop
endfacet
facet normal 1.0 -0.0 -0.0
  outer loop
    vertex 3.9999999999999996 0.0 4.999999999999999
    vertex 3.9999999999999996 12.0 1.9999999999999998
    vertex 3.9999999999999996 12.0 4.999999999999999
  endloop
endfacet
facet normal 1.0 -0.0 -0.0
  outer loop
    vertex 15.681134085427715 11.318617988415896 1.9999999999999998
    vertex 15.681134085427715 0.31861798841589617 4.999999999999999
    vertex 15.681134085427715 0.31861798841589617 1.9999999999999998
  endloop
endfacet
facet normal 1.0 -0.0 -0.0
  outer loop
    vertex 15.681134085427715 0.31861798841589617 4.999999999999999
    vertex 15.681134085427715 11.318617988415896 1.9999999999999998
    vertex 15.681134085427715 11.318617988415896 4.999999999999999
  endloop
endfacet
facet normal -0.0 1.0 -0.0
  outer loop
    vertex 12.681134085427715 11.318617988415896 0.0
    vertex 15.681134085427715 11.318617988415896 1.9999999999999998
    vertex 21.681134085427725 11.318617988415896 0.0
  endloop
endfacet
facet normal -0.0 1.0 -0.0
  outer loop
    vertex 15.681134085427715 11.318617988415896 1.9999999999999998
    vertex 12.681134085427715 11.318617988415896 0.0
    vertex 12.681134085427715 11.318617988415896 4.999999999999999
  endloop
endfacet
facet normal -0.0 1.0 -0.0
  outer loop
    vertex 15.681134085427715 11.318617988415896 1.9999999999999998
    vertex 12.681134085427715 11.318617988415896 4.999999999999999
    vertex 15.681134085427715 11.318617988415896 4.999999999999999
  endloop
endfacet
facet normal -0.0 1.0 -0.0
  outer loop
    vertex 21.681134085427725 11.318617988415896 1.9999999999999998
    vertex 21.681134085427725 11.318617988415896 0.0
    vertex 15.681134085427715 11.318617988415896 1.9999999999999998
  endloop
endfacet
facet normal -0.0 -0.0 1.0
  outer loop
    vertex 15.681134085427715 0.31861798841589617 4.999999999999999
    vertex 12.681134085427715 11.318617988415896 4.999999999999999
    vertex 12.681134085427715 0.31861798841589617 4.999999999999999
  endloop
endfacet
facet normal -0.0 -0.0 1.0
  outer loop
    vertex 12.681134085427715 11.318617988415896 4.999999999999999
    vertex 15.681134085427715 0.31861798841589617 4.999999999999999
    vertex 15.681134085427715 11.318617988415896 4.999999999999999
  endloop
endfacet
facet normal -1.0 0.0 0.0
  outer loop
    vertex 12.681134085427715 11.318617988415896 4.999999999999999
    vertex 12.681134085427715 0.31861798841589617 0.0
    vertex 12.681134085427715 0.31861798841589617 4.999999999999999
  endloop
endfacet
facet normal -1.0 0.0 0.0
  outer loop
    vertex 12.681134085427715 0.31861798841589617 0.0
    vertex 12.681134085427715 11.318617988415896 4.999999999999999
    vertex 12.681134085427715 11.318617988415896 0.0
  endloop
endfacet
facet normal 0.0 -1.0 0.0
  outer loop
    vertex 21.681134085427725 0.31861798841589617 1.9999999999999998
    vertex 12.681134085427715 0.31861798841589617 0.0
    vertex 21.681134085427725 0.31861798841589617 0.0
  endloop
endfacet
facet normal 0.0 -1.0 0.0
  outer loop
    vertex 12.681134085427715 0.31861798841589617 0.0
    vertex 21.681134085427725 0.31861798841589617 1.9999999999999998
    vertex 15.681134085427715 0.31861798841589617 1.9999999999999998
  endloop
endfacet
facet normal 0.0 -1.0 0.0
  outer loop
    vertex 12.681134085427715 0.31861798841589617 0.0
    vertex 15.681134085427715 0.31861798841589617 1.9999999999999998
    vertex 12.681134085427715 0.31861798841589617 4.999999999999999
  endloop
endfacet
facet normal 0.0 -1.0 0.0
  outer loop
    vertex 12.681134085427715 0.31861798841589617 4.999999999999999
    vertex 15.681134085427715 0.31861798841589617 1.9999999999999998
    vertex 15.681134085427715 0.31861798841589617 4.999999999999999
  endloop
endfacet
facet normal -0.0 -0.0 1.0
  outer loop
    vertex 21.681134085427725 0.31861798841589617 1.9999999999999998
    vertex 15.681134085427715 11.318617988415896 1.9999999999999998
    vertex 15.681134085427715 0.31861798841589617 1.9999999999999998
  endloop
endfacet
facet normal -0.0 -0.0 1.0
  outer loop
    vertex 15.681134085427715 11.318617988415896 1.9999999999999998
    vertex 21.681134085427725 0.31861798841589617 1.9999999999999998
    vertex 21.681134085427725 11.318617988415896 1.9999999999999998
  endloop
endfacet
facet normal 0.0 0.0 -1.0
  outer loop
    vertex 21.681134085427725 11.318617988415896 0.0
    vertex 12.681134085427715 0.31861798841589617 0.0
    vertex 12.681134085427715 11.318617988415896 0.0
  endloop
endfacet
facet normal 0.0 0.0 -1.0
  outer loop
    vertex 12.681134085427715 0.31861798841589617 0.0
    vertex 21.681134085427725 11.318617988415896 0.0
    vertex 21.681134085427725 0.31861798841589617 0.0
  endloop
endfacet
facet normal 1.0 -0.0 -0.0
  outer loop
    vertex 21.681134085427725 11.318617988415896 0.0
    vertex 21.681134085427725 0.31861798841589617 1.9999999999999998
    vertex 21.681134085427725 0.31861798841589617 0.0
  endloop
endfacet
facet normal 1.0 -0.0 -0.0
  outer loop
    vertex 21.681134085427725 0.31861798841589617 1.9999999999999998
    vertex 21.681134085427725 11.318617988415896 0.0
    vertex 21.681134085427725 11.318617988415896 1.9999999999999998
  endloop
endfacet
facet normal 0.0 0.0 -1.0
  outer loop
    vertex 13.585117496583345 27.18429980459747 0.0
    vertex 2.58511749658335 15.184299804597496 0.0
    vertex 2.58511749658335 27.18429980459747 0.0
  endloop
endfacet
facet normal 0.0 0.0 -1.0
  outer loop
    vertex 2.58511749658335 15.184299804597496 0.0
    vertex 13.585117496583345 27.18429980459747 0.0
    vertex 13.585117496583345 15.184299804597496 0.0
  endloop
endfacet
facet normal 0.0 0.0 1.0
  outer loop
    vertex 2.58511749658335 15.184299804597496 4.999999999999998
    vertex 5.585117496583352 18.184299804597497 4.999999999999998
    vertex 2.58511749658335 27.18429980459747 4.999999999999998
  endloop
endfacet
facet normal 0.0 0.0 1.0
  outer loop
    vertex 5.585117496583352 18.184299804597497 4.999999999999998
    vertex 2.58511749658335 15.184299804597496 4.999999999999998
    vertex 13.585117496583345 15.184299804597496 4.999999999999998
  endloop
endfacet
facet normal 0.0 0.0 1.0
  outer loop
    vertex 2.58511749658335 27.18429980459747 4.999999999999998
    vertex 5.585117496583352 18.184299804597497 4.999999999999998
    vertex 5.585117496583349 27.18429980459747 4.999999999999998
  endloop
endfacet
facet normal 0.0 0.0 1.0
  outer loop
    vertex 5.585117496583352 18.184299804597497 4.999999999999998
    vertex 13.585117496583345 15.184299804597496 4.999999999999998
    vertex 13.585117496583345 18.184299804597494 4.999999999999998
  endloop
endfacet
facet normal 1.0 -0.0 -0.0
  outer loop
    vertex 13.585117496583345 15.184299804597496 0.0
    vertex 13.585117496583345 18.184299804597494 1.9999999999999991
    vertex 13.585117496583345 15.184299804597496 4.999999999999998
  endloop
endfacet
facet normal 1.0 -0.0 -0.0
  outer loop
    vertex 13.585117496583345 18.184299804597494 1.9999999999999991
    vertex 13.585117496583345 15.184299804597496 0.0
    vertex 13.585117496583345 27.18429980459747 0.0
  endloop
endfacet
facet normal 1.0 -0.0 -0.0
  outer loop
    vertex 13.585117496583345 18.184299804597494 1.9999999999999991
    vertex 13.585117496583345 27.18429980459747 0.0
    vertex 13.585117496583345 27.18429980459747 1.9999999999999991
  endloop
endfacet
facet normal 1.0 -0.0 -0.0
  outer loop
    vertex 13.585117496583345 18.184299804597494 4.999999999999998
    vertex 13.585117496583345 15.184299804597496 4.999999999999998
    vertex 13.585117496583345 18.184299804597494 1.9999999999999991
  endloop
endfacet
facet normal 0.0 -1.0 0.0
  outer loop
    vertex 13.585117496583345 15.184299804597496 4.999999999999998
    vertex 2.58511749658335 15.184299804597496 0.0
    vertex 13.585117496583345 15.184299804597496 0.0
  endloop
endfacet
facet normal 0.0 -1.0 0.0
  outer loop
    vertex 2.58511749658335 15.184299804597496 0.0
    vertex 13.585117496583345 15.184299804597496 4.999999999999998
    vertex 2.58511749658335 15.184299804597496 4.999999999999998
  endloop
endfacet
facet normal -1.0 0.0 0.0
  outer loop
    vertex 2.58511749658335 27.18429980459747 4.999999999999998
    vertex 2.58511749658335 15.184299804597496 0.0
    vertex 2.58511749658335 15.184299804597496 4.999999999999998
  endloop
endfacet
facet normal -1.0 0.0 0.0
  outer loop
    vertex 2.58511749658335 15.184299804597496 0.0
    vertex 2.58511749658335 27.18429980459747 4.999999999999998
    vertex 2.58511749658335 27.18429980459747 0.0
  endloop
endfacet
facet normal -0.0 1.0 -0.0
  outer loop
    vertex 2.58511749658335 27.18429980459747 0.0
    vertex 5.585117496583349 27.18429980459747 1.9999999999999991
    vertex 13.585117496583345 27.18429980459747 0.0
  endloop
endfacet
facet normal -0.0 1.0 -0.0
  outer loop
    vertex 5.585117496583349 27.18429980459747 1.9999999999999991
    vertex 2.58511749658335 27.18429980459747 0.0
    vertex 2.58511749658335 27.18429980459747 4.999999999999998
  endloop
endfacet
facet normal -0.0 1.0 -0.0
  outer loop
    vertex 5.585117496583349 27.18429980459747 1.9999999999999991
    vertex 2.58511749658335 27.18429980459747 4.999999999999998
    vertex 5.585117496583349 27.18429980459747 4.999999999999998
  endloop
endfacet
facet normal -0.0 1.0 -0.0
  outer loop
    vertex 13.585117496583345 27.18429980459747 1.9999999999999991
    vertex 13.585117496583345 27.18429980459747 0.0
    vertex 5.585117496583349 27.18429980459747 1.9999999999999991
  endloop
endfacet
facet normal -0.0 -0.0 1.0
  outer loop
    vertex 5.585117496583352 18.184299804597497 1.9999999999999991
    vertex 13.585117496583345 27.18429980459747 1.9999999999999991
    vertex 5.585117496583349 27.18429980459747 1.9999999999999991
  endloop
endfacet
facet normal -0.0 -0.0 1.0
  outer loop
    vertex 13.585117496583345 27.18429980459747 1.9999999999999991
    vertex 5.585117496583352 18.184299804597497 1.9999999999999991
    vertex 13.585117496583345 18.184299804597494 1.9999999999999991
  endloop
endfacet
facet normal 1.0 3.133296091719896e-16 -0.0
  outer loop
    vertex 5.585117496583349 27.18429980459747 1.9999999999999991
    vertex 5.585117496583352 18.184299804597497 4.999999999999998
    vertex 5.585117496583352 18.184299804597497 1.9999999999999991
  endloop
endfacet
facet normal 1.0 3.133296091719896e-16 -0.0
  outer loop
    vertex 5.585117496583352 18.184299804597497 4.999999999999998
    vertex 5.585117496583349 27.18429980459747 1.9999999999999991
    vertex 5.585117496583349 27.18429980459747 4.999999999999998
  endloop
endfacet
facet normal 3.5249581031848743e-16 1.0 -0.0
  outer loop
    vertex 5.585117496583352 18.184299804597497 4.999999999999998
    vertex 13.585117496583345 18.184299804597494 1.9999999999999991
    vertex 5.585117496583352 18.184299804597497 1.9999999999999991
  endloop
endfacet
facet normal 3.5249581031848743e-16 1.0 -0.0
  outer loop
    vertex 13.585117496583345 18.184299804597494 1.9999999999999991
    vertex 5.585117496583352 18.184299804597497 4.999999999999998
    vertex 13.585117496583345 18.184299804597494 4.999999999999998
  endloop
endfacet
endsolid clips
