solid back bracket
facet normal 0.0 0.0 -1.0
  outer loop
    vertex 3.9999999999999996 10.499999999999998 0.0
    vertex 0.0 0.0 0.0
    vertex 0.0 10.499999999999998 0.0
  endloop
endfacet
facet normal 0.0 0.0 -1.0
  outer loop
    vertex 0.0 0.0 0.0
    vertex 3.9999999999999996 10.499999999999998 0.0
    vertex 3.9999999999999996 3.9999999999999996 0.0
  endloop
endfacet
facet normal 0.0 0.0 -1.0
  outer loop
    vertex 0.0 0.0 0.0
    vertex 3.9999999999999996 3.9999999999999996 0.0
    vertex 10.499999999999998 0.0 0.0
  endloop
endfacet
facet normal 0.0 0.0 -1.0
  outer loop
    vertex 10.499999999999998 0.0 0.0
    vertex 3.9999999999999996 3.9999999999999996 0.0
    vertex 10.499999999999998 3.9999999999999996 0.0
  endloop
endfacet
facet normal 0.0 0.0 1.0
  outer loop
    vertex 3.9999999999999996 10.499999999999998 4.999999999999999
    vertex 0.0 10.499999999999998 4.999999999999999
    vertex 3.9999999999999996 3.9999999999999996 4.999999999999999
  endloop
endfacet
facet normal 0.0 0.0 1.0
  outer loop
    vertex 0.0 0.0 4.999999999999999
    vertex 3.9999999999999996 3.9999999999999996 4.999999999999999
    vertex 0.0 10.499999999999998 4.999999999999999
  endloop
endfacet
facet normal 0.0 0.0 1.0
  outer loop
    vertex 3.9999999999999996 3.9999999999999996 4.999999999999999
    vertex 0.0 0.0 4.999999999999999
    vertex 10.499999999999998 0.0 4.999999999999999
  endloop
endfacet
facet normal 0.0 0.0 1.0
  outer loop
    vertex 3.9999999999999996 3.9999999999999996 4.999999999999999
    vertex 10.499999999999998 0.0 4.999999999999999
    vertex 10.499999999999998 3.9999999999999996 4.999999999999999
  endloop
endfacet
facet normal 1.0 0.0 0.0
  outer loop
    vertex 3.9999999999999996 3.9999999999999996 0.0
    vertex 3.9999999999999996 6.515334304889349 1.6512164770259379
    vertex 3.9999999999999996 3.9999999999999996 4.999999999999999
  endloop
endfacet
facet normal 1.0 0.0 0.0
  outer loop
    vertex 3.9999999999999996 6.515334304889349 1.6512164770259379
    vertex 3.9999999999999996 3.9999999999999996 0.0
    vertex 3.9999999999999996 6.768567315746645 1.4252878392769843
  endloop
endfacet
facet normal 1.0 0.0 0.0
  outer loop
    vertex 3.9999999999999996 6.768567315746645 1.4252878392769843
    vertex 3.9999999999999996 3.9999999999999996 0.0
    vertex 3.9999999999999996 7.071646255286144 1.2725990592354837
  endloop
endfacet
facet normal 1.0 0.0 0.0
  outer loop
    vertex 3.9999999999999996 7.071646255286144 1.2725990592354837
    vertex 3.9999999999999996 3.9999999999999996 0.0
    vertex 3.9999999999999996 10.499999999999998 0.0
  endloop
endfacet
facet normal 1.0 0.0 0.0
  outer loop
    vertex 3.9999999999999996 3.9999999999999996 4.999999999999999
    vertex 3.9999999999999996 6.515334304889349 1.6512164770259379
    vertex 3.9999999999999996 6.329204633916843 1.9349883091844808
  endloop
endfacet
facet normal 1.0 0.0 0.0
  outer loop
    vertex 3.9999999999999996 3.9999999999999996 4.999999999999999
    vertex 3.9999999999999996 6.329204633916843 1.9349883091844808
    vertex 3.9999999999999996 6.222862732312081 2.2572647543461346
  endloop
endfacet
facet normal 1.0 0.0 0.0
  outer loop
    vertex 3.9999999999999996 3.9999999999999996 4.999999999999999
    vertex 3.9999999999999996 6.222862732312081 2.2572647543461346
    vertex 3.9999999999999996 6.203555624931126 2.5960832053601393
  endloop
endfacet
facet normal 1.0 0.0 0.0
  outer loop
    vertex 3.9999999999999996 7.071646255286144 1.2725990592354837
    vertex 3.9999999999999996 10.499999999999998 0.0
    vertex 3.9999999999999996 7.403916794639859 1.2035556249311261
  endloop
endfacet
facet normal 1.0 0.0 0.0
  outer loop
    vertex 3.9999999999999996 7.403916794639859 1.2035556249311261
    vertex 3.9999999999999996 10.499999999999998 0.0
    vertex 3.9999999999999996 7.742735245653864 1.2228627323120822
  endloop
endfacet
facet normal 1.0 0.0 0.0
  outer loop
    vertex 3.9999999999999996 7.742735245653864 1.2228627323120822
    vertex 3.9999999999999996 10.499999999999998 0.0
    vertex 3.9999999999999996 8.065011690815517 1.3292046339168442
  endloop
endfacet
facet normal 1.0 0.0 0.0
  outer loop
    vertex 3.9999999999999996 8.065011690815517 1.3292046339168442
    vertex 3.9999999999999996 10.499999999999998 0.0
    vertex 3.9999999999999996 8.34878352297406 1.5153343048893486
  endloop
endfacet
facet normal 1.0 0.0 0.0
  outer loop
    vertex 3.9999999999999996 8.34878352297406 1.5153343048893486
    vertex 3.9999999999999996 10.499999999999998 0.0
    vertex 3.9999999999999996 8.574712160723013 1.7685673157466444
  endloop
endfacet
facet normal 1.0 0.0 0.0
  outer loop
    vertex 3.9999999999999996 8.574712160723013 1.7685673157466444
    vertex 3.9999999999999996 10.499999999999998 0.0
    vertex 3.9999999999999996 8.727400940764515 2.071646255286144
  endloop
endfacet
facet normal 1.0 0.0 0.0
  outer loop
    vertex 3.9999999999999996 8.727400940764515 2.071646255286144
    vertex 3.9999999999999996 10.499999999999998 0.0
    vertex 3.9999999999999996 8.796444375068873 2.4039167946398594
  endloop
endfacet
facet normal 1.0 0.0 0.0
  outer loop
    vertex 3.9999999999999996 3.9999999999999996 4.999999999999999
    vertex 3.9999999999999996 6.93498830918448 3.6707953660831554
    vertex 3.9999999999999996 10.499999999999998 4.999999999999999
  endloop
endfacet
facet normal 1.0 0.0 0.0
  outer loop
    vertex 3.9999999999999996 6.93498830918448 3.6707953660831554
    vertex 3.9999999999999996 3.9999999999999996 4.999999999999999
    vertex 3.9999999999999996 6.651216477025938 3.484665695110651
  endloop
endfacet
facet normal 1.0 0.0 0.0
  outer loop
    vertex 3.9999999999999996 6.651216477025938 3.484665695110651
    vertex 3.9999999999999996 3.9999999999999996 4.999999999999999
    vertex 3.9999999999999996 6.425287839276984 3.2314326842533556
  endloop
endfacet
facet normal 1.0 0.0 0.0
  outer loop
    vertex 3.9999999999999996 6.425287839276984 3.2314326842533556
    vertex 3.9999999999999996 3.9999999999999996 4.999999999999999
    vertex 3.9999999999999996 6.272599059235483 2.928353744713855
  endloop
endfacet
facet normal 1.0 0.0 0.0
  outer loop
    vertex 3.9999999999999996 6.272599059235483 2.928353744713855
    vertex 3.9999999999999996 3.9999999999999996 4.999999999999999
    vertex 3.9999999999999996 6.203555624931126 2.5960832053601393
  endloop
endfacet
facet normal 1.0 0.0 0.0
  outer loop
    vertex 3.9999999999999996 10.499999999999998 4.999999999999999
    vertex 3.9999999999999996 6.93498830918448 3.6707953660831554
    vertex 3.9999999999999996 7.257264754346135 3.7771372676879174
  endloop
endfacet
facet normal 1.0 0.0 0.0
  outer loop
    vertex 3.9999999999999996 10.499999999999998 4.999999999999999
    vertex 3.9999999999999996 7.257264754346135 3.7771372676879174
    vertex 3.9999999999999996 7.59608320536014 3.796444375068873
  endloop
endfacet
facet normal 1.0 0.0 0.0
  outer loop
    vertex 3.9999999999999996 10.499999999999998 4.999999999999999
    vertex 3.9999999999999996 7.59608320536014 3.796444375068873
    vertex 3.9999999999999996 7.928353744713854 3.7274009407645154
  endloop
endfacet
facet normal 1.0 0.0 0.0
  outer loop
    vertex 3.9999999999999996 10.499999999999998 4.999999999999999
    vertex 3.9999999999999996 7.928353744713854 3.7274009407645154
    vertex 3.9999999999999996 8.231432684253354 3.574712160723015
  endloop
endfacet
facet normal 1.0 0.0 0.0
  outer loop
    vertex 3.9999999999999996 10.499999999999998 4.999999999999999
    vertex 3.9999999999999996 8.231432684253354 3.574712160723015
    vertex 3.9999999999999996 8.484665695110651 3.3487835229740606
  endloop
endfacet
facet normal 1.0 0.0 0.0
  outer loop
    vertex 3.9999999999999996 10.499999999999998 4.999999999999999
    vertex 3.9999999999999996 8.484665695110651 3.3487835229740606
    vertex 3.9999999999999996 8.670795366083155 3.065011690815518
  endloop
endfacet
facet normal 1.0 0.0 0.0
  outer loop
    vertex 3.9999999999999996 10.499999999999998 4.999999999999999
    vertex 3.9999999999999996 8.670795366083155 3.065011690815518
    vertex 3.9999999999999996 8.777137267687916 2.7427352456538645
  endloop
endfacet
facet normal 1.0 0.0 0.0
  outer loop
    vertex 3.9999999999999996 10.499999999999998 4.999999999999999
    vertex 3.9999999999999996 8.777137267687916 2.7427352456538645
    vertex 3.9999999999999996 8.796444375068873 2.4039167946398594
  endloop
endfacet
facet normal 1.0 0.0 0.0
  outer loop
    vertex 3.9999999999999996 10.499999999999998 4.999999999999999
    vertex 3.9999999999999996 8.796444375068873 2.4039167946398594
    vertex 3.9999999999999996 10.499999999999998 0.0
  endloop
endfacet
facet normal -0.0 1.0 0.0
  outer loop
    vertex 3.9999999999999996 3.9999999999999996 0.0
    vertex 7.163535241366722 3.9999999999999996 1.2442964258242104
    vertex 10.499999999999998 3.9999999999999996 0.0
  endloop
endfacet
facet normal -0.0 1.0 0.0
  outer loop
    vertex 7.163535241366722 3.9999999999999996 1.2442964258242104
    vertex 3.9999999999999996 3.9999999999999996 0.0
    vertex 6.849999999999999 3.9999999999999996 1.3741669750802288
  endloop
endfacet
facet normal -0.0 1.0 0.0
  outer loop
    vertex 6.849999999999999 3.9999999999999996 1.3741669750802288
    vertex 3.9999999999999996 3.9999999999999996 0.0
    vertex 6.5807611844574865 3.9999999999999996 1.5807611844574874
  endloop
endfacet
facet normal -0.0 1.0 0.0
  outer loop
    vertex 6.5807611844574865 3.9999999999999996 1.5807611844574874
    vertex 3.9999999999999996 3.9999999999999996 0.0
    vertex 6.374166975080229 3.9999999999999996 1.849999999999999
  endloop
endfacet
facet normal -0.0 1.0 0.0
  outer loop
    vertex 6.374166975080229 3.9999999999999996 1.849999999999999
    vertex 3.9999999999999996 3.9999999999999996 0.0
    vertex 3.9999999999999996 3.9999999999999996 4.999999999999999
  endloop
endfacet
facet normal -0.0 1.0 0.0
  outer loop
    vertex 10.499999999999998 3.9999999999999996 0.0
    vertex 7.163535241366722 3.9999999999999996 1.2442964258242104
    vertex 7.499999999999999 3.9999999999999996 1.1999999999999993
  endloop
endfacet
facet normal -0.0 1.0 0.0
  outer loop
    vertex 6.374166975080229 3.9999999999999996 1.849999999999999
    vertex 3.9999999999999996 3.9999999999999996 4.999999999999999
    vertex 6.24429642582421 3.9999999999999996 2.163535241366722
  endloop
endfacet
facet normal -0.0 1.0 0.0
  outer loop
    vertex 6.24429642582421 3.9999999999999996 2.163535241366722
    vertex 3.9999999999999996 3.9999999999999996 4.999999999999999
    vertex 6.199999999999998 3.9999999999999996 2.4999999999999996
  endloop
endfacet
facet normal -0.0 1.0 0.0
  outer loop
    vertex 6.199999999999998 3.9999999999999996 2.4999999999999996
    vertex 3.9999999999999996 3.9999999999999996 4.999999999999999
    vertex 6.24429642582421 3.9999999999999996 2.836464758633276
  endloop
endfacet
facet normal -0.0 1.0 0.0
  outer loop
    vertex 6.24429642582421 3.9999999999999996 2.836464758633276
    vertex 3.9999999999999996 3.9999999999999996 4.999999999999999
    vertex 6.374166975080229 3.9999999999999996 3.1499999999999995
  endloop
endfacet
facet normal -0.0 1.0 0.0
  outer loop
    vertex 6.374166975080229 3.9999999999999996 3.1499999999999995
    vertex 3.9999999999999996 3.9999999999999996 4.999999999999999
    vertex 6.5807611844574865 3.9999999999999996 3.4192388155425113
  endloop
endfacet
facet normal -0.0 1.0 0.0
  outer loop
    vertex 6.5807611844574865 3.9999999999999996 3.4192388155425113
    vertex 3.9999999999999996 3.9999999999999996 4.999999999999999
    vertex 6.849999999999999 3.9999999999999996 3.62583302491977
  endloop
endfacet
facet normal -0.0 1.0 0.0
  outer loop
    vertex 6.849999999999999 3.9999999999999996 3.62583302491977
    vertex 3.9999999999999996 3.9999999999999996 4.999999999999999
    vertex 7.163535241366722 3.9999999999999996 3.7557035741757887
  endloop
endfacet
facet normal -0.0 1.0 0.0
  outer loop
    vertex 7.163535241366722 3.9999999999999996 3.7557035741757887
    vertex 3.9999999999999996 3.9999999999999996 4.999999999999999
    vertex 7.499999999999999 3.9999999999999996 3.8000000000000003
  endloop
endfacet
facet normal -0.0 1.0 0.0
  outer loop
    vertex 10.499999999999998 3.9999999999999996 0.0
    vertex 8.62583302491977 3.9999999999999996 1.8499999999999994
    vertex 10.499999999999998 3.9999999999999996 4.999999999999999
  endloop
endfacet
facet normal -0.0 1.0 0.0
  outer loop
    vertex 8.62583302491977 3.9999999999999996 1.8499999999999994
    vertex 10.499999999999998 3.9999999999999996 0.0
    vertex 8.419238815542512 3.9999999999999996 1.5807611844574876
  endloop
endfacet
facet normal -0.0 1.0 0.0
  outer loop
    vertex 8.419238815542512 3.9999999999999996 1.5807611844574876
    vertex 10.499999999999998 3.9999999999999996 0.0
    vertex 8.149999999999999 3.9999999999999996 1.3741669750802292
  endloop
endfacet
facet normal -0.0 1.0 0.0
  outer loop
    vertex 8.149999999999999 3.9999999999999996 1.3741669750802292
    vertex 10.499999999999998 3.9999999999999996 0.0
    vertex 7.8364647586332765 3.9999999999999996 1.2442964258242106
  endloop
endfacet
facet normal -0.0 1.0 0.0
  outer loop
    vertex 7.8364647586332765 3.9999999999999996 1.2442964258242106
    vertex 10.499999999999998 3.9999999999999996 0.0
    vertex 7.499999999999999 3.9999999999999996 1.1999999999999993
  endloop
endfacet
facet normal -0.0 1.0 0.0
  outer loop
    vertex 10.499999999999998 3.9999999999999996 4.999999999999999
    vertex 8.62583302491977 3.9999999999999996 1.8499999999999994
    vertex 8.755703574175786 3.9999999999999996 2.1635352413667226
  endloop
endfacet
facet normal -0.0 1.0 0.0
  outer loop
    vertex 10.499999999999998 3.9999999999999996 4.999999999999999
    vertex 8.755703574175786 3.9999999999999996 2.1635352413667226
    vertex 8.799999999999999 3.9999999999999996 2.4999999999999996
  endloop
endfacet
facet normal -0.0 1.0 0.0
  outer loop
    vertex 10.499999999999998 3.9999999999999996 4.999999999999999
    vertex 8.799999999999999 3.9999999999999996 2.4999999999999996
    vertex 8.755703574175786 3.9999999999999996 2.836464758633278
  endloop
endfacet
facet normal -0.0 1.0 0.0
  outer loop
    vertex 10.499999999999998 3.9999999999999996 4.999999999999999
    vertex 8.755703574175786 3.9999999999999996 2.836464758633278
    vertex 8.62583302491977 3.9999999999999996 3.1500000000000004
  endloop
endfacet
facet normal -0.0 1.0 0.0
  outer loop
    vertex 10.499999999999998 3.9999999999999996 4.999999999999999
    vertex 8.62583302491977 3.9999999999999996 3.1500000000000004
    vertex 8.419238815542512 3.9999999999999996 3.419238815542512
  endloop
endfacet
facet normal -0.0 1.0 0.0
  outer loop
    vertex 10.499999999999998 3.9999999999999996 4.999999999999999
    vertex 8.419238815542512 3.9999999999999996 3.419238815542512
    vertex 8.149999999999999 3.9999999999999996 3.6258330249197708
  endloop
endfacet
facet normal -0.0 1.0 0.0
  outer loop
    vertex 10.499999999999998 3.9999999999999996 4.999999999999999
    vertex 8.149999999999999 3.9999999999999996 3.6258330249197708
    vertex 7.836464758633275 3.9999999999999996 3.7557035741757896
  endloop
endfacet
facet normal -0.0 1.0 0.0
  outer loop
    vertex 10.499999999999998 3.9999999999999996 4.999999999999999
    vertex 7.836464758633275 3.9999999999999996 3.7557035741757896
    vertex 7.499999999999999 3.9999999999999996 3.8000000000000003
  endloop
endfacet
facet normal -0.0 1.0 0.0
  outer loop
    vertex 10.499999999999998 3.9999999999999996 4.999999999999999
    vertex 7.499999999999999 3.9999999999999996 3.8000000000000003
    vertex 3.9999999999999996 3.9999999999999996 4.999999999999999
  endloop
endfacet
facet normal 1.0 0.0 0.0
  outer loop
    vertex 10.499999999999998 3.9999999999999996 0.0
    vertex 10.499999999999998 0.0 4.999999999999999
    vertex 10.499999999999998 0.0 0.0
  endloop
endfacet
facet normal 1.0 0.0 0.0
  outer loop
    vertex 10.499999999999998 0.0 4.999999999999999
    vertex 10.499999999999998 3.9999999999999996 0.0
    vertex 10.499999999999998 3.9999999999999996 4.999999999999999
  endloop
endfacet
facet normal -0.0 -1.0 -0.0
  outer loop
    vertex 10.499999999999998 0.0 0.0
    vertex 7.8364647586332765 0.0 1.2442964258242106
    vertex 0.0 0.0 0.0
  endloop
endfacet
facet normal -0.0 -1.0 -0.0
  outer loop
    vertex 7.8364647586332765 0.0 1.2442964258242106
    vertex 10.499999999999998 0.0 0.0
    vertex 8.149999999999999 0.0 1.3741669750802292
  endloop
endfacet
facet normal -0.0 -1.0 -0.0
  outer loop
    vertex 8.149999999999999 0.0 1.3741669750802292
    vertex 10.499999999999998 0.0 0.0
    vertex 8.419238815542512 0.0 1.5807611844574876
  endloop
endfacet
facet normal -0.0 -1.0 -0.0
  outer loop
    vertex 8.419238815542512 0.0 1.5807611844574876
    vertex 10.499999999999998 0.0 0.0
    vertex 8.62583302491977 0.0 1.8499999999999994
  endloop
endfacet
facet normal -0.0 -1.0 -0.0
  outer loop
    vertex 8.62583302491977 0.0 1.8499999999999994
    vertex 10.499999999999998 0.0 0.0
    vertex 10.499999999999998 0.0 4.999999999999999
  endloop
endfacet
facet normal -0.0 -1.0 -0.0
  outer loop
    vertex 0.0 0.0 0.0
    vertex 7.8364647586332765 0.0 1.2442964258242106
    vertex 7.499999999999999 0.0 1.1999999999999993
  endloop
endfacet
facet normal -0.0 -1.0 -0.0
  outer loop
    vertex 8.62583302491977 0.0 1.8499999999999994
    vertex 10.499999999999998 0.0 4.999999999999999
    vertex 8.755703574175786 0.0 2.1635352413667226
  endloop
endfacet
facet normal -0.0 -1.0 -0.0
  outer loop
    vertex 8.755703574175786 0.0 2.1635352413667226
    vertex 10.499999999999998 0.0 4.999999999999999
    vertex 8.799999999999999 0.0 2.4999999999999996
  endloop
endfacet
facet normal -0.0 -1.0 -0.0
  outer loop
    vertex 8.799999999999999 0.0 2.4999999999999996
    vertex 10.499999999999998 0.0 4.999999999999999
    vertex 8.755703574175786 0.0 2.836464758633278
  endloop
endfacet
facet normal -0.0 -1.0 -0.0
  outer loop
    vertex 8.755703574175786 0.0 2.836464758633278
    vertex 10.499999999999998 0.0 4.999999999999999
    vertex 8.62583302491977 0.0 3.1500000000000004
  endloop
endfacet
facet normal -0.0 -1.0 -0.0
  outer loop
    vertex 8.62583302491977 0.0 3.1500000000000004
    vertex 10.499999999999998 0.0 4.999999999999999
    vertex 8.419238815542512 0.0 3.419238815542512
  endloop
endfacet
facet normal -0.0 -1.0 -0.0
  outer loop
    vertex 8.419238815542512 0.0 3.419238815542512
    vertex 10.499999999999998 0.0 4.999999999999999
    vertex 8.149999999999999 0.0 3.6258330249197708
  endloop
endfacet
facet normal -0.0 -1.0 -0.0
  outer loop
    vertex 8.149999999999999 0.0 3.6258330249197708
    vertex 10.499999999999998 0.0 4.999999999999999
    vertex 7.836464758633275 0.0 3.7557035741757896
  endloop
endfacet
facet normal -0.0 -1.0 -0.0
  outer loop
    vertex 7.836464758633275 0.0 3.7557035741757896
    vertex 10.499999999999998 0.0 4.999999999999999
    vertex 7.499999999999999 0.0 3.8000000000000003
  endloop
endfacet
facet normal -0.0 -1.0 -0.0
  outer loop
    vertex 0.0 0.0 0.0
    vertex 6.849999999999999 0.0 1.3741669750802288
    vertex 0.0 0.0 4.999999999999999
  endloop
endfacet
facet normal -0.0 -1.0 -0.0
  outer loop
    vertex 6.849999999999999 0.0 1.3741669750802288
    vertex 0.0 0.0 0.0
    vertex 7.163535241366722 0.0 1.2442964258242104
  endloop
endfacet
facet normal -0.0 -1.0 -0.0
  outer loop
    vertex 7.163535241366722 0.0 1.2442964258242104
    vertex 0.0 0.0 0.0
    vertex 7.499999999999999 0.0 1.1999999999999993
  endloop
endfacet
facet normal -0.0 -1.0 -0.0
  outer loop
    vertex 0.0 0.0 4.999999999999999
    vertex 6.849999999999999 0.0 1.3741669750802288
    vertex 6.5807611844574865 0.0 1.5807611844574874
  endloop
endfacet
facet normal -0.0 -1.0 -0.0
  outer loop
    vertex 0.0 0.0 4.999999999999999
    vertex 6.5807611844574865 0.0 1.5807611844574874
    vertex 6.374166975080229 0.0 1.849999999999999
  endloop
endfacet
facet normal -0.0 -1.0 -0.0
  outer loop
    vertex 0.0 0.0 4.999999999999999
    vertex 6.374166975080229 0.0 1.849999999999999
    vertex 6.24429642582421 0.0 2.163535241366722
  endloop
endfacet
facet normal -0.0 -1.0 -0.0
  outer loop
    vertex 0.0 0.0 4.999999999999999
    vertex 6.24429642582421 0.0 2.163535241366722
    vertex 6.199999999999998 0.0 2.4999999999999996
  endloop
endfacet
facet normal -0.0 -1.0 -0.0
  outer loop
    vertex 0.0 0.0 4.999999999999999
    vertex 6.199999999999998 0.0 2.4999999999999996
    vertex 6.24429642582421 0.0 2.836464758633276
  endloop
endfacet
facet normal -0.0 -1.0 -0.0
  outer loop
    vertex 0.0 0.0 4.999999999999999
    vertex 6.24429642582421 0.0 2.836464758633276
    vertex 6.374166975080229 0.0 3.1499999999999995
  endloop
endfacet
facet normal -0.0 -1.0 -0.0
  outer loop
    vertex 0.0 0.0 4.999999999999999
    vertex 6.374166975080229 0.0 3.1499999999999995
    vertex 6.5807611844574865 0.0 3.4192388155425113
  endloop
endfacet
facet normal -0.0 -1.0 -0.0
  outer loop
    vertex 0.0 0.0 4.999999999999999
    vertex 6.5807611844574865 0.0 3.4192388155425113
    vertex 6.849999999999999 0.0 3.62583302491977
  endloop
endfacet
facet normal -0.0 -1.0 -0.0
  outer loop
    vertex 0.0 0.0 4.999999999999999
    vertex 6.849999999999999 0.0 3.62583302491977
    vertex 7.163535241366722 0.0 3.7557035741757887
  endloop
endfacet
facet normal -0.0 -1.0 -0.0
  outer loop
    vertex 0.0 0.0 4.999999999999999
    vertex 7.163535241366722 0.0 3.7557035741757887
    vertex 7.499999999999999 0.0 3.8000000000000003
  endloop
endfacet
facet normal -0.0 -1.0 -0.0
  outer loop
    vertex 0.0 0.0 4.999999999999999
    vertex 7.499999999999999 0.0 3.8000000000000003
    vertex 10.499999999999998 0.0 4.999999999999999
  endloop
endfacet
facet normal -1.0 0.0 0.0
  outer loop
    vertex 0.0 0.0 4.999999999999999
    vertex 0.0 6.93498830918448 3.6707953660831554
    vertex 0.0 0.0 0.0
  endloop
endfacet
facet normal -1.0 0.0 0.0
  outer loop
    vertex 0.0 6.93498830918448 3.6707953660831554
    vertex 0.0 0.0 4.999999999999999
    vertex 0.0 10.499999999999998 4.999999999999999
  endloop
endfacet
facet normal -1.0 0.0 0.0
  outer loop
    vertex 0.0 0.0 0.0
    vertex 0.0 6.93498830918448 3.6707953660831554
    vertex 0.0 6.651216477025938 3.484665695110651
  endloop
endfacet
facet normal -1.0 0.0 0.0
  outer loop
    vertex 0.0 0.0 0.0
    vertex 0.0 6.651216477025938 3.484665695110651
    vertex 0.0 6.425287839276984 3.2314326842533556
  endloop
endfacet
facet normal -1.0 0.0 0.0
  outer loop
    vertex 0.0 0.0 0.0
    vertex 0.0 6.425287839276984 3.2314326842533556
    vertex 0.0 6.272599059235483 2.928353744713855
  endloop
endfacet
facet normal -1.0 0.0 0.0
  outer loop
    vertex 0.0 0.0 0.0
    vertex 0.0 6.272599059235483 2.928353744713855
    vertex 0.0 6.203555624931126 2.5960832053601393
  endloop
endfacet
facet normal -1.0 0.0 0.0
  outer loop
    vertex 0.0 6.93498830918448 3.6707953660831554
    vertex 0.0 10.499999999999998 4.999999999999999
    vertex 0.0 7.257264754346135 3.7771372676879174
  endloop
endfacet
facet normal -1.0 0.0 0.0
  outer loop
    vertex 0.0 7.257264754346135 3.7771372676879174
    vertex 0.0 10.499999999999998 4.999999999999999
    vertex 0.0 7.59608320536014 3.796444375068873
  endloop
endfacet
facet normal -1.0 0.0 0.0
  outer loop
    vertex 0.0 7.59608320536014 3.796444375068873
    vertex 0.0 10.499999999999998 4.999999999999999
    vertex 0.0 7.928353744713854 3.7274009407645154
  endloop
endfacet
facet normal -1.0 0.0 0.0
  outer loop
    vertex 0.0 7.928353744713854 3.7274009407645154
    vertex 0.0 10.499999999999998 4.999999999999999
    vertex 0.0 8.231432684253354 3.574712160723015
  endloop
endfacet
facet normal -1.0 0.0 0.0
  outer loop
    vertex 0.0 8.231432684253354 3.574712160723015
    vertex 0.0 10.499999999999998 4.999999999999999
    vertex 0.0 8.484665695110651 3.3487835229740606
  endloop
endfacet
facet normal -1.0 0.0 0.0
  outer loop
    vertex 0.0 8.484665695110651 3.3487835229740606
    vertex 0.0 10.499999999999998 4.999999999999999
    vertex 0.0 8.670795366083155 3.065011690815518
  endloop
endfacet
facet normal -1.0 0.0 0.0
  outer loop
    vertex 0.0 8.670795366083155 3.065011690815518
    vertex 0.0 10.499999999999998 4.999999999999999
    vertex 0.0 8.777137267687916 2.7427352456538645
  endloop
endfacet
facet normal -1.0 0.0 0.0
  outer loop
    vertex 0.0 8.777137267687916 2.7427352456538645
    vertex 0.0 10.499999999999998 4.999999999999999
    vertex 0.0 8.796444375068873 2.4039167946398594
  endloop
endfacet
facet normal -1.0 0.0 0.0
  outer loop
    vertex 0.0 0.0 0.0
    vertex 0.0 7.071646255286144 1.2725990592354837
    vertex 0.0 10.499999999999998 0.0
  endloop
endfacet
facet normal -1.0 0.0 0.0
  outer loop
    vertex 0.0 7.071646255286144 1.2725990592354837
    vertex 0.0 0.0 0.0
    vertex 0.0 6.768567315746645 1.4252878392769843
  endloop
endfacet
facet normal -1.0 0.0 0.0
  outer loop
    vertex 0.0 6.768567315746645 1.4252878392769843
    vertex 0.0 0.0 0.0
    vertex 0.0 6.515334304889349 1.6512164770259379
  endloop
endfacet
facet normal -1.0 0.0 0.0
  outer loop
    vertex 0.0 6.515334304889349 1.6512164770259379
    vertex 0.0 0.0 0.0
    vertex 0.0 6.329204633916843 1.9349883091844808
  endloop
endfacet
facet normal -1.0 0.0 0.0
  outer loop
    vertex 0.0 6.329204633916843 1.9349883091844808
    vertex 0.0 0.0 0.0
    vertex 0.0 6.222862732312081 2.2572647543461346
  endloop
endfacet
facet normal -1.0 0.0 0.0
  outer loop
    vertex 0.0 6.222862732312081 2.2572647543461346
    vertex 0.0 0.0 0.0
    vertex 0.0 6.203555624931126 2.5960832053601393
  endloop
endfacet
facet normal -1.0 0.0 0.0
  outer loop
    vertex 0.0 10.499999999999998 0.0
    vertex 0.0 7.071646255286144 1.2725990592354837
    vertex 0.0 7.403916794639859 1.2035556249311261
  endloop
endfacet
facet normal -1.0 0.0 0.0
  outer loop
    vertex 0.0 10.499999999999998 0.0
    vertex 0.0 7.403916794639859 1.2035556249311261
    vertex 0.0 7.742735245653864 1.2228627323120822
  endloop
endfacet
facet normal -1.0 0.0 0.0
  outer loop
    vertex 0.0 10.499999999999998 0.0
    vertex 0.0 7.742735245653864 1.2228627323120822
    vertex 0.0 8.065011690815517 1.3292046339168442
  endloop
endfacet
facet normal -1.0 0.0 0.0
  outer loop
    vertex 0.0 10.499999999999998 0.0
    vertex 0.0 8.065011690815517 1.3292046339168442
    vertex 0.0 8.34878352297406 1.5153343048893486
  endloop
endfacet
facet normal -1.0 0.0 0.0
  outer loop
    vertex 0.0 10.499999999999998 0.0
    vertex 0.0 8.34878352297406 1.5153343048893486
    vertex 0.0 8.574712160723013 1.7685673157466444
  endloop
endfacet
facet normal -1.0 0.0 0.0
  outer loop
    vertex 0.0 10.499999999999998 0.0
    vertex 0.0 8.574712160723013 1.7685673157466444
    vertex 0.0 8.727400940764515 2.071646255286144
  endloop
endfacet
facet normal -1.0 0.0 0.0
  outer loop
    vertex 0.0 10.499999999999998 0.0
    vertex 0.0 8.727400940764515 2.071646255286144
    vertex 0.0 8.796444375068873 2.4039167946398594
  endloop
endfacet
facet normal -1.0 0.0 0.0
  outer loop
    vertex 0.0 10.499999999999998 0.0
    vertex 0.0 8.796444375068873 2.4039167946398594
    vertex 0.0 10.499999999999998 4.999999999999999
  endloop
endfacet
facet normal 0.0 1.0 0.0
  outer loop
    vertex 0.0 10.499999999999998 4.999999999999999
    vertex 3.9999999999999996 10.499999999999998 0.0
    vertex 0.0 10.499999999999998 0.0
  endloop
endfacet
facet normal 0.0 1.0 0.0
  outer loop
    vertex 3.9999999999999996 10.499999999999998 0.0
    vertex 0.0 10.499999999999998 4.999999999999999
    vertex 3.9999999999999996 10.499999999999998 4.999999999999999
  endloop
endfacet
facet normal -0.9659258262890681 0.0 -0.25881904510252113
  outer loop
    vertex 8.755703574175786 3.9999999999999996 2.836464758633278
    vertex 8.799999999999999 0.0 2.4999999999999996
    vertex 8.755703574175786 0.0 2.836464758633278
  endloop
endfacet
facet normal -1.0 0.0 1.9604441770423197e-16
  outer loop
    vertex 8.799999999999999 0.0 2.4999999999999996
    vertex 8.755703574175786 3.9999999999999996 2.836464758633278
    vertex 8.799999999999999 3.9999999999999996 2.4999999999999996
  endloop
endfacet
facet normal -0.8660254037844392 0.0 -0.49999999999999917
  outer loop
    vertex 8.62583302491977 3.9999999999999996 3.1500000000000004
    vertex 8.755703574175786 0.0 2.836464758633278
    vertex 8.62583302491977 0.0 3.1500000000000004
  endloop
endfacet
facet normal -0.9659258262890681 0.0 -0.25881904510252113
  outer loop
    vertex 8.755703574175786 0.0 2.836464758633278
    vertex 8.62583302491977 3.9999999999999996 3.1500000000000004
    vertex 8.755703574175786 3.9999999999999996 2.836464758633278
  endloop
endfacet
facet normal -0.7071067811865468 0.0 -0.7071067811865482
  outer loop
    vertex 8.419238815542512 3.9999999999999996 3.419238815542512
    vertex 8.62583302491977 0.0 3.1500000000000004
    vertex 8.419238815542512 0.0 3.419238815542512
  endloop
endfacet
facet normal -0.8660254037844392 0.0 -0.49999999999999917
  outer loop
    vertex 8.62583302491977 0.0 3.1500000000000004
    vertex 8.419238815542512 3.9999999999999996 3.419238815542512
    vertex 8.62583302491977 3.9999999999999996 3.1500000000000004
  endloop
endfacet
facet normal -0.7071067811865468 0.0 -0.7071067811865482
  outer loop
    vertex 8.419238815542512 3.9999999999999996 3.419238815542512
    vertex 8.149999999999999 0.0 3.6258330249197708
    vertex 8.149999999999999 3.9999999999999996 3.6258330249197708
  endloop
endfacet
facet normal -0.49999999999999906 0.0 -0.8660254037844392
  outer loop
    vertex 8.149999999999999 0.0 3.6258330249197708
    vertex 8.419238815542512 3.9999999999999996 3.419238815542512
    vertex 8.419238815542512 0.0 3.419238815542512
  endloop
endfacet
facet normal -0.49999999999999906 0.0 -0.8660254037844392
  outer loop
    vertex 8.149999999999999 3.9999999999999996 3.6258330249197708
    vertex 7.836464758633275 0.0 3.7557035741757896
    vertex 7.836464758633275 3.9999999999999996 3.7557035741757896
  endloop
endfacet
facet normal -0.2588190451025205 0.0 -0.9659258262890684
  outer loop
    vertex 7.836464758633275 0.0 3.7557035741757896
    vertex 8.149999999999999 3.9999999999999996 3.6258330249197708
    vertex 8.149999999999999 0.0 3.6258330249197708
  endloop
endfacet
facet normal -0.2588190451025205 0.0 -0.9659258262890684
  outer loop
    vertex 7.836464758633275 3.9999999999999996 3.7557035741757896
    vertex 7.499999999999999 0.0 3.8000000000000003
    vertex 7.499999999999999 3.9999999999999996 3.8000000000000003
  endloop
endfacet
facet normal 7.485332312343399e-16 0.0 -1.0
  outer loop
    vertex 7.499999999999999 0.0 3.8000000000000003
    vertex 7.836464758633275 3.9999999999999996 3.7557035741757896
    vertex 7.836464758633275 0.0 3.7557035741757896
  endloop
endfacet
facet normal 7.485332312343399e-16 0.0 -1.0
  outer loop
    vertex 7.499999999999999 3.9999999999999996 3.8000000000000003
    vertex 7.163535241366722 0.0 3.7557035741757887
    vertex 7.163535241366722 3.9999999999999996 3.7557035741757887
  endloop
endfacet
facet normal 0.2588190451025212 0.0 -0.9659258262890682
  outer loop
    vertex 7.163535241366722 0.0 3.7557035741757887
    vertex 7.499999999999999 3.9999999999999996 3.8000000000000003
    vertex 7.499999999999999 0.0 3.8000000000000003
  endloop
endfacet
facet normal 0.2588190451025212 0.0 -0.9659258262890682
  outer loop
    vertex 7.163535241366722 3.9999999999999996 3.7557035741757887
    vertex 6.849999999999999 0.0 3.62583302491977
    vertex 6.849999999999999 3.9999999999999996 3.62583302491977
  endloop
endfacet
facet normal 0.5000000000000001 0.0 -0.8660254037844386
  outer loop
    vertex 6.849999999999999 0.0 3.62583302491977
    vertex 7.163535241366722 3.9999999999999996 3.7557035741757887
    vertex 7.163535241366722 0.0 3.7557035741757887
  endloop
endfacet
facet normal 0.5000000000000001 0.0 -0.8660254037844386
  outer loop
    vertex 6.849999999999999 3.9999999999999996 3.62583302491977
    vertex 6.5807611844574865 0.0 3.4192388155425113
    vertex 6.5807611844574865 3.9999999999999996 3.4192388155425113
  endloop
endfacet
facet normal 0.707106781186548 0.0 -0.7071067811865471
  outer loop
    vertex 6.5807611844574865 0.0 3.4192388155425113
    vertex 6.849999999999999 3.9999999999999996 3.62583302491977
    vertex 6.849999999999999 0.0 3.62583302491977
  endloop
endfacet
facet normal 0.8660254037844389 0.0 -0.4999999999999995
  outer loop
    vertex 6.374166975080229 3.9999999999999996 3.1499999999999995
    vertex 6.5807611844574865 0.0 3.4192388155425113
    vertex 6.374166975080229 0.0 3.1499999999999995
  endloop
endfacet
facet normal 0.707106781186548 0.0 -0.7071067811865471
  outer loop
    vertex 6.5807611844574865 0.0 3.4192388155425113
    vertex 6.374166975080229 3.9999999999999996 3.1499999999999995
    vertex 6.5807611844574865 3.9999999999999996 3.4192388155425113
  endloop
endfacet
facet normal 0.9659258262890682 0.0 -0.25881904510252113
  outer loop
    vertex 6.24429642582421 3.9999999999999996 2.836464758633276
    vertex 6.374166975080229 0.0 3.1499999999999995
    vertex 6.24429642582421 0.0 2.836464758633276
  endloop
endfacet
facet normal 0.8660254037844389 0.0 -0.4999999999999995
  outer loop
    vertex 6.374166975080229 0.0 3.1499999999999995
    vertex 6.24429642582421 3.9999999999999996 2.836464758633276
    vertex 6.374166975080229 3.9999999999999996 3.1499999999999995
  endloop
endfacet
facet normal 1.0 0.0 -1.3366664843470358e-16
  outer loop
    vertex 6.199999999999998 3.9999999999999996 2.4999999999999996
    vertex 6.24429642582421 0.0 2.836464758633276
    vertex 6.199999999999998 0.0 2.4999999999999996
  endloop
endfacet
facet normal 0.9659258262890682 0.0 -0.25881904510252113
  outer loop
    vertex 6.24429642582421 0.0 2.836464758633276
    vertex 6.199999999999998 3.9999999999999996 2.4999999999999996
    vertex 6.24429642582421 3.9999999999999996 2.836464758633276
  endloop
endfacet
facet normal 0.9659258262890682 0.0 0.258819045102521
  outer loop
    vertex 6.24429642582421 3.9999999999999996 2.163535241366722
    vertex 6.199999999999998 0.0 2.4999999999999996
    vertex 6.24429642582421 0.0 2.163535241366722
  endloop
endfacet
facet normal 1.0 0.0 -1.3366664843470358e-16
  outer loop
    vertex 6.199999999999998 0.0 2.4999999999999996
    vertex 6.24429642582421 3.9999999999999996 2.163535241366722
    vertex 6.199999999999998 3.9999999999999996 2.4999999999999996
  endloop
endfacet
facet normal 0.8660254037844388 0.0 0.49999999999999967
  outer loop
    vertex 6.374166975080229 3.9999999999999996 1.849999999999999
    vertex 6.24429642582421 0.0 2.163535241366722
    vertex 6.374166975080229 0.0 1.849999999999999
  endloop
endfacet
facet normal 0.9659258262890682 0.0 0.258819045102521
  outer loop
    vertex 6.24429642582421 0.0 2.163535241366722
    vertex 6.374166975080229 3.9999999999999996 1.849999999999999
    vertex 6.24429642582421 3.9999999999999996 2.163535241366722
  endloop
endfacet
facet normal 0.7071067811865478 0.0 0.7071067811865472
  outer loop
    vertex 6.5807611844574865 3.9999999999999996 1.5807611844574874
    vertex 6.374166975080229 0.0 1.849999999999999
    vertex 6.5807611844574865 0.0 1.5807611844574874
  endloop
endfacet
facet normal 0.8660254037844388 0.0 0.49999999999999967
  outer loop
    vertex 6.374166975080229 0.0 1.849999999999999
    vertex 6.5807611844574865 3.9999999999999996 1.5807611844574874
    vertex 6.374166975080229 3.9999999999999996 1.849999999999999
  endloop
endfacet
facet normal 0.49999999999999967 0.0 0.8660254037844388
  outer loop
    vertex 6.849999999999999 0.0 1.3741669750802288
    vertex 6.5807611844574865 3.9999999999999996 1.5807611844574874
    vertex 6.5807611844574865 0.0 1.5807611844574874
  endloop
endfacet
facet normal 0.7071067811865478 0.0 0.7071067811865472
  outer loop
    vertex 6.5807611844574865 3.9999999999999996 1.5807611844574874
    vertex 6.849999999999999 0.0 1.3741669750802288
    vertex 6.849999999999999 3.9999999999999996 1.3741669750802288
  endloop
endfacet
facet normal 0.2588190451025204 0.0 0.9659258262890684
  outer loop
    vertex 7.163535241366722 0.0 1.2442964258242104
    vertex 6.849999999999999 3.9999999999999996 1.3741669750802288
    vertex 6.849999999999999 0.0 1.3741669750802288
  endloop
endfacet
facet normal 0.49999999999999967 0.0 0.8660254037844388
  outer loop
    vertex 6.849999999999999 3.9999999999999996 1.3741669750802288
    vertex 7.163535241366722 0.0 1.2442964258242104
    vertex 7.163535241366722 3.9999999999999996 1.2442964258242104
  endloop
endfacet
facet normal -2.5842218697376023e-16 0.0 1.0
  outer loop
    vertex 7.499999999999999 0.0 1.1999999999999993
    vertex 7.163535241366722 3.9999999999999996 1.2442964258242104
    vertex 7.163535241366722 0.0 1.2442964258242104
  endloop
endfacet
facet normal 0.2588190451025204 0.0 0.9659258262890684
  outer loop
    vertex 7.163535241366722 3.9999999999999996 1.2442964258242104
    vertex 7.499999999999999 0.0 1.1999999999999993
    vertex 7.499999999999999 3.9999999999999996 1.1999999999999993
  endloop
endfacet
facet normal -0.25881904510252096 0.0 0.9659258262890682
  outer loop
    vertex 7.8364647586332765 0.0 1.2442964258242106
    vertex 7.499999999999999 3.9999999999999996 1.1999999999999993
    vertex 7.499999999999999 0.0 1.1999999999999993
  endloop
endfacet
facet normal -2.5842218697376023e-16 0.0 1.0
  outer loop
    vertex 7.499999999999999 3.9999999999999996 1.1999999999999993
    vertex 7.8364647586332765 0.0 1.2442964258242106
    vertex 7.8364647586332765 3.9999999999999996 1.2442964258242106
  endloop
endfacet
facet normal -0.4999999999999998 0.0 0.8660254037844388
  outer loop
    vertex 8.149999999999999 0.0 1.3741669750802292
    vertex 7.8364647586332765 3.9999999999999996 1.2442964258242106
    vertex 7.8364647586332765 0.0 1.2442964258242106
  endloop
endfacet
facet normal -0.25881904510252096 0.0 0.9659258262890682
  outer loop
    vertex 7.8364647586332765 3.9999999999999996 1.2442964258242106
    vertex 8.149999999999999 0.0 1.3741669750802292
    vertex 8.149999999999999 3.9999999999999996 1.3741669750802292
  endloop
endfacet
facet normal -0.7071067811865477 0.0 0.7071067811865474
  outer loop
    vertex 8.419238815542512 0.0 1.5807611844574876
    vertex 8.149999999999999 3.9999999999999996 1.3741669750802292
    vertex 8.149999999999999 0.0 1.3741669750802292
  endloop
endfacet
facet normal -0.4999999999999998 0.0 0.8660254037844388
  outer loop
    vertex 8.149999999999999 3.9999999999999996 1.3741669750802292
    vertex 8.419238815542512 0.0 1.5807611844574876
    vertex 8.419238815542512 3.9999999999999996 1.5807611844574876
  endloop
endfacet
facet normal -0.8660254037844394 0.0 0.4999999999999988
  outer loop
    vertex 8.62583302491977 3.9999999999999996 1.8499999999999994
    vertex 8.419238815542512 0.0 1.5807611844574876
    vertex 8.62583302491977 0.0 1.8499999999999994
  endloop
endfacet
facet normal -0.7071067811865477 0.0 0.7071067811865474
  outer loop
    vertex 8.419238815542512 0.0 1.5807611844574876
    vertex 8.62583302491977 3.9999999999999996 1.8499999999999994
    vertex 8.419238815542512 3.9999999999999996 1.5807611844574876
  endloop
endfacet
facet normal -0.9659258262890682 0.0 0.2588190451025212
  outer loop
    vertex 8.755703574175786 3.9999999999999996 2.1635352413667226
    vertex 8.62583302491977 0.0 1.8499999999999994
    vertex 8.755703574175786 0.0 2.1635352413667226
  endloop
endfacet
facet normal -0.8660254037844394 0.0 0.4999999999999988
  outer loop
    vertex 8.62583302491977 0.0 1.8499999999999994
    vertex 8.755703574175786 3.9999999999999996 2.1635352413667226
    vertex 8.62583302491977 3.9999999999999996 1.8499999999999994
  endloop
endfacet
facet normal -1.0 0.0 1.9604441770423197e-16
  outer loop
    vertex 8.799999999999999 3.9999999999999996 2.4999999999999996
    vertex 8.755703574175786 0.0 2.1635352413667226
    vertex 8.799999999999999 0.0 2.4999999999999996
  endloop
endfacet
facet normal -0.9659258262890682 0.0 0.2588190451025212
  outer loop
    vertex 8.755703574175786 0.0 2.1635352413667226
    vertex 8.799999999999999 3.9999999999999996 2.4999999999999996
    vertex 8.755703574175786 3.9999999999999996 2.1635352413667226
  endloop
endfacet
facet normal 0.0 -0.9972649038991331 0.07391015796933881
  outer loop
    vertex 3.9999999999999996 8.796444375068873 2.4039167946398594
    vertex 0.0 8.727400940764515 2.071646255286144
    vertex 3.9999999999999996 8.727400940764515 2.071646255286144
  endloop
endfacet
facet normal 0.0 -0.9441545698188579 0.3295028805491195
  outer loop
    vertex 0.0 8.727400940764515 2.071646255286144
    vertex 3.9999999999999996 8.796444375068873 2.4039167946398594
    vertex 0.0 8.796444375068873 2.4039167946398594
  endloop
endfacet
facet normal 0.0 -0.9441545698188579 0.3295028805491195
  outer loop
    vertex 3.9999999999999996 8.727400940764515 2.071646255286144
    vertex 0.0 8.574712160723013 1.7685673157466444
    vertex 3.9999999999999996 8.574712160723013 1.7685673157466444
  endloop
endfacet
facet normal 0.0 -0.8267016620946267 0.5626405263487352
  outer loop
    vertex 0.0 8.574712160723013 1.7685673157466444
    vertex 3.9999999999999996 8.727400940764515 2.071646255286144
    vertex 0.0 8.727400940764515 2.071646255286144
  endloop
endfacet
facet normal 0.0 -0.8267016620946267 0.5626405263487352
  outer loop
    vertex 3.9999999999999996 8.574712160723013 1.7685673157466444
    vertex 0.0 8.34878352297406 1.5153343048893486
    vertex 3.9999999999999996 8.34878352297406 1.5153343048893486
  endloop
endfacet
facet normal 0.0 -0.6529104022877401 0.7574351500851156
  outer loop
    vertex 0.0 8.34878352297406 1.5153343048893486
    vertex 3.9999999999999996 8.574712160723013 1.7685673157466444
    vertex 0.0 8.574712160723013 1.7685673157466444
  endloop
endfacet
facet normal 0.0 -0.4346243775503995 0.900611820063965
  outer loop
    vertex 3.9999999999999996 8.065011690815517 1.3292046339168442
    vertex 0.0 8.34878352297406 1.5153343048893486
    vertex 0.0 8.065011690815517 1.3292046339168442
  endloop
endfacet
facet normal 0.0 -0.6529104022877401 0.7574351500851156
  outer loop
    vertex 0.0 8.34878352297406 1.5153343048893486
    vertex 3.9999999999999996 8.065011690815517 1.3292046339168442
    vertex 3.9999999999999996 8.34878352297406 1.5153343048893486
  endloop
endfacet
facet normal 0.0 -0.18671941973374198 0.9824132828368592
  outer loop
    vertex 3.9999999999999996 7.742735245653864 1.2228627323120822
    vertex 0.0 8.065011690815517 1.3292046339168442
    vertex 0.0 7.742735245653864 1.2228627323120822
  endloop
endfacet
facet normal 0.0 -0.4346243775503995 0.900611820063965
  outer loop
    vertex 0.0 8.065011690815517 1.3292046339168442
    vertex 3.9999999999999996 7.742735245653864 1.2228627323120822
    vertex 3.9999999999999996 8.065011690815517 1.3292046339168442
  endloop
endfacet
facet normal 0.0 0.0739101579693384 0.9972649038991332
  outer loop
    vertex 3.9999999999999996 7.403916794639859 1.2035556249311261
    vertex 0.0 7.742735245653864 1.2228627323120822
    vertex 0.0 7.403916794639859 1.2035556249311261
  endloop
endfacet
facet normal 0.0 -0.18671941973374198 0.9824132828368592
  outer loop
    vertex 0.0 7.742735245653864 1.2228627323120822
    vertex 3.9999999999999996 7.403916794639859 1.2035556249311261
    vertex 3.9999999999999996 7.742735245653864 1.2228627323120822
  endloop
endfacet
facet normal 0.0 0.3295028805491198 0.9441545698188578
  outer loop
    vertex 3.9999999999999996 7.071646255286144 1.2725990592354837
    vertex 0.0 7.403916794639859 1.2035556249311261
    vertex 0.0 7.071646255286144 1.2725990592354837
  endloop
endfacet
facet normal 0.0 0.0739101579693384 0.9972649038991332
  outer loop
    vertex 0.0 7.403916794639859 1.2035556249311261
    vertex 3.9999999999999996 7.071646255286144 1.2725990592354837
    vertex 3.9999999999999996 7.403916794639859 1.2035556249311261
  endloop
endfacet
facet normal 0.0 0.5626405263487346 0.8267016620946269
  outer loop
    vertex 3.9999999999999996 6.768567315746645 1.4252878392769843
    vertex 0.0 7.071646255286144 1.2725990592354837
    vertex 0.0 6.768567315746645 1.4252878392769843
  endloop
endfacet
facet normal 0.0 0.3295028805491198 0.9441545698188578
  outer loop
    vertex 0.0 7.071646255286144 1.2725990592354837
    vertex 3.9999999999999996 6.768567315746645 1.4252878392769843
    vertex 3.9999999999999996 7.071646255286144 1.2725990592354837
  endloop
endfacet
facet normal 0.0 0.7574351500851149 0.652910402287741
  outer loop
    vertex 3.9999999999999996 6.515334304889349 1.6512164770259379
    vertex 0.0 6.768567315746645 1.4252878392769843
    vertex 0.0 6.515334304889349 1.6512164770259379
  endloop
endfacet
facet normal 0.0 0.5626405263487346 0.8267016620946269
  outer loop
    vertex 0.0 6.768567315746645 1.4252878392769843
    vertex 3.9999999999999996 6.515334304889349 1.6512164770259379
    vertex 3.9999999999999996 6.768567315746645 1.4252878392769843
  endloop
endfacet
facet normal 0.0 0.9006118200639652 0.43462437755039934
  outer loop
    vertex 0.0 6.329204633916843 1.9349883091844808
    vertex 3.9999999999999996 6.515334304889349 1.6512164770259379
    vertex 0.0 6.515334304889349 1.6512164770259379
  endloop
endfacet
facet normal 0.0 0.7574351500851149 0.652910402287741
  outer loop
    vertex 3.9999999999999996 6.515334304889349 1.6512164770259379
    vertex 0.0 6.329204633916843 1.9349883091844808
    vertex 3.9999999999999996 6.329204633916843 1.9349883091844808
  endloop
endfacet
facet normal 0.0 0.9824132828368595 0.18671941973374082
  outer loop
    vertex 0.0 6.222862732312081 2.2572647543461346
    vertex 3.9999999999999996 6.329204633916843 1.9349883091844808
    vertex 0.0 6.329204633916843 1.9349883091844808
  endloop
endfacet
facet normal 0.0 0.9006118200639652 0.43462437755039934
  outer loop
    vertex 3.9999999999999996 6.329204633916843 1.9349883091844808
    vertex 0.0 6.222862732312081 2.2572647543461346
    vertex 3.9999999999999996 6.222862732312081 2.2572647543461346
  endloop
endfacet
facet normal 0.0 0.9972649038991331 -0.07391015796933864
  outer loop
    vertex 0.0 6.203555624931126 2.5960832053601393
    vertex 3.9999999999999996 6.222862732312081 2.2572647543461346
    vertex 0.0 6.222862732312081 2.2572647543461346
  endloop
endfacet
facet normal 0.0 0.9824132828368595 0.18671941973374082
  outer loop
    vertex 3.9999999999999996 6.222862732312081 2.2572647543461346
    vertex 0.0 6.203555624931126 2.5960832053601393
    vertex 3.9999999999999996 6.203555624931126 2.5960832053601393
  endloop
endfacet
facet normal 0.0 0.9441545698188581 -0.3295028805491191
  outer loop
    vertex 0.0 6.272599059235483 2.928353744713855
    vertex 3.9999999999999996 6.203555624931126 2.5960832053601393
    vertex 0.0 6.203555624931126 2.5960832053601393
  endloop
endfacet
facet normal 0.0 0.9972649038991331 -0.07391015796933864
  outer loop
    vertex 3.9999999999999996 6.203555624931126 2.5960832053601393
    vertex 0.0 6.272599059235483 2.928353744713855
    vertex 3.9999999999999996 6.272599059235483 2.928353744713855
  endloop
endfacet
facet normal 0.0 0.8267016620946267 -0.5626405263487353
  outer loop
    vertex 0.0 6.425287839276984 3.2314326842533556
    vertex 3.9999999999999996 6.272599059235483 2.928353744713855
    vertex 0.0 6.272599059235483 2.928353744713855
  endloop
endfacet
facet normal 0.0 0.9441545698188581 -0.3295028805491191
  outer loop
    vertex 3.9999999999999996 6.272599059235483 2.928353744713855
    vertex 0.0 6.425287839276984 3.2314326842533556
    vertex 3.9999999999999996 6.425287839276984 3.2314326842533556
  endloop
endfacet
facet normal 0.0 0.6529104022877398 -0.7574351500851159
  outer loop
    vertex 0.0 6.651216477025938 3.484665695110651
    vertex 3.9999999999999996 6.425287839276984 3.2314326842533556
    vertex 0.0 6.425287839276984 3.2314326842533556
  endloop
endfacet
facet normal 0.0 0.8267016620946267 -0.5626405263487353
  outer loop
    vertex 3.9999999999999996 6.425287839276984 3.2314326842533556
    vertex 0.0 6.651216477025938 3.484665695110651
    vertex 3.9999999999999996 6.651216477025938 3.484665695110651
  endloop
endfacet
facet normal 0.0 0.4346243775503987 -0.9006118200639655
  outer loop
    vertex 3.9999999999999996 6.93498830918448 3.6707953660831554
    vertex 0.0 6.651216477025938 3.484665695110651
    vertex 0.0 6.93498830918448 3.6707953660831554
  endloop
endfacet
facet normal 0.0 0.6529104022877398 -0.7574351500851159
  outer loop
    vertex 0.0 6.651216477025938 3.484665695110651
    vertex 3.9999999999999996 6.93498830918448 3.6707953660831554
    vertex 3.9999999999999996 6.651216477025938 3.484665695110651
  endloop
endfacet
facet normal 0.0 0.18671941973374034 -0.9824132828368596
  outer loop
    vertex 3.9999999999999996 7.257264754346135 3.7771372676879174
    vertex 0.0 6.93498830918448 3.6707953660831554
    vertex 0.0 7.257264754346135 3.7771372676879174
  endloop
endfacet
facet normal 0.0 0.4346243775503987 -0.9006118200639655
  outer loop
    vertex 0.0 6.93498830918448 3.6707953660831554
    vertex 3.9999999999999996 7.257264754346135 3.7771372676879174
    vertex 3.9999999999999996 6.93498830918448 3.6707953660831554
  endloop
endfacet
facet normal 0.0 -0.07391015796933909 -0.9972649038991332
  outer loop
    vertex 3.9999999999999996 7.59608320536014 3.796444375068873
    vertex 0.0 7.257264754346135 3.7771372676879174
    vertex 0.0 7.59608320536014 3.796444375068873
  endloop
endfacet
facet normal 0.0 0.18671941973374034 -0.9824132828368596
  outer loop
    vertex 0.0 7.257264754346135 3.7771372676879174
    vertex 3.9999999999999996 7.59608320536014 3.796444375068873
    vertex 3.9999999999999996 7.257264754346135 3.7771372676879174
  endloop
endfacet
facet normal 0.0 -0.32950288054911925 -0.944154569818858
  outer loop
    vertex 3.9999999999999996 7.928353744713854 3.7274009407645154
    vertex 0.0 7.59608320536014 3.796444375068873
    vertex 0.0 7.928353744713854 3.7274009407645154
  endloop
endfacet
facet normal 0.0 -0.07391015796933909 -0.9972649038991332
  outer loop
    vertex 0.0 7.59608320536014 3.796444375068873
    vertex 3.9999999999999996 7.928353744713854 3.7274009407645154
    vertex 3.9999999999999996 7.59608320536014 3.796444375068873
  endloop
endfacet
facet normal 0.0 -0.5626405263487343 -0.8267016620946273
  outer loop
    vertex 3.9999999999999996 8.231432684253354 3.574712160723015
    vertex 0.0 7.928353744713854 3.7274009407645154
    vertex 0.0 8.231432684253354 3.574712160723015
  endloop
endfacet
facet normal 0.0 -0.32950288054911925 -0.944154569818858
  outer loop
    vertex 0.0 7.928353744713854 3.7274009407645154
    vertex 3.9999999999999996 8.231432684253354 3.574712160723015
    vertex 3.9999999999999996 7.928353744713854 3.7274009407645154
  endloop
endfacet
facet normal 0.0 -0.7574351500851162 -0.6529104022877394
  outer loop
    vertex 3.9999999999999996 8.484665695110651 3.3487835229740606
    vertex 0.0 8.231432684253354 3.574712160723015
    vertex 0.0 8.484665695110651 3.3487835229740606
  endloop
endfacet
facet normal 0.0 -0.5626405263487343 -0.8267016620946273
  outer loop
    vertex 0.0 8.231432684253354 3.574712160723015
    vertex 3.9999999999999996 8.484665695110651 3.3487835229740606
    vertex 3.9999999999999996 8.231432684253354 3.574712160723015
  endloop
endfacet
facet normal 0.0 -0.7574351500851162 -0.6529104022877394
  outer loop
    vertex 3.9999999999999996 8.484665695110651 3.3487835229740606
    vertex 0.0 8.670795366083155 3.065011690815518
    vertex 3.9999999999999996 8.670795366083155 3.065011690815518
  endloop
endfacet
facet normal 0.0 -0.9006118200639659 -0.4346243775503982
  outer loop
    vertex 0.0 8.670795366083155 3.065011690815518
    vertex 3.9999999999999996 8.484665695110651 3.3487835229740606
    vertex 0.0 8.484665695110651 3.3487835229740606
  endloop
endfacet
facet normal 0.0 -0.9006118200639659 -0.4346243775503982
  outer loop
    vertex 3.9999999999999996 8.670795366083155 3.065011690815518
    vertex 0.0 8.777137267687916 2.7427352456538645
    vertex 3.9999999999999996 8.777137267687916 2.7427352456538645
  endloop
endfacet
facet normal 0.0 -0.9824132828368594 -0.18671941973374112
  outer loop
    vertex 0.0 8.777137267687916 2.7427352456538645
    vertex 3.9999999999999996 8.670795366083155 3.065011690815518
    vertex 0.0 8.670795366083155 3.065011690815518
  endloop
endfacet
facet normal 0.0 -0.9824132828368594 -0.18671941973374112
  outer loop
    vertex 3.9999999999999996 8.777137267687916 2.7427352456538645
    vertex 0.0 8.796444375068873 2.4039167946398594
    vertex 3.9999999999999996 8.796444375068873 2.4039167946398594
  endloop
endfacet
facet normal 0.0 -0.9972649038991331 0.07391015796933881
  outer loop
    vertex 0.0 8.796444375068873 2.4039167946398594
    vertex 3.9999999999999996 8.777137267687916 2.7427352456538645
    vertex 0.0 8.777137267687916 2.7427352456538645
  endloop
endfacet
endsolid back bracket
