solid Ethernet
facet normal -0.0 -0.0 1.0
  outer loop
    vertex 0.5535794913290834 0.5649627360180495 0.0
    vertex 2.459697485245755 2.4936244889151737 0.0
    vertex 0.5535794913290834 21.014962736018038 0.0
  endloop
endfacet
facet normal -0.0 -0.0 1.0
  outer loop
    vertex 2.459697485245755 2.4936244889151737 0.0
    vertex 0.5535794913290834 0.5649627360180495 0.0
    vertex 19.253579491329077 0.5649627360180495 0.0
  endloop
endfacet
facet normal -0.0 -0.0 1.0
  outer loop
    vertex 2.459697485245755 2.4936244889151737 0.0
    vertex 19.253579491329077 0.5649627360180495 0.0
    vertex 17.15969748524575 2.4936244889151737 0.0
  endloop
endfacet
facet normal -0.0 -0.0 1.0
  outer loop
    vertex 17.15969748524575 2.4936244889151737 0.0
    vertex 19.253579491329077 0.5649627360180495 0.0
    vertex 17.15969748524575 18.943624488915162 0.0
  endloop
endfacet
facet normal -0.0 -0.0 1.0
  outer loop
    vertex 0.5535794913290834 21.014962736018038 0.0
    vertex 2.459697485245755 18.943624488915162 0.0
    vertex 19.253579491329077 21.014962736018038 0.0
  endloop
endfacet
facet normal -0.0 -0.0 1.0
  outer loop
    vertex 2.459697485245755 18.943624488915162 0.0
    vertex 0.5535794913290834 21.014962736018038 0.0
    vertex 2.459697485245755 2.4936244889151737 0.0
  endloop
endfacet
facet normal -0.0 -0.0 1.0
  outer loop
    vertex 19.253579491329077 21.014962736018038 0.0
    vertex 2.459697485245755 18.943624488915162 0.0
    vertex 17.15969748524575 18.943624488915162 0.0
  endloop
endfacet
facet normal -0.0 -0.0 1.0
  outer loop
    vertex 19.253579491329077 21.014962736018038 0.0
    vertex 17.15969748524575 18.943624488915162 0.0
    vertex 19.253579491329077 0.5649627360180495 0.0
  endloop
endfacet
facet normal 0.0 0.0 -1.0
  outer loop
    vertex 0.5535794913290834 21.014962736018038 -3.0
    vertex 2.459697485245755 18.943624488915162 -3.0
    vertex 0.5535794913290834 0.5649627360180495 -3.0
  endloop
endfacet
facet normal 0.0 0.0 -1.0
  outer loop
    vertex 2.459697485245755 18.943624488915162 -3.0
    vertex 0.5535794913290834 21.014962736018038 -3.0
    vertex 19.253579491329077 21.014962736018038 -3.0
  endloop
endfacet
facet normal 0.0 0.0 -1.0
  outer loop
    vertex 2.459697485245755 18.943624488915162 -3.0
    vertex 19.253579491329077 21.014962736018038 -3.0
    vertex 17.15969748524575 18.943624488915162 -3.0
  endloop
endfacet
facet normal 0.0 0.0 -1.0
  outer loop
    vertex 17.15969748524575 18.943624488915162 -3.0
    vertex 19.253579491329077 21.014962736018038 -3.0
    vertex 17.15969748524575 2.4936244889151737 -3.0
  endloop
endfacet
facet normal 0.0 0.0 -1.0
  outer loop
    vertex 0.5535794913290834 0.5649627360180495 -3.0
    vertex 2.459697485245755 2.4936244889151737 -3.0
    vertex 19.253579491329077 0.5649627360180495 -3.0
  endloop
endfacet
facet normal 0.0 0.0 -1.0
  outer loop
    vertex 2.459697485245755 2.4936244889151737 -3.0
    vertex 0.5535794913290834 0.5649627360180495 -3.0
    vertex 2.459697485245755 18.943624488915162 -3.0
  endloop
endfacet
facet normal 0.0 0.0 -1.0
  outer loop
    vertex 19.253579491329077 0.5649627360180495 -3.0
    vertex 2.459697485245755 2.4936244889151737 -3.0
    vertex 17.15969748524575 2.4936244889151737 -3.0
  endloop
endfacet
facet normal 0.0 0.0 -1.0
  outer loop
    vertex 19.253579491329077 0.5649627360180495 -3.0
    vertex 17.15969748524575 2.4936244889151737 -3.0
    vertex 19.253579491329077 21.014962736018038 -3.0
  endloop
endfacet
facet normal -1.0 0.0 0.0
  outer loop
    vertex 0.5535794913290834 21.014962736018038 0.0
    vertex 0.5535794913290834 0.5649627360180495 -3.0
    vertex 0.5535794913290834 0.5649627360180495 0.0
  endloop
endfacet
facet normal -1.0 0.0 0.0
  outer loop
    vertex 0.5535794913290834 0.5649627360180495 -3.0
    vertex 0.5535794913290834 21.014962736018038 0.0
    vertex 0.5535794913290834 21.014962736018038 -3.0
  endloop
endfacet
facet normal -0.0 1.0 -0.0
  outer loop
    vertex 0.5535794913290834 21.014962736018038 0.0
    vertex 19.253579491329077 21.014962736018038 -3.0
    vertex 0.5535794913290834 21.014962736018038 -3.0
  endloop
endfacet
facet normal -0.0 1.0 -0.0
  outer loop
    vertex 19.253579491329077 21.014962736018038 -3.0
    vertex 0.5535794913290834 21.014962736018038 0.0
    vertex 19.253579491329077 21.014962736018038 0.0
  endloop
endfacet
facet normal 1.0 -0.0 -0.0
  outer loop
    vertex 19.253579491329077 21.014962736018038 -3.0
    vertex 19.253579491329077 0.5649627360180495 0.0
    vertex 19.253579491329077 0.5649627360180495 -3.0
  endloop
endfacet
facet normal 1.0 -0.0 -0.0
  outer loop
    vertex 19.253579491329077 0.5649627360180495 0.0
    vertex 19.253579491329077 21.014962736018038 -3.0
    vertex 19.253579491329077 21.014962736018038 0.0
  endloop
endfacet
facet normal -0.0 -1.0 -0.0
  outer loop
    vertex 19.253579491329077 0.5649627360180495 0.0
    vertex 0.5535794913290834 0.5649627360180495 -3.0
    vertex 19.253579491329077 0.5649627360180495 -3.0
  endloop
endfacet
facet normal -0.0 -1.0 -0.0
  outer loop
    vertex 0.5535794913290834 0.5649627360180495 -3.0
    vertex 19.253579491329077 0.5649627360180495 0.0
    vertex 0.5535794913290834 0.5649627360180495 0.0
  endloop
endfacet
facet normal 1.0 -0.0 -0.0
  outer loop
    vertex 2.459697485245755 18.943624488915162 -3.0
    vertex 2.459697485245755 2.4936244889151737 0.0
    vertex 2.459697485245755 2.4936244889151737 -3.0
  endloop
endfacet
facet normal 1.0 -0.0 -0.0
  outer loop
    vertex 2.459697485245755 2.4936244889151737 0.0
    vertex 2.459697485245755 18.943624488915162 -3.0
    vertex 2.459697485245755 18.943624488915162 0.0
  endloop
endfacet
facet normal -0.0 1.0 0.0
  outer loop
    vertex 2.459697485245755 2.4936244889151737 0.0
    vertex 17.15969748524575 2.4936244889151737 -3.0
    vertex 2.459697485245755 2.4936244889151737 -3.0
  endloop
endfacet
facet normal -0.0 1.0 0.0
  outer loop
    vertex 17.15969748524575 2.4936244889151737 -3.0
    vertex 2.459697485245755 2.4936244889151737 0.0
    vertex 17.15969748524575 2.4936244889151737 0.0
  endloop
endfacet
facet normal -1.0 0.0 0.0
  outer loop
    vertex 17.15969748524575 18.943624488915162 0.0
    vertex 17.15969748524575 2.4936244889151737 -3.0
    vertex 17.15969748524575 2.4936244889151737 0.0
  endloop
endfacet
facet normal -1.0 0.0 0.0
  outer loop
    vertex 17.15969748524575 2.4936244889151737 -3.0
    vertex 17.15969748524575 18.943624488915162 0.0
    vertex 17.15969748524575 18.943624488915162 -3.0
  endloop
endfacet
facet normal 0.0 -1.0 0.0
  outer loop
    vertex 17.15969748524575 18.943624488915162 0.0
    vertex 2.459697485245755 18.943624488915162 -3.0
    vertex 17.15969748524575 18.943624488915162 -3.0
  endloop
endfacet
facet normal 0.0 -1.0 0.0
  outer loop
    vertex 2.459697485245755 18.943624488915162 -3.0
    vertex 17.15969748524575 18.943624488915162 0.0
    vertex 2.459697485245755 18.943624488915162 0.0
  endloop
endfacet
endsolid Ethernet
