solid LineUp_Tool_2
facet normal 0.0 0.0 -1.0
  outer loop
    vertex 3.0 12.0 0.0
    vertex 0.0 0.0 0.0
    vertex 0.0 12.0 0.0
  endloop
endfacet
facet normal 0.0 0.0 -1.0
  outer loop
    vertex 0.0 0.0 0.0
    vertex 3.0 12.0 0.0
    vertex 3.0 3.0 0.0
  endloop
endfacet
facet normal 0.0 0.0 -1.0
  outer loop
    vertex 0.0 0.0 0.0
    vertex 3.0 3.0 0.0
    vertex 12.999999999999998 0.0 0.0
  endloop
endfacet
facet normal 0.0 0.0 -1.0
  outer loop
    vertex 12.999999999999998 0.0 0.0
    vertex 3.0 3.0 0.0
    vertex 12.999999999999998 3.0 0.0
  endloop
endfacet
facet normal 0.0 0.0 1.0
  outer loop
    vertex 0.0 0.0 12.0
    vertex 3.0 3.0 12.0
    vertex 0.0 12.0 12.0
  endloop
endfacet
facet normal 0.0 0.0 1.0
  outer loop
    vertex 3.0 3.0 12.0
    vertex 0.0 0.0 12.0
    vertex 12.999999999999998 0.0 12.0
  endloop
endfacet
facet normal 0.0 0.0 1.0
  outer loop
    vertex 3.0 3.0 12.0
    vertex 12.999999999999998 0.0 12.0
    vertex 12.999999999999998 3.0 12.0
  endloop
endfacet
facet normal 0.0 0.0 1.0
  outer loop
    vertex 3.0 12.0 12.0
    vertex 0.0 12.0 12.0
    vertex 3.0 3.0 12.0
  endloop
endfacet
facet normal 0.0 1.0 0.0
  outer loop
    vertex 0.0 12.0 12.0
    vertex 3.0 12.0 0.0
    vertex 0.0 12.0 0.0
  endloop
endfacet
facet normal 0.0 1.0 0.0
  outer loop
    vertex 3.0 12.0 0.0
    vertex 0.0 12.0 12.0
    vertex 3.0 12.0 12.0
  endloop
endfacet
facet normal 1.0 0.0 0.0
  outer loop
    vertex 3.0 12.0 0.0
    vertex 3.0 3.0 12.0
    vertex 3.0 3.0 0.0
  endloop
endfacet
facet normal 1.0 0.0 0.0
  outer loop
    vertex 3.0 3.0 12.0
    vertex 3.0 12.0 0.0
    vertex 3.0 12.0 12.0
  endloop
endfacet
facet normal -0.0 1.0 0.0
  outer loop
    vertex 3.0 3.0 12.0
    vertex 12.999999999999998 3.0 0.0
    vertex 3.0 3.0 0.0
  endloop
endfacet
facet normal -0.0 1.0 0.0
  outer loop
    vertex 12.999999999999998 3.0 0.0
    vertex 3.0 3.0 12.0
    vertex 12.999999999999998 3.0 12.0
  endloop
endfacet
facet normal 1.0 0.0 0.0
  outer loop
    vertex 12.999999999999998 3.0 0.0
    vertex 12.999999999999998 0.0 12.0
    vertex 12.999999999999998 0.0 0.0
  endloop
endfacet
facet normal 1.0 0.0 0.0
  outer loop
    vertex 12.999999999999998 0.0 12.0
    vertex 12.999999999999998 3.0 0.0
    vertex 12.999999999999998 3.0 12.0
  endloop
endfacet
facet normal -0.0 -1.0 -0.0
  outer loop
    vertex 12.999999999999998 0.0 12.0
    vertex 0.0 0.0 0.0
    vertex 12.999999999999998 0.0 0.0
  endloop
endfacet
facet normal -0.0 -1.0 -0.0
  outer loop
    vertex 0.0 0.0 0.0
    vertex 12.999999999999998 0.0 12.0
    vertex 0.0 0.0 12.0
  endloop
endfacet
facet normal -1.0 0.0 0.0
  outer loop
    vertex 0.0 12.0 12.0
    vertex 0.0 0.0 0.0
    vertex 0.0 0.0 12.0
  endloop
endfacet
facet normal -1.0 0.0 0.0
  outer loop
    vertex 0.0 0.0 0.0
    vertex 0.0 12.0 12.0
    vertex 0.0 12.0 0.0
  endloop
endfacet
endsolid LineUp_Tool_2
