solid Power
facet normal 0.0 0.0 -1.0
  outer loop
    vertex 1.393740870868867 14.598563596411921 0.0
    vertex 3.3569871069598745 12.695715826783665 0.0
    vertex 1.393740870868867 1.4985635964119273 0.0
  endloop
endfacet
facet normal 0.0 0.0 -1.0
  outer loop
    vertex 3.3569871069598745 12.695715826783665 0.0
    vertex 1.393740870868867 14.598563596411921 0.0
    vertex 18.493740870868866 14.598563596411921 0.0
  endloop
endfacet
facet normal 0.0 0.0 -1.0
  outer loop
    vertex 3.3569871069598745 12.695715826783665 0.0
    vertex 18.493740870868866 14.598563596411921 0.0
    vertex 16.456987106959872 12.695715826783665 0.0
  endloop
endfacet
facet normal 0.0 0.0 -1.0
  outer loop
    vertex 16.456987106959872 12.695715826783665 0.0
    vertex 18.493740870868866 14.598563596411921 0.0
    vertex 16.456987106959872 3.5957158267836644 0.0
  endloop
endfacet
facet normal 0.0 0.0 -1.0
  outer loop
    vertex 1.393740870868867 1.4985635964119273 0.0
    vertex 3.3569871069598745 3.5957158267836644 0.0
    vertex 18.493740870868866 1.4985635964119273 0.0
  endloop
endfacet
facet normal 0.0 0.0 -1.0
  outer loop
    vertex 3.3569871069598745 3.5957158267836644 0.0
    vertex 1.393740870868867 1.4985635964119273 0.0
    vertex 3.3569871069598745 12.695715826783665 0.0
  endloop
endfacet
facet normal 0.0 0.0 -1.0
  outer loop
    vertex 18.493740870868866 1.4985635964119273 0.0
    vertex 3.3569871069598745 3.5957158267836644 0.0
    vertex 16.456987106959872 3.5957158267836644 0.0
  endloop
endfacet
facet normal 0.0 0.0 -1.0
  outer loop
    vertex 18.493740870868866 1.4985635964119273 0.0
    vertex 16.456987106959872 3.5957158267836644 0.0
    vertex 18.493740870868866 14.598563596411921 0.0
  endloop
endfacet
facet normal 0.0 0.0 1.0
  outer loop
    vertex 1.393740870868867 1.4985635964119273 3.9999999999999996
    vertex 3.3569871069598745 3.5957158267836644 3.9999999999999996
    vertex 1.393740870868867 14.598563596411921 3.9999999999999996
  endloop
endfacet
facet normal 0.0 0.0 1.0
  outer loop
    vertex 3.3569871069598745 3.5957158267836644 3.9999999999999996
    vertex 1.393740870868867 1.4985635964119273 3.9999999999999996
    vertex 18.493740870868866 1.4985635964119273 3.9999999999999996
  endloop
endfacet
facet normal 0.0 0.0 1.0
  outer loop
    vertex 3.3569871069598745 3.5957158267836644 3.9999999999999996
    vertex 18.493740870868866 1.4985635964119273 3.9999999999999996
    vertex 16.456987106959872 3.5957158267836644 3.9999999999999996
  endloop
endfacet
facet normal 0.0 0.0 1.0
  outer loop
    vertex 16.456987106959872 3.5957158267836644 3.9999999999999996
    vertex 18.493740870868866 1.4985635964119273 3.9999999999999996
    vertex 16.456987106959872 12.695715826783665 3.9999999999999996
  endloop
endfacet
facet normal 0.0 0.0 1.0
  outer loop
    vertex 1.393740870868867 14.598563596411921 3.9999999999999996
    vertex 3.3569871069598745 12.695715826783665 3.9999999999999996
    vertex 18.493740870868866 14.598563596411921 3.9999999999999996
  endloop
endfacet
facet normal 0.0 0.0 1.0
  outer loop
    vertex 3.3569871069598745 12.695715826783665 3.9999999999999996
    vertex 1.393740870868867 14.598563596411921 3.9999999999999996
    vertex 3.3569871069598745 3.5957158267836644 3.9999999999999996
  endloop
endfacet
facet normal 0.0 0.0 1.0
  outer loop
    vertex 18.493740870868866 14.598563596411921 3.9999999999999996
    vertex 3.3569871069598745 12.695715826783665 3.9999999999999996
    vertex 16.456987106959872 12.695715826783665 3.9999999999999996
  endloop
endfacet
facet normal 0.0 0.0 1.0
  outer loop
    vertex 18.493740870868866 14.598563596411921 3.9999999999999996
    vertex 16.456987106959872 12.695715826783665 3.9999999999999996
    vertex 18.493740870868866 1.4985635964119273 3.9999999999999996
  endloop
endfacet
facet normal 1.0 0.0 0.0
  outer loop
    vertex 18.493740870868866 14.598563596411921 0.0
    vertex 18.493740870868866 1.4985635964119273 3.9999999999999996
    vertex 18.493740870868866 1.4985635964119273 0.0
  endloop
endfacet
facet normal 1.0 0.0 0.0
  outer loop
    vertex 18.493740870868866 1.4985635964119273 3.9999999999999996
    vertex 18.493740870868866 14.598563596411921 0.0
    vertex 18.493740870868866 14.598563596411921 3.9999999999999996
  endloop
endfacet
facet normal -0.0 -1.0 -0.0
  outer loop
    vertex 18.493740870868866 1.4985635964119273 3.9999999999999996
    vertex 1.393740870868867 1.4985635964119273 0.0
    vertex 18.493740870868866 1.4985635964119273 0.0
  endloop
endfacet
facet normal -0.0 -1.0 -0.0
  outer loop
    vertex 1.393740870868867 1.4985635964119273 0.0
    vertex 18.493740870868866 1.4985635964119273 3.9999999999999996
    vertex 1.393740870868867 1.4985635964119273 3.9999999999999996
  endloop
endfacet
facet normal -1.0 0.0 0.0
  outer loop
    vertex 1.393740870868867 14.598563596411921 3.9999999999999996
    vertex 1.393740870868867 1.4985635964119273 0.0
    vertex 1.393740870868867 1.4985635964119273 3.9999999999999996
  endloop
endfacet
facet normal -1.0 0.0 0.0
  outer loop
    vertex 1.393740870868867 1.4985635964119273 0.0
    vertex 1.393740870868867 14.598563596411921 3.9999999999999996
    vertex 1.393740870868867 14.598563596411921 0.0
  endloop
endfacet
facet normal -0.0 1.0 0.0
  outer loop
    vertex 1.393740870868867 14.598563596411921 3.9999999999999996
    vertex 18.493740870868866 14.598563596411921 0.0
    vertex 1.393740870868867 14.598563596411921 0.0
  endloop
endfacet
facet normal -0.0 1.0 0.0
  outer loop
    vertex 18.493740870868866 14.598563596411921 0.0
    vertex 1.393740870868867 14.598563596411921 3.9999999999999996
    vertex 18.493740870868866 14.598563596411921 3.9999999999999996
  endloop
endfacet
facet normal -1.0 0.0 0.0
  outer loop
    vertex 16.456987106959872 12.695715826783665 3.9999999999999996
    vertex 16.456987106959872 3.5957158267836644 0.0
    vertex 16.456987106959872 3.5957158267836644 3.9999999999999996
  endloop
endfacet
facet normal -1.0 0.0 0.0
  outer loop
    vertex 16.456987106959872 3.5957158267836644 0.0
    vertex 16.456987106959872 12.695715826783665 3.9999999999999996
    vertex 16.456987106959872 12.695715826783665 0.0
  endloop
endfacet
facet normal -0.0 -1.0 -0.0
  outer loop
    vertex 16.456987106959872 12.695715826783665 3.9999999999999996
    vertex 3.3569871069598745 12.695715826783665 0.0
    vertex 16.456987106959872 12.695715826783665 0.0
  endloop
endfacet
facet normal -0.0 -1.0 -0.0
  outer loop
    vertex 3.3569871069598745 12.695715826783665 0.0
    vertex 16.456987106959872 12.695715826783665 3.9999999999999996
    vertex 3.3569871069598745 12.695715826783665 3.9999999999999996
  endloop
endfacet
facet normal 1.0 0.0 0.0
  outer loop
    vertex 3.3569871069598745 12.695715826783665 0.0
    vertex 3.3569871069598745 3.5957158267836644 3.9999999999999996
    vertex 3.3569871069598745 3.5957158267836644 0.0
  endloop
endfacet
facet normal 1.0 0.0 0.0
  outer loop
    vertex 3.3569871069598745 3.5957158267836644 3.9999999999999996
    vertex 3.3569871069598745 12.695715826783665 0.0
    vertex 3.3569871069598745 12.695715826783665 3.9999999999999996
  endloop
endfacet
facet normal -0.0 1.0 0.0
  outer loop
    vertex 3.3569871069598745 3.5957158267836644 3.9999999999999996
    vertex 16.456987106959872 3.5957158267836644 0.0
    vertex 3.3569871069598745 3.5957158267836644 0.0
  endloop
endfacet
facet normal -0.0 1.0 0.0
  outer loop
    vertex 16.456987106959872 3.5957158267836644 0.0
    vertex 3.3569871069598745 3.5957158267836644 3.9999999999999996
    vertex 16.456987106959872 3.5957158267836644 3.9999999999999996
  endloop
endfacet
endsolid Power
