solid Screen Mount 3
facet normal 0.0 0.0 -1.0
  outer loop
    vertex 73.41999999999997 10.0 0.0
    vertex 0.999999999999998 0.0 0.0
    vertex 0.999999999999998 10.0 0.0
  endloop
endfacet
facet normal 0.0 0.0 -1.0
  outer loop
    vertex 0.999999999999998 0.0 0.0
    vertex 73.41999999999997 10.0 0.0
    vertex 73.41999999999997 0.0 0.0
  endloop
endfacet
facet normal 0.0 -1.0 0.0
  outer loop
    vertex 73.41999999999997 0.0 0.0
    vertex 68.31999999999998 0.0 3.0
    vertex 0.999999999999998 0.0 0.0
  endloop
endfacet
facet normal 0.0 -1.0 0.0
  outer loop
    vertex 68.31999999999998 0.0 3.0
    vertex 73.41999999999997 0.0 0.0
    vertex 73.41999999999997 0.0 8.999999999999998
  endloop
endfacet
facet normal 0.0 -1.0 0.0
  outer loop
    vertex 68.31999999999998 0.0 3.0
    vertex 73.41999999999997 0.0 8.999999999999998
    vertex 68.31999999999998 0.0 8.999999999999998
  endloop
endfacet
facet normal 0.0 -1.0 0.0
  outer loop
    vertex 0.999999999999998 0.0 0.0
    vertex 6.099999999999997 0.0 3.0
    vertex 0.999999999999998 0.0 8.999999999999996
  endloop
endfacet
facet normal 0.0 -1.0 0.0
  outer loop
    vertex 6.099999999999997 0.0 3.0
    vertex 0.999999999999998 0.0 0.0
    vertex 68.31999999999998 0.0 3.0
  endloop
endfacet
facet normal 0.0 -1.0 0.0
  outer loop
    vertex 0.999999999999998 0.0 8.999999999999996
    vertex 6.099999999999997 0.0 3.0
    vertex 6.099999999999997 0.0 8.999999999999996
  endloop
endfacet
facet normal -1.0 0.0 0.0
  outer loop
    vertex 0.999999999999998 10.0 8.999999999999996
    vertex 0.999999999999998 0.0 0.0
    vertex 0.999999999999998 0.0 8.999999999999996
  endloop
endfacet
facet normal -1.0 0.0 0.0
  outer loop
    vertex 0.999999999999998 0.0 0.0
    vertex 0.999999999999998 10.0 8.999999999999996
    vertex 0.999999999999998 10.0 0.0
  endloop
endfacet
facet normal -0.0 1.0 -0.0
  outer loop
    vertex 0.999999999999998 10.0 0.0
    vertex 6.099999999999997 10.0 3.0
    vertex 73.41999999999997 10.0 0.0
  endloop
endfacet
facet normal -0.0 1.0 -0.0
  outer loop
    vertex 6.099999999999997 10.0 3.0
    vertex 0.999999999999998 10.0 0.0
    vertex 0.999999999999998 10.0 8.999999999999996
  endloop
endfacet
facet normal -0.0 1.0 -0.0
  outer loop
    vertex 6.099999999999997 10.0 3.0
    vertex 0.999999999999998 10.0 8.999999999999996
    vertex 6.099999999999997 10.0 8.999999999999996
  endloop
endfacet
facet normal -0.0 1.0 -0.0
  outer loop
    vertex 73.41999999999997 10.0 0.0
    vertex 68.31999999999998 10.0 3.0
    vertex 73.41999999999997 10.0 8.999999999999998
  endloop
endfacet
facet normal -0.0 1.0 -0.0
  outer loop
    vertex 68.31999999999998 10.0 3.0
    vertex 73.41999999999997 10.0 0.0
    vertex 6.099999999999997 10.0 3.0
  endloop
endfacet
facet normal -0.0 1.0 -0.0
  outer loop
    vertex 73.41999999999997 10.0 8.999999999999998
    vertex 68.31999999999998 10.0 3.0
    vertex 68.31999999999998 10.0 8.999999999999998
  endloop
endfacet
facet normal 1.0 -0.0 -0.0
  outer loop
    vertex 73.41999999999997 10.0 0.0
    vertex 73.41999999999997 0.0 8.999999999999998
    vertex 73.41999999999997 0.0 0.0
  endloop
endfacet
facet normal 1.0 -0.0 -0.0
  outer loop
    vertex 73.41999999999997 0.0 8.999999999999998
    vertex 73.41999999999997 10.0 0.0
    vertex 73.41999999999997 10.0 8.999999999999998
  endloop
endfacet
facet normal -0.0 -0.0 1.0
  outer loop
    vertex 6.099999999999997 0.0 8.999999999999996
    vertex 0.999999999999998 10.0 8.999999999999996
    vertex 0.999999999999998 0.0 8.999999999999996
  endloop
endfacet
facet normal -0.0 -0.0 1.0
  outer loop
    vertex 0.999999999999998 10.0 8.999999999999996
    vertex 6.099999999999997 0.0 8.999999999999996
    vertex 6.099999999999997 10.0 8.999999999999996
  endloop
endfacet
facet normal 1.0 -0.0 -0.0
  outer loop
    vertex 6.099999999999997 10.0 3.0
    vertex 6.099999999999997 0.0 8.999999999999996
    vertex 6.099999999999997 0.0 3.0
  endloop
endfacet
facet normal 1.0 -0.0 -0.0
  outer loop
    vertex 6.099999999999997 0.0 8.999999999999996
    vertex 6.099999999999997 10.0 3.0
    vertex 6.099999999999997 10.0 8.999999999999996
  endloop
endfacet
facet normal 0.0 0.0 1.0
  outer loop
    vertex 68.31999999999998 0.0 3.0
    vertex 6.099999999999997 10.0 3.0
    vertex 6.099999999999997 0.0 3.0
  endloop
endfacet
facet normal 0.0 0.0 1.0
  outer loop
    vertex 6.099999999999997 10.0 3.0
    vertex 68.31999999999998 0.0 3.0
    vertex 68.31999999999998 10.0 3.0
  endloop
endfacet
facet normal -0.0 -0.0 1.0
  outer loop
    vertex 73.41999999999997 0.0 8.999999999999998
    vertex 68.31999999999998 10.0 8.999999999999998
    vertex 68.31999999999998 0.0 8.999999999999998
  endloop
endfacet
facet normal -0.0 -0.0 1.0
  outer loop
    vertex 68.31999999999998 10.0 8.999999999999998
    vertex 73.41999999999997 0.0 8.999999999999998
    vertex 73.41999999999997 10.0 8.999999999999998
  endloop
endfacet
facet normal -1.0 0.0 0.0
  outer loop
    vertex 68.31999999999998 10.0 8.999999999999998
    vertex 68.31999999999998 0.0 3.0
    vertex 68.31999999999998 0.0 8.999999999999998
  endloop
endfacet
facet normal -1.0 0.0 0.0
  outer loop
    vertex 68.31999999999998 0.0 3.0
    vertex 68.31999999999998 10.0 8.999999999999998
    vertex 68.31999999999998 10.0 3.0
  endloop
endfacet
facet normal -0.0 1.0 -0.0
  outer loop
    vertex 1.042341819259723 32.16231247163032 0.0
    vertex 5.142341819259722 32.16231247163032 3.0
    vertex 73.46234181925972 32.16231247163032 0.0
  endloop
endfacet
facet normal -0.0 1.0 -0.0
  outer loop
    vertex 5.142341819259722 32.16231247163032 3.0
    vertex 1.042341819259723 32.16231247163032 0.0
    vertex 1.042341819259723 32.16231247163032 8.999999999999996
  endloop
endfacet
facet normal -0.0 1.0 -0.0
  outer loop
    vertex 5.142341819259722 32.16231247163032 3.0
    vertex 1.042341819259723 32.16231247163032 8.999999999999996
    vertex 5.142341819259722 32.16231247163032 8.999999999999996
  endloop
endfacet
facet normal -0.0 1.0 -0.0
  outer loop
    vertex 73.46234181925972 32.16231247163032 0.0
    vertex 68.36234181925971 32.16231247163032 3.0
    vertex 73.46234181925972 32.16231247163032 8.999999999999998
  endloop
endfacet
facet normal -0.0 1.0 -0.0
  outer loop
    vertex 68.36234181925971 32.16231247163032 3.0
    vertex 73.46234181925972 32.16231247163032 0.0
    vertex 5.142341819259722 32.16231247163032 3.0
  endloop
endfacet
facet normal -0.0 1.0 -0.0
  outer loop
    vertex 73.46234181925972 32.16231247163032 8.999999999999998
    vertex 68.36234181925971 32.16231247163032 3.0
    vertex 68.36234181925971 32.16231247163032 8.999999999999998
  endloop
endfacet
facet normal 1.0 -0.0 -0.0
  outer loop
    vertex 5.142341819259722 32.16231247163032 3.0
    vertex 5.142341819259722 28.162312471630322 8.999999999999996
    vertex 5.142341819259722 28.162312471630322 3.0
  endloop
endfacet
facet normal 1.0 -0.0 -0.0
  outer loop
    vertex 5.142341819259722 28.162312471630322 8.999999999999996
    vertex 5.142341819259722 32.16231247163032 3.0
    vertex 5.142341819259722 32.16231247163032 8.999999999999996
  endloop
endfacet
facet normal -1.0 -2.8199664825478982e-15 0.0
  outer loop
    vertex 68.36234181925971 32.16231247163032 8.999999999999998
    vertex 68.36234181925973 28.162312471630322 3.0
    vertex 68.36234181925973 28.162312471630322 8.999999999999998
  endloop
endfacet
facet normal -1.0 -2.8199664825478982e-15 0.0
  outer loop
    vertex 68.36234181925973 28.162312471630322 3.0
    vertex 68.36234181925971 32.16231247163032 8.999999999999998
    vertex 68.36234181925971 32.16231247163032 3.0
  endloop
endfacet
facet normal 0.0 0.0 -1.0
  outer loop
    vertex 1.042341819259723 32.16231247163032 0.0
    vertex 73.46234181925973 28.162312471630322 0.0
    vertex 1.042341819259723 28.162312471630322 0.0
  endloop
endfacet
facet normal 0.0 0.0 -1.0
  outer loop
    vertex 73.46234181925973 28.162312471630322 0.0
    vertex 1.042341819259723 32.16231247163032 0.0
    vertex 73.46234181925972 32.16231247163032 0.0
  endloop
endfacet
facet normal 1.0 2.8199664825478986e-15 -0.0
  outer loop
    vertex 73.46234181925972 32.16231247163032 0.0
    vertex 73.46234181925973 28.162312471630322 8.999999999999998
    vertex 73.46234181925973 28.162312471630322 0.0
  endloop
endfacet
facet normal 1.0 2.8199664825478986e-15 -0.0
  outer loop
    vertex 73.46234181925973 28.162312471630322 8.999999999999998
    vertex 73.46234181925972 32.16231247163032 0.0
    vertex 73.46234181925972 32.16231247163032 8.999999999999998
  endloop
endfacet
facet normal -0.0 -0.0 1.0
  outer loop
    vertex 5.142341819259722 28.162312471630322 8.999999999999996
    vertex 1.042341819259723 32.16231247163032 8.999999999999996
    vertex 1.042341819259723 28.162312471630322 8.999999999999996
  endloop
endfacet
facet normal -0.0 -0.0 1.0
  outer loop
    vertex 1.042341819259723 32.16231247163032 8.999999999999996
    vertex 5.142341819259722 28.162312471630322 8.999999999999996
    vertex 5.142341819259722 32.16231247163032 8.999999999999996
  endloop
endfacet
facet normal -0.0 -0.0 1.0
  outer loop
    vertex 68.36234181925973 28.162312471630322 8.999999999999998
    vertex 73.46234181925972 32.16231247163032 8.999999999999998
    vertex 68.36234181925971 32.16231247163032 8.999999999999998
  endloop
endfacet
facet normal -0.0 -0.0 1.0
  outer loop
    vertex 73.46234181925972 32.16231247163032 8.999999999999998
    vertex 68.36234181925973 28.162312471630322 8.999999999999998
    vertex 73.46234181925973 28.162312471630322 8.999999999999998
  endloop
endfacet
facet normal 0.0 -1.0 0.0
  outer loop
    vertex 73.46234181925973 28.162312471630322 0.0
    vertex 68.36234181925973 28.162312471630322 3.0
    vertex 1.042341819259723 28.162312471630322 0.0
  endloop
endfacet
facet normal 0.0 -1.0 0.0
  outer loop
    vertex 68.36234181925973 28.162312471630322 3.0
    vertex 73.46234181925973 28.162312471630322 0.0
    vertex 73.46234181925973 28.162312471630322 8.999999999999998
  endloop
endfacet
facet normal 0.0 -1.0 0.0
  outer loop
    vertex 68.36234181925973 28.162312471630322 3.0
    vertex 73.46234181925973 28.162312471630322 8.999999999999998
    vertex 68.36234181925973 28.162312471630322 8.999999999999998
  endloop
endfacet
facet normal 0.0 -1.0 0.0
  outer loop
    vertex 1.042341819259723 28.162312471630322 0.0
    vertex 5.142341819259722 28.162312471630322 3.0
    vertex 1.042341819259723 28.162312471630322 8.999999999999996
  endloop
endfacet
facet normal 0.0 -1.0 0.0
  outer loop
    vertex 5.142341819259722 28.162312471630322 3.0
    vertex 1.042341819259723 28.162312471630322 0.0
    vertex 68.36234181925973 28.162312471630322 3.0
  endloop
endfacet
facet normal 0.0 -1.0 0.0
  outer loop
    vertex 1.042341819259723 28.162312471630322 8.999999999999996
    vertex 5.142341819259722 28.162312471630322 3.0
    vertex 5.142341819259722 28.162312471630322 8.999999999999996
  endloop
endfacet
facet normal -0.0 -0.0 1.0
  outer loop
    vertex 68.36234181925973 28.162312471630322 3.0
    vertex 5.142341819259722 32.16231247163032 3.0
    vertex 5.142341819259722 28.162312471630322 3.0
  endloop
endfacet
facet normal -0.0 -0.0 1.0
  outer loop
    vertex 5.142341819259722 32.16231247163032 3.0
    vertex 68.36234181925973 28.162312471630322 3.0
    vertex 68.36234181925971 32.16231247163032 3.0
  endloop
endfacet
facet normal -1.0 2.2030988144905458e-17 -9.791550286624647e-18
  outer loop
    vertex 1.042341819259723 32.16231247163032 8.999999999999996
    vertex 1.042341819259723 28.162312471630322 0.0
    vertex 1.042341819259723 28.162312471630322 8.999999999999996
  endloop
endfacet
facet normal -1.0 2.2030988144905458e-17 -9.791550286624647e-18
  outer loop
    vertex 1.042341819259723 28.162312471630322 0.0
    vertex 1.042341819259723 32.16231247163032 8.999999999999996
    vertex 1.042341819259723 32.16231247163032 0.0
  endloop
endfacet
facet normal 0.0 0.0 -1.0
  outer loop
    vertex 36.94006265963882 53.555489815007725 0.0
    vertex 31.94006265963882 48.555489815007725 0.0
    vertex 31.94006265963882 53.555489815007725 0.0
  endloop
endfacet
facet normal 0.0 0.0 -1.0
  outer loop
    vertex 31.94006265963882 48.555489815007725 0.0
    vertex 36.94006265963882 53.555489815007725 0.0
    vertex 36.94006265963882 48.555489815007725 0.0
  endloop
endfacet
facet normal -0.0 -0.0 1.0
  outer loop
    vertex 36.94006265963882 48.555489815007725 5.0
    vertex 31.94006265963882 53.555489815007725 5.0
    vertex 31.94006265963882 48.555489815007725 5.0
  endloop
endfacet
facet normal -0.0 -0.0 1.0
  outer loop
    vertex 31.94006265963882 53.555489815007725 5.0
    vertex 36.94006265963882 48.555489815007725 5.0
    vertex 36.94006265963882 53.555489815007725 5.0
  endloop
endfacet
facet normal -0.0 -1.0 -0.0
  outer loop
    vertex 36.94006265963882 48.555489815007725 5.0
    vertex 31.94006265963882 48.555489815007725 0.0
    vertex 36.94006265963882 48.555489815007725 0.0
  endloop
endfacet
facet normal -0.0 -1.0 -0.0
  outer loop
    vertex 31.94006265963882 48.555489815007725 0.0
    vertex 36.94006265963882 48.555489815007725 5.0
    vertex 31.94006265963882 48.555489815007725 5.0
  endloop
endfacet
facet normal -1.0 0.0 0.0
  outer loop
    vertex 31.94006265963882 53.555489815007725 5.0
    vertex 31.94006265963882 48.555489815007725 0.0
    vertex 31.94006265963882 48.555489815007725 5.0
  endloop
endfacet
facet normal -1.0 0.0 0.0
  outer loop
    vertex 31.94006265963882 48.555489815007725 0.0
    vertex 31.94006265963882 53.555489815007725 5.0
    vertex 31.94006265963882 53.555489815007725 0.0
  endloop
endfacet
facet normal -0.0 1.0 0.0
  outer loop
    vertex 31.94006265963882 53.555489815007725 5.0
    vertex 36.94006265963882 53.555489815007725 0.0
    vertex 31.94006265963882 53.555489815007725 0.0
  endloop
endfacet
facet normal -0.0 1.0 0.0
  outer loop
    vertex 36.94006265963882 53.555489815007725 0.0
    vertex 31.94006265963882 53.555489815007725 5.0
    vertex 36.94006265963882 53.555489815007725 5.0
  endloop
endfacet
facet normal 1.0 0.0 0.0
  outer loop
    vertex 36.94006265963882 53.555489815007725 0.0
    vertex 36.94006265963882 48.555489815007725 5.0
    vertex 36.94006265963882 48.555489815007725 0.0
  endloop
endfacet
facet normal 1.0 0.0 0.0
  outer loop
    vertex 36.94006265963882 48.555489815007725 5.0
    vertex 36.94006265963882 53.555489815007725 0.0
    vertex 36.94006265963882 53.555489815007725 5.0
  endloop
endfacet
endsolid Screen Mount 3
