solid New New Back
facet normal 0.0 0.0 -1.0
  outer loop
    vertex 1.4999999999999993 115.00000000000001 0.0
    vertex 5.999999999999999 98.0 0.0
    vertex 1.4999999999999993 0.0 0.0
  endloop
endfacet
facet normal 0.0 0.0 -1.0
  outer loop
    vertex 5.999999999999999 98.0 0.0
    vertex 1.4999999999999993 115.00000000000001 0.0
    vertex 6.0562223866230385 98.42705142441916 0.0
  endloop
endfacet
facet normal 0.0 0.0 -1.0
  outer loop
    vertex 6.0562223866230385 98.42705142441916 0.0
    vertex 1.4999999999999993 115.00000000000001 0.0
    vertex 6.221058083755677 98.825 0.0
  endloop
endfacet
facet normal 0.0 0.0 -1.0
  outer loop
    vertex 6.221058083755677 98.825 0.0
    vertex 1.4999999999999993 115.00000000000001 0.0
    vertex 6.4832738110421975 99.16672618895781 0.0
  endloop
endfacet
facet normal 0.0 0.0 -1.0
  outer loop
    vertex 6.4832738110421975 99.16672618895781 0.0
    vertex 1.4999999999999993 115.00000000000001 0.0
    vertex 6.824999999999998 99.42894191624433 0.0
  endloop
endfacet
facet normal 0.0 0.0 -1.0
  outer loop
    vertex 6.824999999999998 99.42894191624433 0.0
    vertex 1.4999999999999993 115.00000000000001 0.0
    vertex 7.222948575580839 99.59377761337696 0.0
  endloop
endfacet
facet normal 0.0 0.0 -1.0
  outer loop
    vertex 7.222948575580839 99.59377761337696 0.0
    vertex 1.4999999999999993 115.00000000000001 0.0
    vertex 110.5 115.00000000000001 0.0
  endloop
endfacet
facet normal 0.0 0.0 -1.0
  outer loop
    vertex 7.222948575580839 99.59377761337696 0.0
    vertex 110.5 115.00000000000001 0.0
    vertex 7.649999999999998 99.64999999999999 0.0
  endloop
endfacet
facet normal 0.0 0.0 -1.0
  outer loop
    vertex 7.649999999999998 99.64999999999999 0.0
    vertex 110.5 115.00000000000001 0.0
    vertex 8.077051424419164 99.59377761337696 0.0
  endloop
endfacet
facet normal 0.0 0.0 -1.0
  outer loop
    vertex 8.077051424419164 99.59377761337696 0.0
    vertex 110.5 115.00000000000001 0.0
    vertex 8.475000000000003 99.42894191624433 0.0
  endloop
endfacet
facet normal 0.0 0.0 -1.0
  outer loop
    vertex 8.475000000000003 99.42894191624433 0.0
    vertex 110.5 115.00000000000001 0.0
    vertex 8.816726188957803 99.16672618895781 0.0
  endloop
endfacet
facet normal 0.0 0.0 -1.0
  outer loop
    vertex 8.816726188957803 99.16672618895781 0.0
    vertex 110.5 115.00000000000001 0.0
    vertex 9.078941916244323 98.825 0.0
  endloop
endfacet
facet normal 0.0 0.0 -1.0
  outer loop
    vertex 9.078941916244323 98.825 0.0
    vertex 110.5 115.00000000000001 0.0
    vertex 9.243777613376961 98.42705142441916 0.0
  endloop
endfacet
facet normal 0.0 0.0 -1.0
  outer loop
    vertex 9.243777613376961 98.42705142441916 0.0
    vertex 110.5 115.00000000000001 0.0
    vertex 9.3 98.0 0.0
  endloop
endfacet
facet normal 0.0 0.0 -1.0
  outer loop
    vertex 9.3 98.0 0.0
    vertex 110.5 115.00000000000001 0.0
    vertex 27.114146820980714 21.893949057814662 0.0
  endloop
endfacet
facet normal 0.0 0.0 -1.0
  outer loop
    vertex 27.114146820980714 21.893949057814662 0.0
    vertex 110.5 115.00000000000001 0.0
    vertex 40.91414682098071 21.893949057814662 0.0
  endloop
endfacet
facet normal 0.0 0.0 -1.0
  outer loop
    vertex 40.91414682098071 21.893949057814662 0.0
    vertex 110.5 115.00000000000001 0.0
    vertex 40.91414682098071 11.893949057814662 0.0
  endloop
endfacet
facet normal 0.0 0.0 -1.0
  outer loop
    vertex 40.91414682098071 11.893949057814662 0.0
    vertex 110.5 115.00000000000001 0.0
    vertex 50.97604271396795 24.800841672235027 0.0
  endloop
endfacet
facet normal 0.0 0.0 -1.0
  outer loop
    vertex 50.97604271396795 24.800841672235027 0.0
    vertex 110.5 115.00000000000001 0.0
    vertex 66.77604271396795 24.800841672235027 0.0
  endloop
endfacet
facet normal 0.0 0.0 -1.0
  outer loop
    vertex 66.77604271396795 24.800841672235027 0.0
    vertex 110.5 115.00000000000001 0.0
    vertex 66.77604271396795 7.550841672235024 0.0
  endloop
endfacet
facet normal 0.0 0.0 -1.0
  outer loop
    vertex 66.77604271396795 7.550841672235024 0.0
    vertex 110.5 115.00000000000001 0.0
    vertex 74.98743409904735 18.41663873440145 0.0
  endloop
endfacet
facet normal 0.0 0.0 -1.0
  outer loop
    vertex 66.77604271396795 7.550841672235024 0.0
    vertex 74.98743409904735 18.41663873440145 0.0
    vertex 74.69372106064853 17.38741263133369 0.0
  endloop
endfacet
facet normal 0.0 0.0 -1.0
  outer loop
    vertex 66.77604271396795 7.550841672235024 0.0
    vertex 74.69372106064853 17.38741263133369 0.0
    vertex 74.67639936853185 16.31723802915714 0.0
  endloop
endfacet
facet normal 0.0 0.0 -1.0
  outer loop
    vertex 74.98743409904735 18.41663873440145 0.0
    vertex 110.5 115.00000000000001 0.0
    vertex 75.5375224255452 19.33477628031291 0.0
  endloop
endfacet
facet normal 0.0 0.0 -1.0
  outer loop
    vertex 75.5375224255452 19.33477628031291 0.0
    vertex 110.5 115.00000000000001 0.0
    vertex 76.3064984297552 20.07925571260823 0.0
  endloop
endfacet
facet normal 0.0 0.0 -1.0
  outer loop
    vertex 76.3064984297552 20.07925571260823 0.0
    vertex 110.5 115.00000000000001 0.0
    vertex 77.24195766778332 20.599341988286934 0.0
  endloop
endfacet
facet normal 0.0 0.0 -1.0
  outer loop
    vertex 77.24195766778332 20.599341988286934 0.0
    vertex 110.5 115.00000000000001 0.0
    vertex 78.28015013847748 20.859592087144716 0.0
  endloop
endfacet
facet normal 0.0 0.0 -1.0
  outer loop
    vertex 78.28015013847748 20.859592087144716 0.0
    vertex 110.5 115.00000000000001 0.0
    vertex 79.35032474065403 20.842270395028034 0.0
  endloop
endfacet
facet normal 0.0 0.0 -1.0
  outer loop
    vertex 79.35032474065403 20.842270395028034 0.0
    vertex 110.5 115.00000000000001 0.0
    vertex 80.3795508437218 20.548557356629207 0.0
  endloop
endfacet
facet normal 0.0 0.0 -1.0
  outer loop
    vertex 80.3795508437218 20.548557356629207 0.0
    vertex 110.5 115.00000000000001 0.0
    vertex 81.29768838963325 19.998469030131353 0.0
  endloop
endfacet
facet normal 0.0 0.0 -1.0
  outer loop
    vertex 81.29768838963325 19.998469030131353 0.0
    vertex 110.5 115.00000000000001 0.0
    vertex 82.04216782192859 19.22949302592137 0.0
  endloop
endfacet
facet normal 0.0 0.0 -1.0
  outer loop
    vertex 82.04216782192859 19.22949302592137 0.0
    vertex 110.5 115.00000000000001 0.0
    vertex 82.56225409760728 18.294033787893234 0.0
  endloop
endfacet
facet normal 0.0 0.0 -1.0
  outer loop
    vertex 82.56225409760728 18.294033787893234 0.0
    vertex 110.5 115.00000000000001 0.0
    vertex 82.82250419646506 17.255841317199074 0.0
  endloop
endfacet
facet normal 0.0 0.0 -1.0
  outer loop
    vertex 82.82250419646506 17.255841317199074 0.0
    vertex 110.5 115.00000000000001 0.0
    vertex 103.19999999999999 20.0 0.0
  endloop
endfacet
facet normal 0.0 0.0 -1.0
  outer loop
    vertex 103.19999999999999 20.0 0.0
    vertex 110.5 115.00000000000001 0.0
    vertex 103.25622238662304 20.42705142441916 0.0
  endloop
endfacet
facet normal 0.0 0.0 -1.0
  outer loop
    vertex 103.25622238662304 20.42705142441916 0.0
    vertex 110.5 115.00000000000001 0.0
    vertex 103.42105808375567 20.825000000000003 0.0
  endloop
endfacet
facet normal 0.0 0.0 -1.0
  outer loop
    vertex 103.42105808375567 20.825000000000003 0.0
    vertex 110.5 115.00000000000001 0.0
    vertex 103.6832738110422 21.16672618895781 0.0
  endloop
endfacet
facet normal 0.0 0.0 -1.0
  outer loop
    vertex 103.6832738110422 21.16672618895781 0.0
    vertex 110.5 115.00000000000001 0.0
    vertex 104.02499999999998 21.42894191624433 0.0
  endloop
endfacet
facet normal 0.0 0.0 -1.0
  outer loop
    vertex 104.02499999999998 21.42894191624433 0.0
    vertex 110.5 115.00000000000001 0.0
    vertex 104.42294857558085 21.59377761337697 0.0
  endloop
endfacet
facet normal 0.0 0.0 -1.0
  outer loop
    vertex 104.42294857558085 21.59377761337697 0.0
    vertex 110.5 115.00000000000001 0.0
    vertex 104.85 21.65000000000001 0.0
  endloop
endfacet
facet normal 0.0 0.0 -1.0
  outer loop
    vertex 104.85 21.65000000000001 0.0
    vertex 110.5 115.00000000000001 0.0
    vertex 105.27705142441916 21.59377761337697 0.0
  endloop
endfacet
facet normal 0.0 0.0 -1.0
  outer loop
    vertex 105.27705142441916 21.59377761337697 0.0
    vertex 110.5 115.00000000000001 0.0
    vertex 105.675 21.428941916244334 0.0
  endloop
endfacet
facet normal 0.0 0.0 -1.0
  outer loop
    vertex 105.675 21.428941916244334 0.0
    vertex 110.5 115.00000000000001 0.0
    vertex 106.0167261889578 21.16672618895781 0.0
  endloop
endfacet
facet normal 0.0 0.0 -1.0
  outer loop
    vertex 106.0167261889578 21.16672618895781 0.0
    vertex 110.5 115.00000000000001 0.0
    vertex 106.27894191624434 20.825000000000003 0.0
  endloop
endfacet
facet normal 0.0 0.0 -1.0
  outer loop
    vertex 106.27894191624434 20.825000000000003 0.0
    vertex 110.5 115.00000000000001 0.0
    vertex 106.44377761337697 20.42705142441916 0.0
  endloop
endfacet
facet normal 0.0 0.0 -1.0
  outer loop
    vertex 106.44377761337697 20.42705142441916 0.0
    vertex 110.5 115.00000000000001 0.0
    vertex 106.50000000000001 20.0 0.0
  endloop
endfacet
facet normal 0.0 0.0 -1.0
  outer loop
    vertex 1.4999999999999993 0.0 0.0
    vertex 50.97604271396795 7.550841672235024 0.0
    vertex 110.5 0.0 0.0
  endloop
endfacet
facet normal 0.0 0.0 -1.0
  outer loop
    vertex 50.97604271396795 7.550841672235024 0.0
    vertex 1.4999999999999993 0.0 0.0
    vertex 27.114146820980714 11.893949057814662 0.0
  endloop
endfacet
facet normal 0.0 0.0 -1.0
  outer loop
    vertex 27.114146820980714 11.893949057814662 0.0
    vertex 1.4999999999999993 0.0 0.0
    vertex 6.0562223866230385 97.57294857558084 0.0
  endloop
endfacet
facet normal 0.0 0.0 -1.0
  outer loop
    vertex 6.0562223866230385 97.57294857558084 0.0
    vertex 1.4999999999999993 0.0 0.0
    vertex 5.999999999999999 98.0 0.0
  endloop
endfacet
facet normal 0.0 0.0 -1.0
  outer loop
    vertex 27.114146820980714 11.893949057814662 0.0
    vertex 6.0562223866230385 97.57294857558084 0.0
    vertex 6.221058083755677 97.175 0.0
  endloop
endfacet
facet normal 0.0 0.0 -1.0
  outer loop
    vertex 27.114146820980714 11.893949057814662 0.0
    vertex 6.221058083755677 97.175 0.0
    vertex 6.4832738110421975 96.83327381104219 0.0
  endloop
endfacet
facet normal 0.0 0.0 -1.0
  outer loop
    vertex 27.114146820980714 11.893949057814662 0.0
    vertex 6.4832738110421975 96.83327381104219 0.0
    vertex 6.824999999999998 96.57105808375567 0.0
  endloop
endfacet
facet normal 0.0 0.0 -1.0
  outer loop
    vertex 27.114146820980714 11.893949057814662 0.0
    vertex 6.824999999999998 96.57105808375567 0.0
    vertex 7.222948575580839 96.40622238662304 0.0
  endloop
endfacet
facet normal 0.0 0.0 -1.0
  outer loop
    vertex 27.114146820980714 11.893949057814662 0.0
    vertex 7.222948575580839 96.40622238662304 0.0
    vertex 7.649999999999998 96.35000000000001 0.0
  endloop
endfacet
facet normal 0.0 0.0 -1.0
  outer loop
    vertex 27.114146820980714 11.893949057814662 0.0
    vertex 7.649999999999998 96.35000000000001 0.0
    vertex 8.077051424419164 96.40622238662304 0.0
  endloop
endfacet
facet normal 0.0 0.0 -1.0
  outer loop
    vertex 27.114146820980714 11.893949057814662 0.0
    vertex 8.077051424419164 96.40622238662304 0.0
    vertex 8.475000000000003 96.57105808375567 0.0
  endloop
endfacet
facet normal 0.0 0.0 -1.0
  outer loop
    vertex 27.114146820980714 11.893949057814662 0.0
    vertex 8.475000000000003 96.57105808375567 0.0
    vertex 8.816726188957803 96.83327381104219 0.0
  endloop
endfacet
facet normal 0.0 0.0 -1.0
  outer loop
    vertex 27.114146820980714 11.893949057814662 0.0
    vertex 8.816726188957803 96.83327381104219 0.0
    vertex 9.078941916244323 97.175 0.0
  endloop
endfacet
facet normal 0.0 0.0 -1.0
  outer loop
    vertex 27.114146820980714 11.893949057814662 0.0
    vertex 9.078941916244323 97.175 0.0
    vertex 9.243777613376961 97.57294857558084 0.0
  endloop
endfacet
facet normal 0.0 0.0 -1.0
  outer loop
    vertex 27.114146820980714 11.893949057814662 0.0
    vertex 9.243777613376961 97.57294857558084 0.0
    vertex 9.3 98.0 0.0
  endloop
endfacet
facet normal 0.0 0.0 -1.0
  outer loop
    vertex 27.114146820980714 11.893949057814662 0.0
    vertex 9.3 98.0 0.0
    vertex 27.114146820980714 21.893949057814662 0.0
  endloop
endfacet
facet normal 0.0 0.0 -1.0
  outer loop
    vertex 50.97604271396795 7.550841672235024 0.0
    vertex 27.114146820980714 11.893949057814662 0.0
    vertex 40.91414682098071 11.893949057814662 0.0
  endloop
endfacet
facet normal 0.0 0.0 -1.0
  outer loop
    vertex 50.97604271396795 7.550841672235024 0.0
    vertex 40.91414682098071 11.893949057814662 0.0
    vertex 50.97604271396795 24.800841672235027 0.0
  endloop
endfacet
facet normal 0.0 0.0 -1.0
  outer loop
    vertex 110.5 0.0 0.0
    vertex 50.97604271396795 7.550841672235024 0.0
    vertex 66.77604271396795 7.550841672235024 0.0
  endloop
endfacet
facet normal 0.0 0.0 -1.0
  outer loop
    vertex 110.5 0.0 0.0
    vertex 66.77604271396795 7.550841672235024 0.0
    vertex 77.1193527212751 13.024521989727011 0.0
  endloop
endfacet
facet normal 0.0 0.0 -1.0
  outer loop
    vertex 77.1193527212751 13.024521989727011 0.0
    vertex 66.77604271396795 7.550841672235024 0.0
    vertex 76.20121517536366 13.574610316224861 0.0
  endloop
endfacet
facet normal 0.0 0.0 -1.0
  outer loop
    vertex 76.20121517536366 13.574610316224861 0.0
    vertex 66.77604271396795 7.550841672235024 0.0
    vertex 75.45673574306832 14.343586320434847 0.0
  endloop
endfacet
facet normal 0.0 0.0 -1.0
  outer loop
    vertex 75.45673574306832 14.343586320434847 0.0
    vertex 66.77604271396795 7.550841672235024 0.0
    vertex 74.93664946738963 15.279045558462979 0.0
  endloop
endfacet
facet normal 0.0 0.0 -1.0
  outer loop
    vertex 74.93664946738963 15.279045558462979 0.0
    vertex 66.77604271396795 7.550841672235024 0.0
    vertex 74.67639936853185 16.31723802915714 0.0
  endloop
endfacet
facet normal 0.0 0.0 -1.0
  outer loop
    vertex 110.5 0.0 0.0
    vertex 77.1193527212751 13.024521989727011 0.0
    vertex 78.14857882434288 12.730808951328179 0.0
  endloop
endfacet
facet normal 0.0 0.0 -1.0
  outer loop
    vertex 110.5 0.0 0.0
    vertex 78.14857882434288 12.730808951328179 0.0
    vertex 79.21875342651943 12.7134872592115 0.0
  endloop
endfacet
facet normal 0.0 0.0 -1.0
  outer loop
    vertex 110.5 0.0 0.0
    vertex 79.21875342651943 12.7134872592115 0.0
    vertex 80.25694589721358 12.973737358069277 0.0
  endloop
endfacet
facet normal 0.0 0.0 -1.0
  outer loop
    vertex 110.5 0.0 0.0
    vertex 80.25694589721358 12.973737358069277 0.0
    vertex 81.19240513524171 13.49382363374798 0.0
  endloop
endfacet
facet normal 0.0 0.0 -1.0
  outer loop
    vertex 110.5 0.0 0.0
    vertex 81.19240513524171 13.49382363374798 0.0
    vertex 81.9613811394517 14.238303066043306 0.0
  endloop
endfacet
facet normal 0.0 0.0 -1.0
  outer loop
    vertex 110.5 0.0 0.0
    vertex 81.9613811394517 14.238303066043306 0.0
    vertex 82.51146946594955 15.156440611954764 0.0
  endloop
endfacet
facet normal 0.0 0.0 -1.0
  outer loop
    vertex 110.5 0.0 0.0
    vertex 82.51146946594955 15.156440611954764 0.0
    vertex 82.80518250434838 16.185666715022524 0.0
  endloop
endfacet
facet normal 0.0 0.0 -1.0
  outer loop
    vertex 110.5 0.0 0.0
    vertex 82.80518250434838 16.185666715022524 0.0
    vertex 82.82250419646506 17.255841317199074 0.0
  endloop
endfacet
facet normal 0.0 0.0 -1.0
  outer loop
    vertex 110.5 0.0 0.0
    vertex 82.82250419646506 17.255841317199074 0.0
    vertex 103.25622238662304 19.57294857558084 0.0
  endloop
endfacet
facet normal 0.0 0.0 -1.0
  outer loop
    vertex 103.25622238662304 19.57294857558084 0.0
    vertex 82.82250419646506 17.255841317199074 0.0
    vertex 103.19999999999999 20.0 0.0
  endloop
endfacet
facet normal 0.0 0.0 -1.0
  outer loop
    vertex 110.5 0.0 0.0
    vertex 103.25622238662304 19.57294857558084 0.0
    vertex 103.42105808375567 19.174999999999997 0.0
  endloop
endfacet
facet normal 0.0 0.0 -1.0
  outer loop
    vertex 110.5 0.0 0.0
    vertex 103.42105808375567 19.174999999999997 0.0
    vertex 103.6832738110422 18.83327381104219 0.0
  endloop
endfacet
facet normal 0.0 0.0 -1.0
  outer loop
    vertex 110.5 0.0 0.0
    vertex 103.6832738110422 18.83327381104219 0.0
    vertex 104.025 18.57105808375567 0.0
  endloop
endfacet
facet normal 0.0 0.0 -1.0
  outer loop
    vertex 110.5 0.0 0.0
    vertex 104.025 18.57105808375567 0.0
    vertex 104.42294857558085 18.40622238662303 0.0
  endloop
endfacet
facet normal 0.0 0.0 -1.0
  outer loop
    vertex 110.5 0.0 0.0
    vertex 104.42294857558085 18.40622238662303 0.0
    vertex 104.85 18.34999999999999 0.0
  endloop
endfacet
facet normal 0.0 0.0 -1.0
  outer loop
    vertex 110.5 0.0 0.0
    vertex 104.85 18.34999999999999 0.0
    vertex 105.27705142441916 18.40622238662303 0.0
  endloop
endfacet
facet normal 0.0 0.0 -1.0
  outer loop
    vertex 110.5 0.0 0.0
    vertex 105.27705142441916 18.40622238662303 0.0
    vertex 105.67500000000001 18.57105808375567 0.0
  endloop
endfacet
facet normal 0.0 0.0 -1.0
  outer loop
    vertex 110.5 0.0 0.0
    vertex 105.67500000000001 18.57105808375567 0.0
    vertex 106.0167261889578 18.83327381104219 0.0
  endloop
endfacet
facet normal 0.0 0.0 -1.0
  outer loop
    vertex 110.5 0.0 0.0
    vertex 106.0167261889578 18.83327381104219 0.0
    vertex 106.27894191624434 19.174999999999997 0.0
  endloop
endfacet
facet normal 0.0 0.0 -1.0
  outer loop
    vertex 110.5 0.0 0.0
    vertex 106.27894191624434 19.174999999999997 0.0
    vertex 106.44377761337697 19.57294857558084 0.0
  endloop
endfacet
facet normal 0.0 0.0 -1.0
  outer loop
    vertex 110.5 0.0 0.0
    vertex 106.44377761337697 19.57294857558084 0.0
    vertex 106.50000000000001 20.0 0.0
  endloop
endfacet
facet normal 0.0 0.0 -1.0
  outer loop
    vertex 110.5 0.0 0.0
    vertex 106.50000000000001 20.0 0.0
    vertex 110.5 115.00000000000001 0.0
  endloop
endfacet
facet normal -0.0 -0.0 1.0
  outer loop
    vertex 9.999999999999996 24.0 1.9999999999999998
    vertex 5.999999999999999 98.0 1.9999999999999998
    vertex 5.999999999999997 24.0 1.9999999999999998
  endloop
endfacet
facet normal -0.0 -0.0 1.0
  outer loop
    vertex 5.999999999999999 98.0 1.9999999999999998
    vertex 9.999999999999996 24.0 1.9999999999999998
    vertex 6.0562223866230385 97.57294857558084 1.9999999999999998
  endloop
endfacet
facet normal -0.0 -0.0 1.0
  outer loop
    vertex 6.0562223866230385 97.57294857558084 1.9999999999999998
    vertex 9.999999999999996 24.0 1.9999999999999998
    vertex 6.221058083755677 97.175 1.9999999999999998
  endloop
endfacet
facet normal -0.0 -0.0 1.0
  outer loop
    vertex 6.221058083755677 97.175 1.9999999999999998
    vertex 9.999999999999996 24.0 1.9999999999999998
    vertex 6.4832738110421975 96.83327381104219 1.9999999999999998
  endloop
endfacet
facet normal -0.0 -0.0 1.0
  outer loop
    vertex 6.4832738110421975 96.83327381104219 1.9999999999999998
    vertex 9.999999999999996 24.0 1.9999999999999998
    vertex 6.824999999999998 96.57105808375567 1.9999999999999998
  endloop
endfacet
facet normal -0.0 -0.0 1.0
  outer loop
    vertex 6.824999999999998 96.57105808375567 1.9999999999999998
    vertex 9.999999999999996 24.0 1.9999999999999998
    vertex 7.222948575580839 96.40622238662304 1.9999999999999998
  endloop
endfacet
facet normal -0.0 -0.0 1.0
  outer loop
    vertex 7.222948575580839 96.40622238662304 1.9999999999999998
    vertex 9.999999999999996 24.0 1.9999999999999998
    vertex 7.649999999999998 96.35000000000001 1.9999999999999998
  endloop
endfacet
facet normal -0.0 -0.0 1.0
  outer loop
    vertex 7.649999999999998 96.35000000000001 1.9999999999999998
    vertex 9.999999999999996 24.0 1.9999999999999998
    vertex 8.077051424419164 96.40622238662304 1.9999999999999998
  endloop
endfacet
facet normal -0.0 -0.0 1.0
  outer loop
    vertex 8.077051424419164 96.40622238662304 1.9999999999999998
    vertex 9.999999999999996 24.0 1.9999999999999998
    vertex 8.475000000000003 96.57105808375567 1.9999999999999998
  endloop
endfacet
facet normal -0.0 -0.0 1.0
  outer loop
    vertex 8.475000000000003 96.57105808375567 1.9999999999999998
    vertex 9.999999999999996 24.0 1.9999999999999998
    vertex 8.816726188957803 96.83327381104219 1.9999999999999998
  endloop
endfacet
facet normal -0.0 -0.0 1.0
  outer loop
    vertex 8.816726188957803 96.83327381104219 1.9999999999999998
    vertex 9.999999999999996 24.0 1.9999999999999998
    vertex 9.078941916244323 97.175 1.9999999999999998
  endloop
endfacet
facet normal -0.0 -0.0 1.0
  outer loop
    vertex 9.078941916244323 97.175 1.9999999999999998
    vertex 9.999999999999996 24.0 1.9999999999999998
    vertex 9.243777613376961 97.57294857558084 1.9999999999999998
  endloop
endfacet
facet normal -0.0 -0.0 1.0
  outer loop
    vertex 9.243777613376961 97.57294857558084 1.9999999999999998
    vertex 9.999999999999996 24.0 1.9999999999999998
    vertex 9.3 98.0 1.9999999999999998
  endloop
endfacet
facet normal -0.0 -0.0 1.0
  outer loop
    vertex 1.4999999999999993 0.0 1.9999999999999998
    vertex 5.999999999999997 20.0 1.9999999999999998
    vertex 1.4999999999999993 115.00000000000001 1.9999999999999998
  endloop
endfacet
facet normal -0.0 -0.0 1.0
  outer loop
    vertex 5.999999999999997 20.0 1.9999999999999998
    vertex 1.4999999999999993 0.0 1.9999999999999998
    vertex 27.114146820980714 11.893949057814662 1.9999999999999998
  endloop
endfacet
facet normal -0.0 -0.0 1.0
  outer loop
    vertex 27.114146820980714 11.893949057814662 1.9999999999999998
    vertex 1.4999999999999993 0.0 1.9999999999999998
    vertex 50.97604271396795 7.550841672235024 1.9999999999999998
  endloop
endfacet
facet normal -0.0 -0.0 1.0
  outer loop
    vertex 50.97604271396795 7.550841672235024 1.9999999999999998
    vertex 1.4999999999999993 0.0 1.9999999999999998
    vertex 110.5 0.0 1.9999999999999998
  endloop
endfacet
facet normal -0.0 -0.0 1.0
  outer loop
    vertex 5.999999999999997 20.0 1.9999999999999998
    vertex 27.114146820980714 11.893949057814662 1.9999999999999998
    vertex 9.999999999999996 20.0 1.9999999999999998
  endloop
endfacet
facet normal -0.0 -0.0 1.0
  outer loop
    vertex 9.999999999999996 20.0 1.9999999999999998
    vertex 27.114146820980714 11.893949057814662 1.9999999999999998
    vertex 9.999999999999996 24.0 1.9999999999999998
  endloop
endfacet
facet normal -0.0 -0.0 1.0
  outer loop
    vertex 27.114146820980714 11.893949057814662 1.9999999999999998
    vertex 50.97604271396795 7.550841672235024 1.9999999999999998
    vertex 40.91414682098071 11.893949057814662 1.9999999999999998
  endloop
endfacet
facet normal -0.0 -0.0 1.0
  outer loop
    vertex 40.91414682098071 11.893949057814662 1.9999999999999998
    vertex 50.97604271396795 7.550841672235024 1.9999999999999998
    vertex 40.91414682098071 21.893949057814662 1.9999999999999998
  endloop
endfacet
facet normal -0.0 -0.0 1.0
  outer loop
    vertex 50.97604271396795 7.550841672235024 1.9999999999999998
    vertex 110.5 0.0 1.9999999999999998
    vertex 66.77604271396795 7.550841672235024 1.9999999999999998
  endloop
endfacet
facet normal -0.0 -0.0 1.0
  outer loop
    vertex 66.77604271396795 7.550841672235024 1.9999999999999998
    vertex 110.5 0.0 1.9999999999999998
    vertex 77.1193527212751 13.024521989727011 1.9999999999999998
  endloop
endfacet
facet normal -0.0 -0.0 1.0
  outer loop
    vertex 66.77604271396795 7.550841672235024 1.9999999999999998
    vertex 77.1193527212751 13.024521989727011 1.9999999999999998
    vertex 76.20121517536366 13.574610316224861 1.9999999999999998
  endloop
endfacet
facet normal -0.0 -0.0 1.0
  outer loop
    vertex 66.77604271396795 7.550841672235024 1.9999999999999998
    vertex 76.20121517536366 13.574610316224861 1.9999999999999998
    vertex 75.45673574306832 14.343586320434847 1.9999999999999998
  endloop
endfacet
facet normal -0.0 -0.0 1.0
  outer loop
    vertex 66.77604271396795 7.550841672235024 1.9999999999999998
    vertex 75.45673574306832 14.343586320434847 1.9999999999999998
    vertex 66.77604271396795 24.800841672235027 1.9999999999999998
  endloop
endfacet
facet normal -0.0 -0.0 1.0
  outer loop
    vertex 66.77604271396795 24.800841672235027 1.9999999999999998
    vertex 75.45673574306832 14.343586320434847 1.9999999999999998
    vertex 74.93664946738963 15.279045558462979 1.9999999999999998
  endloop
endfacet
facet normal -0.0 -0.0 1.0
  outer loop
    vertex 66.77604271396795 24.800841672235027 1.9999999999999998
    vertex 74.93664946738963 15.279045558462979 1.9999999999999998
    vertex 74.67639936853185 16.31723802915714 1.9999999999999998
  endloop
endfacet
facet normal -0.0 -0.0 1.0
  outer loop
    vertex 77.1193527212751 13.024521989727011 1.9999999999999998
    vertex 110.5 0.0 1.9999999999999998
    vertex 78.14857882434288 12.730808951328179 1.9999999999999998
  endloop
endfacet
facet normal -0.0 -0.0 1.0
  outer loop
    vertex 78.14857882434288 12.730808951328179 1.9999999999999998
    vertex 110.5 0.0 1.9999999999999998
    vertex 79.21875342651943 12.7134872592115 1.9999999999999998
  endloop
endfacet
facet normal -0.0 -0.0 1.0
  outer loop
    vertex 79.21875342651943 12.7134872592115 1.9999999999999998
    vertex 110.5 0.0 1.9999999999999998
    vertex 80.25694589721358 12.973737358069277 1.9999999999999998
  endloop
endfacet
facet normal -0.0 -0.0 1.0
  outer loop
    vertex 80.25694589721358 12.973737358069277 1.9999999999999998
    vertex 110.5 0.0 1.9999999999999998
    vertex 81.19240513524171 13.49382363374798 1.9999999999999998
  endloop
endfacet
facet normal -0.0 -0.0 1.0
  outer loop
    vertex 81.19240513524171 13.49382363374798 1.9999999999999998
    vertex 110.5 0.0 1.9999999999999998
    vertex 81.9613811394517 14.238303066043306 1.9999999999999998
  endloop
endfacet
facet normal -0.0 -0.0 1.0
  outer loop
    vertex 81.9613811394517 14.238303066043306 1.9999999999999998
    vertex 110.5 0.0 1.9999999999999998
    vertex 82.51146946594955 15.156440611954764 1.9999999999999998
  endloop
endfacet
facet normal -0.0 -0.0 1.0
  outer loop
    vertex 82.51146946594955 15.156440611954764 1.9999999999999998
    vertex 110.5 0.0 1.9999999999999998
    vertex 82.80518250434838 16.185666715022524 1.9999999999999998
  endloop
endfacet
facet normal -0.0 -0.0 1.0
  outer loop
    vertex 82.80518250434838 16.185666715022524 1.9999999999999998
    vertex 110.5 0.0 1.9999999999999998
    vertex 82.82250419646506 17.255841317199074 1.9999999999999998
  endloop
endfacet
facet normal -0.0 -0.0 1.0
  outer loop
    vertex 82.82250419646506 17.255841317199074 1.9999999999999998
    vertex 110.5 0.0 1.9999999999999998
    vertex 103.25622238662304 19.57294857558084 1.9999999999999998
  endloop
endfacet
facet normal -0.0 -0.0 1.0
  outer loop
    vertex 82.82250419646506 17.255841317199074 1.9999999999999998
    vertex 103.25622238662304 19.57294857558084 1.9999999999999998
    vertex 103.19999999999999 20.0 1.9999999999999998
  endloop
endfacet
facet normal -0.0 -0.0 1.0
  outer loop
    vertex 82.82250419646506 17.255841317199074 1.9999999999999998
    vertex 103.19999999999999 20.0 1.9999999999999998
    vertex 102.50000000000001 94.0 1.9999999999999998
  endloop
endfacet
facet normal -0.0 -0.0 1.0
  outer loop
    vertex 103.25622238662304 19.57294857558084 1.9999999999999998
    vertex 110.5 0.0 1.9999999999999998
    vertex 103.42105808375567 19.174999999999997 1.9999999999999998
  endloop
endfacet
facet normal -0.0 -0.0 1.0
  outer loop
    vertex 103.42105808375567 19.174999999999997 1.9999999999999998
    vertex 110.5 0.0 1.9999999999999998
    vertex 103.6832738110422 18.83327381104219 1.9999999999999998
  endloop
endfacet
facet normal -0.0 -0.0 1.0
  outer loop
    vertex 103.6832738110422 18.83327381104219 1.9999999999999998
    vertex 110.5 0.0 1.9999999999999998
    vertex 104.025 18.57105808375567 1.9999999999999998
  endloop
endfacet
facet normal -0.0 -0.0 1.0
  outer loop
    vertex 104.025 18.57105808375567 1.9999999999999998
    vertex 110.5 0.0 1.9999999999999998
    vertex 104.42294857558085 18.40622238662303 1.9999999999999998
  endloop
endfacet
facet normal -0.0 -0.0 1.0
  outer loop
    vertex 104.42294857558085 18.40622238662303 1.9999999999999998
    vertex 110.5 0.0 1.9999999999999998
    vertex 104.85 18.34999999999999 1.9999999999999998
  endloop
endfacet
facet normal -0.0 -0.0 1.0
  outer loop
    vertex 104.85 18.34999999999999 1.9999999999999998
    vertex 110.5 0.0 1.9999999999999998
    vertex 105.27705142441916 18.40622238662303 1.9999999999999998
  endloop
endfacet
facet normal -0.0 -0.0 1.0
  outer loop
    vertex 105.27705142441916 18.40622238662303 1.9999999999999998
    vertex 110.5 0.0 1.9999999999999998
    vertex 105.67500000000001 18.57105808375567 1.9999999999999998
  endloop
endfacet
facet normal -0.0 -0.0 1.0
  outer loop
    vertex 105.67500000000001 18.57105808375567 1.9999999999999998
    vertex 110.5 0.0 1.9999999999999998
    vertex 106.0167261889578 18.83327381104219 1.9999999999999998
  endloop
endfacet
facet normal -0.0 -0.0 1.0
  outer loop
    vertex 106.0167261889578 18.83327381104219 1.9999999999999998
    vertex 110.5 0.0 1.9999999999999998
    vertex 106.27894191624434 19.174999999999997 1.9999999999999998
  endloop
endfacet
facet normal -0.0 -0.0 1.0
  outer loop
    vertex 106.27894191624434 19.174999999999997 1.9999999999999998
    vertex 110.5 0.0 1.9999999999999998
    vertex 106.44377761337697 19.57294857558084 1.9999999999999998
  endloop
endfacet
facet normal -0.0 -0.0 1.0
  outer loop
    vertex 106.44377761337697 19.57294857558084 1.9999999999999998
    vertex 110.5 0.0 1.9999999999999998
    vertex 106.50000000000001 20.0 1.9999999999999998
  endloop
endfacet
facet normal -0.0 -0.0 1.0
  outer loop
    vertex 106.50000000000001 20.0 1.9999999999999998
    vertex 110.5 0.0 1.9999999999999998
    vertex 106.50000000000001 94.0 1.9999999999999998
  endloop
endfacet
facet normal -0.0 -0.0 1.0
  outer loop
    vertex 106.50000000000001 94.0 1.9999999999999998
    vertex 110.5 0.0 1.9999999999999998
    vertex 106.50000000000001 98.0 1.9999999999999998
  endloop
endfacet
facet normal -0.0 -0.0 1.0
  outer loop
    vertex 1.4999999999999993 115.00000000000001 1.9999999999999998
    vertex 7.222948575580839 99.59377761337696 1.9999999999999998
    vertex 110.5 115.00000000000001 1.9999999999999998
  endloop
endfacet
facet normal -0.0 -0.0 1.0
  outer loop
    vertex 7.222948575580839 99.59377761337696 1.9999999999999998
    vertex 1.4999999999999993 115.00000000000001 1.9999999999999998
    vertex 6.824999999999998 99.42894191624433 1.9999999999999998
  endloop
endfacet
facet normal -0.0 -0.0 1.0
  outer loop
    vertex 6.824999999999998 99.42894191624433 1.9999999999999998
    vertex 1.4999999999999993 115.00000000000001 1.9999999999999998
    vertex 6.4832738110421975 99.16672618895781 1.9999999999999998
  endloop
endfacet
facet normal -0.0 -0.0 1.0
  outer loop
    vertex 6.4832738110421975 99.16672618895781 1.9999999999999998
    vertex 1.4999999999999993 115.00000000000001 1.9999999999999998
    vertex 6.221058083755677 98.825 1.9999999999999998
  endloop
endfacet
facet normal -0.0 -0.0 1.0
  outer loop
    vertex 6.221058083755677 98.825 1.9999999999999998
    vertex 1.4999999999999993 115.00000000000001 1.9999999999999998
    vertex 6.0562223866230385 98.42705142441916 1.9999999999999998
  endloop
endfacet
facet normal -0.0 -0.0 1.0
  outer loop
    vertex 6.0562223866230385 98.42705142441916 1.9999999999999998
    vertex 1.4999999999999993 115.00000000000001 1.9999999999999998
    vertex 5.999999999999999 98.0 1.9999999999999998
  endloop
endfacet
facet normal -0.0 -0.0 1.0
  outer loop
    vertex 5.999999999999999 98.0 1.9999999999999998
    vertex 1.4999999999999993 115.00000000000001 1.9999999999999998
    vertex 5.999999999999997 24.0 1.9999999999999998
  endloop
endfacet
facet normal -0.0 -0.0 1.0
  outer loop
    vertex 5.999999999999997 24.0 1.9999999999999998
    vertex 1.4999999999999993 115.00000000000001 1.9999999999999998
    vertex 5.999999999999997 20.0 1.9999999999999998
  endloop
endfacet
facet normal -0.0 -0.0 1.0
  outer loop
    vertex 110.5 115.00000000000001 1.9999999999999998
    vertex 7.222948575580839 99.59377761337696 1.9999999999999998
    vertex 7.649999999999998 99.64999999999999 1.9999999999999998
  endloop
endfacet
facet normal -0.0 -0.0 1.0
  outer loop
    vertex 110.5 115.00000000000001 1.9999999999999998
    vertex 7.649999999999998 99.64999999999999 1.9999999999999998
    vertex 8.077051424419164 99.59377761337696 1.9999999999999998
  endloop
endfacet
facet normal -0.0 -0.0 1.0
  outer loop
    vertex 110.5 115.00000000000001 1.9999999999999998
    vertex 8.077051424419164 99.59377761337696 1.9999999999999998
    vertex 8.475000000000003 99.42894191624433 1.9999999999999998
  endloop
endfacet
facet normal -0.0 -0.0 1.0
  outer loop
    vertex 110.5 115.00000000000001 1.9999999999999998
    vertex 8.475000000000003 99.42894191624433 1.9999999999999998
    vertex 8.816726188957803 99.16672618895781 1.9999999999999998
  endloop
endfacet
facet normal -0.0 -0.0 1.0
  outer loop
    vertex 110.5 115.00000000000001 1.9999999999999998
    vertex 8.816726188957803 99.16672618895781 1.9999999999999998
    vertex 9.078941916244323 98.825 1.9999999999999998
  endloop
endfacet
facet normal -0.0 -0.0 1.0
  outer loop
    vertex 110.5 115.00000000000001 1.9999999999999998
    vertex 9.078941916244323 98.825 1.9999999999999998
    vertex 9.243777613376961 98.42705142441916 1.9999999999999998
  endloop
endfacet
facet normal -0.0 -0.0 1.0
  outer loop
    vertex 110.5 115.00000000000001 1.9999999999999998
    vertex 9.243777613376961 98.42705142441916 1.9999999999999998
    vertex 9.3 98.0 1.9999999999999998
  endloop
endfacet
facet normal -0.0 -0.0 1.0
  outer loop
    vertex 110.5 115.00000000000001 1.9999999999999998
    vertex 9.3 98.0 1.9999999999999998
    vertex 9.999999999999996 24.0 1.9999999999999998
  endloop
endfacet
facet normal -0.0 -0.0 1.0
  outer loop
    vertex 110.5 115.00000000000001 1.9999999999999998
    vertex 9.999999999999996 24.0 1.9999999999999998
    vertex 27.114146820980714 21.893949057814662 1.9999999999999998
  endloop
endfacet
facet normal -0.0 -0.0 1.0
  outer loop
    vertex 27.114146820980714 21.893949057814662 1.9999999999999998
    vertex 9.999999999999996 24.0 1.9999999999999998
    vertex 27.114146820980714 11.893949057814662 1.9999999999999998
  endloop
endfacet
facet normal -0.0 -0.0 1.0
  outer loop
    vertex 110.5 115.00000000000001 1.9999999999999998
    vertex 27.114146820980714 21.893949057814662 1.9999999999999998
    vertex 40.91414682098071 21.893949057814662 1.9999999999999998
  endloop
endfacet
facet normal -0.0 -0.0 1.0
  outer loop
    vertex 110.5 115.00000000000001 1.9999999999999998
    vertex 40.91414682098071 21.893949057814662 1.9999999999999998
    vertex 50.97604271396795 24.800841672235027 1.9999999999999998
  endloop
endfacet
facet normal -0.0 -0.0 1.0
  outer loop
    vertex 50.97604271396795 24.800841672235027 1.9999999999999998
    vertex 40.91414682098071 21.893949057814662 1.9999999999999998
    vertex 50.97604271396795 7.550841672235024 1.9999999999999998
  endloop
endfacet
facet normal -0.0 -0.0 1.0
  outer loop
    vertex 110.5 115.00000000000001 1.9999999999999998
    vertex 50.97604271396795 24.800841672235027 1.9999999999999998
    vertex 66.77604271396795 24.800841672235027 1.9999999999999998
  endloop
endfacet
facet normal -0.0 -0.0 1.0
  outer loop
    vertex 110.5 115.00000000000001 1.9999999999999998
    vertex 66.77604271396795 24.800841672235027 1.9999999999999998
    vertex 102.50000000000001 98.0 1.9999999999999998
  endloop
endfacet
facet normal -0.0 -0.0 1.0
  outer loop
    vertex 102.50000000000001 98.0 1.9999999999999998
    vertex 66.77604271396795 24.800841672235027 1.9999999999999998
    vertex 74.98743409904735 18.41663873440145 1.9999999999999998
  endloop
endfacet
facet normal -0.0 -0.0 1.0
  outer loop
    vertex 74.98743409904735 18.41663873440145 1.9999999999999998
    vertex 66.77604271396795 24.800841672235027 1.9999999999999998
    vertex 74.69372106064853 17.38741263133369 1.9999999999999998
  endloop
endfacet
facet normal -0.0 -0.0 1.0
  outer loop
    vertex 74.69372106064853 17.38741263133369 1.9999999999999998
    vertex 66.77604271396795 24.800841672235027 1.9999999999999998
    vertex 74.67639936853185 16.31723802915714 1.9999999999999998
  endloop
endfacet
facet normal -0.0 -0.0 1.0
  outer loop
    vertex 102.50000000000001 98.0 1.9999999999999998
    vertex 74.98743409904735 18.41663873440145 1.9999999999999998
    vertex 75.5375224255452 19.33477628031291 1.9999999999999998
  endloop
endfacet
facet normal -0.0 -0.0 1.0
  outer loop
    vertex 102.50000000000001 98.0 1.9999999999999998
    vertex 75.5375224255452 19.33477628031291 1.9999999999999998
    vertex 76.3064984297552 20.07925571260823 1.9999999999999998
  endloop
endfacet
facet normal -0.0 -0.0 1.0
  outer loop
    vertex 102.50000000000001 98.0 1.9999999999999998
    vertex 76.3064984297552 20.07925571260823 1.9999999999999998
    vertex 77.24195766778332 20.599341988286934 1.9999999999999998
  endloop
endfacet
facet normal -0.0 -0.0 1.0
  outer loop
    vertex 102.50000000000001 98.0 1.9999999999999998
    vertex 77.24195766778332 20.599341988286934 1.9999999999999998
    vertex 78.28015013847748 20.859592087144716 1.9999999999999998
  endloop
endfacet
facet normal -0.0 -0.0 1.0
  outer loop
    vertex 102.50000000000001 98.0 1.9999999999999998
    vertex 78.28015013847748 20.859592087144716 1.9999999999999998
    vertex 79.35032474065403 20.842270395028034 1.9999999999999998
  endloop
endfacet
facet normal -0.0 -0.0 1.0
  outer loop
    vertex 102.50000000000001 98.0 1.9999999999999998
    vertex 79.35032474065403 20.842270395028034 1.9999999999999998
    vertex 80.3795508437218 20.548557356629207 1.9999999999999998
  endloop
endfacet
facet normal -0.0 -0.0 1.0
  outer loop
    vertex 102.50000000000001 98.0 1.9999999999999998
    vertex 80.3795508437218 20.548557356629207 1.9999999999999998
    vertex 81.29768838963325 19.998469030131353 1.9999999999999998
  endloop
endfacet
facet normal -0.0 -0.0 1.0
  outer loop
    vertex 102.50000000000001 98.0 1.9999999999999998
    vertex 81.29768838963325 19.998469030131353 1.9999999999999998
    vertex 82.04216782192859 19.22949302592137 1.9999999999999998
  endloop
endfacet
facet normal -0.0 -0.0 1.0
  outer loop
    vertex 102.50000000000001 98.0 1.9999999999999998
    vertex 82.04216782192859 19.22949302592137 1.9999999999999998
    vertex 82.56225409760728 18.294033787893234 1.9999999999999998
  endloop
endfacet
facet normal -0.0 -0.0 1.0
  outer loop
    vertex 102.50000000000001 98.0 1.9999999999999998
    vertex 82.56225409760728 18.294033787893234 1.9999999999999998
    vertex 82.82250419646506 17.255841317199074 1.9999999999999998
  endloop
endfacet
facet normal -0.0 -0.0 1.0
  outer loop
    vertex 102.50000000000001 98.0 1.9999999999999998
    vertex 82.82250419646506 17.255841317199074 1.9999999999999998
    vertex 102.50000000000001 94.0 1.9999999999999998
  endloop
endfacet
facet normal -0.0 -0.0 1.0
  outer loop
    vertex 110.5 115.00000000000001 1.9999999999999998
    vertex 102.50000000000001 98.0 1.9999999999999998
    vertex 106.50000000000001 98.0 1.9999999999999998
  endloop
endfacet
facet normal -0.0 -0.0 1.0
  outer loop
    vertex 110.5 115.00000000000001 1.9999999999999998
    vertex 106.50000000000001 98.0 1.9999999999999998
    vertex 110.5 0.0 1.9999999999999998
  endloop
endfacet
facet normal -0.0 -0.0 1.0
  outer loop
    vertex 103.19999999999999 20.0 1.9999999999999998
    vertex 106.50000000000001 94.0 1.9999999999999998
    vertex 102.50000000000001 94.0 1.9999999999999998
  endloop
endfacet
facet normal -0.0 -0.0 1.0
  outer loop
    vertex 106.50000000000001 94.0 1.9999999999999998
    vertex 103.19999999999999 20.0 1.9999999999999998
    vertex 103.25622238662304 20.42705142441916 1.9999999999999998
  endloop
endfacet
facet normal -0.0 -0.0 1.0
  outer loop
    vertex 106.50000000000001 94.0 1.9999999999999998
    vertex 103.25622238662304 20.42705142441916 1.9999999999999998
    vertex 103.42105808375567 20.825000000000003 1.9999999999999998
  endloop
endfacet
facet normal -0.0 -0.0 1.0
  outer loop
    vertex 106.50000000000001 94.0 1.9999999999999998
    vertex 103.42105808375567 20.825000000000003 1.9999999999999998
    vertex 103.6832738110422 21.16672618895781 1.9999999999999998
  endloop
endfacet
facet normal -0.0 -0.0 1.0
  outer loop
    vertex 106.50000000000001 94.0 1.9999999999999998
    vertex 103.6832738110422 21.16672618895781 1.9999999999999998
    vertex 104.02499999999998 21.42894191624433 1.9999999999999998
  endloop
endfacet
facet normal -0.0 -0.0 1.0
  outer loop
    vertex 106.50000000000001 94.0 1.9999999999999998
    vertex 104.02499999999998 21.42894191624433 1.9999999999999998
    vertex 104.42294857558085 21.59377761337697 1.9999999999999998
  endloop
endfacet
facet normal -0.0 -0.0 1.0
  outer loop
    vertex 106.50000000000001 94.0 1.9999999999999998
    vertex 104.42294857558085 21.59377761337697 1.9999999999999998
    vertex 104.85 21.65000000000001 1.9999999999999998
  endloop
endfacet
facet normal -0.0 -0.0 1.0
  outer loop
    vertex 106.50000000000001 94.0 1.9999999999999998
    vertex 104.85 21.65000000000001 1.9999999999999998
    vertex 105.27705142441916 21.59377761337697 1.9999999999999998
  endloop
endfacet
facet normal -0.0 -0.0 1.0
  outer loop
    vertex 106.50000000000001 94.0 1.9999999999999998
    vertex 105.27705142441916 21.59377761337697 1.9999999999999998
    vertex 105.675 21.428941916244334 1.9999999999999998
  endloop
endfacet
facet normal -0.0 -0.0 1.0
  outer loop
    vertex 106.50000000000001 94.0 1.9999999999999998
    vertex 105.675 21.428941916244334 1.9999999999999998
    vertex 106.0167261889578 21.16672618895781 1.9999999999999998
  endloop
endfacet
facet normal -0.0 -0.0 1.0
  outer loop
    vertex 106.50000000000001 94.0 1.9999999999999998
    vertex 106.0167261889578 21.16672618895781 1.9999999999999998
    vertex 106.27894191624434 20.825000000000003 1.9999999999999998
  endloop
endfacet
facet normal -0.0 -0.0 1.0
  outer loop
    vertex 106.50000000000001 94.0 1.9999999999999998
    vertex 106.27894191624434 20.825000000000003 1.9999999999999998
    vertex 106.44377761337697 20.42705142441916 1.9999999999999998
  endloop
endfacet
facet normal -0.0 -0.0 1.0
  outer loop
    vertex 106.50000000000001 94.0 1.9999999999999998
    vertex 106.44377761337697 20.42705142441916 1.9999999999999998
    vertex 106.50000000000001 20.0 1.9999999999999998
  endloop
endfacet
facet normal 0.0 -1.0 0.0
  outer loop
    vertex 110.5 0.0 1.9999999999999998
    vertex 1.4999999999999993 0.0 0.0
    vertex 110.5 0.0 0.0
  endloop
endfacet
facet normal 0.0 -1.0 0.0
  outer loop
    vertex 1.4999999999999993 0.0 0.0
    vertex 110.5 0.0 1.9999999999999998
    vertex 1.4999999999999993 0.0 1.9999999999999998
  endloop
endfacet
facet normal -1.0 0.0 0.0
  outer loop
    vertex 1.4999999999999993 115.00000000000001 1.9999999999999998
    vertex 1.4999999999999993 0.0 0.0
    vertex 1.4999999999999993 0.0 1.9999999999999998
  endloop
endfacet
facet normal -1.0 0.0 0.0
  outer loop
    vertex 1.4999999999999993 0.0 0.0
    vertex 1.4999999999999993 115.00000000000001 1.9999999999999998
    vertex 1.4999999999999993 115.00000000000001 0.0
  endloop
endfacet
facet normal -0.0 1.0 -0.0
  outer loop
    vertex 1.4999999999999993 115.00000000000001 1.9999999999999998
    vertex 110.5 115.00000000000001 0.0
    vertex 1.4999999999999993 115.00000000000001 0.0
  endloop
endfacet
facet normal -0.0 1.0 -0.0
  outer loop
    vertex 110.5 115.00000000000001 0.0
    vertex 1.4999999999999993 115.00000000000001 1.9999999999999998
    vertex 110.5 115.00000000000001 1.9999999999999998
  endloop
endfacet
facet normal 1.0 0.0 0.0
  outer loop
    vertex 110.5 115.00000000000001 0.0
    vertex 110.5 0.0 1.9999999999999998
    vertex 110.5 0.0 0.0
  endloop
endfacet
facet normal 1.0 0.0 0.0
  outer loop
    vertex 110.5 0.0 1.9999999999999998
    vertex 110.5 115.00000000000001 0.0
    vertex 110.5 115.00000000000001 1.9999999999999998
  endloop
endfacet
facet normal -0.9934274180406361 -0.11446381561487126 0.0
  outer loop
    vertex 82.82250419646506 17.255841317199074 1.9999999999999998
    vertex 82.80518250434838 16.185666715022524 0.0
    vertex 82.80518250434838 16.185666715022524 1.9999999999999998
  endloop
endfacet
facet normal -0.9892026150853492 0.14655438003794446 0.0
  outer loop
    vertex 82.80518250434838 16.185666715022524 0.0
    vertex 82.82250419646506 17.255841317199074 1.9999999999999998
    vertex 82.82250419646506 17.255841317199074 0.0
  endloop
endfacet
facet normal -0.9299517841728866 -0.3676814913939303 0.0
  outer loop
    vertex 82.56225409760728 18.294033787893234 1.9999999999999998
    vertex 82.82250419646506 17.255841317199074 0.0
    vertex 82.82250419646506 17.255841317199074 1.9999999999999998
  endloop
endfacet
facet normal -0.9934274180406361 -0.11446381561487126 0.0
  outer loop
    vertex 82.82250419646506 17.255841317199074 0.0
    vertex 82.56225409760728 18.294033787893234 1.9999999999999998
    vertex 82.56225409760728 18.294033787893234 0.0
  endloop
endfacet
facet normal -0.8031014730317397 -0.595842281156893 0.0
  outer loop
    vertex 82.04216782192859 19.22949302592137 1.9999999999999998
    vertex 82.56225409760728 18.294033787893234 0.0
    vertex 82.56225409760728 18.294033787893234 1.9999999999999998
  endloop
endfacet
facet normal -0.9299517841728866 -0.3676814913939303 0.0
  outer loop
    vertex 82.56225409760728 18.294033787893234 0.0
    vertex 82.04216782192859 19.22949302592137 1.9999999999999998
    vertex 82.04216782192859 19.22949302592137 0.0
  endloop
endfacet
facet normal -0.6215211236914145 -0.7833974041349394 0.0
  outer loop
    vertex 81.29768838963325 19.998469030131353 1.9999999999999998
    vertex 82.04216782192859 19.22949302592137 0.0
    vertex 82.04216782192859 19.22949302592137 1.9999999999999998
  endloop
endfacet
facet normal -0.8031014730317397 -0.595842281156893 0.0
  outer loop
    vertex 82.04216782192859 19.22949302592137 0.0
    vertex 81.29768838963325 19.998469030131353 1.9999999999999998
    vertex 81.29768838963325 19.998469030131353 0.0
  endloop
endfacet
facet normal -0.6215211236914145 -0.7833974041349394 0.0
  outer loop
    vertex 81.29768838963325 19.998469030131353 1.9999999999999998
    vertex 80.3795508437218 20.548557356629207 0.0
    vertex 81.29768838963325 19.998469030131353 0.0
  endloop
endfacet
facet normal -0.3975851368837417 -0.9175652886466098 0.0
  outer loop
    vertex 80.3795508437218 20.548557356629207 0.0
    vertex 81.29768838963325 19.998469030131353 1.9999999999999998
    vertex 80.3795508437218 20.548557356629207 1.9999999999999998
  endloop
endfacet
facet normal -0.3975851368837417 -0.9175652886466098 0.0
  outer loop
    vertex 80.3795508437218 20.548557356629207 1.9999999999999998
    vertex 79.35032474065403 20.842270395028034 0.0
    vertex 80.3795508437218 20.548557356629207 0.0
  endloop
endfacet
facet normal -0.1465543800379471 -0.989202615085349 0.0
  outer loop
    vertex 79.35032474065403 20.842270395028034 0.0
    vertex 80.3795508437218 20.548557356629207 1.9999999999999998
    vertex 79.35032474065403 20.842270395028034 1.9999999999999998
  endloop
endfacet
facet normal -0.1465543800379471 -0.989202615085349 0.0
  outer loop
    vertex 79.35032474065403 20.842270395028034 1.9999999999999998
    vertex 78.28015013847748 20.859592087144716 0.0
    vertex 79.35032474065403 20.842270395028034 0.0
  endloop
endfacet
facet normal 0.11446381561487119 -0.9934274180406361 0.0
  outer loop
    vertex 78.28015013847748 20.859592087144716 0.0
    vertex 79.35032474065403 20.842270395028034 1.9999999999999998
    vertex 78.28015013847748 20.859592087144716 1.9999999999999998
  endloop
endfacet
facet normal 0.11446381561487119 -0.9934274180406361 0.0
  outer loop
    vertex 78.28015013847748 20.859592087144716 1.9999999999999998
    vertex 77.24195766778332 20.599341988286934 0.0
    vertex 78.28015013847748 20.859592087144716 0.0
  endloop
endfacet
facet normal 0.3676814913939362 -0.9299517841728844 0.0
  outer loop
    vertex 77.24195766778332 20.599341988286934 0.0
    vertex 78.28015013847748 20.859592087144716 1.9999999999999998
    vertex 77.24195766778332 20.599341988286934 1.9999999999999998
  endloop
endfacet
facet normal 0.3676814913939362 -0.9299517841728844 0.0
  outer loop
    vertex 77.24195766778332 20.599341988286934 1.9999999999999998
    vertex 76.3064984297552 20.07925571260823 0.0
    vertex 77.24195766778332 20.599341988286934 0.0
  endloop
endfacet
facet normal 0.5958422811568943 -0.8031014730317388 0.0
  outer loop
    vertex 76.3064984297552 20.07925571260823 0.0
    vertex 77.24195766778332 20.599341988286934 1.9999999999999998
    vertex 76.3064984297552 20.07925571260823 1.9999999999999998
  endloop
endfacet
facet normal 0.5958422811568943 -0.8031014730317388 0.0
  outer loop
    vertex 76.3064984297552 20.07925571260823 1.9999999999999998
    vertex 75.5375224255452 19.33477628031291 0.0
    vertex 76.3064984297552 20.07925571260823 0.0
  endloop
endfacet
facet normal 0.7833974041349369 -0.6215211236914175 0.0
  outer loop
    vertex 75.5375224255452 19.33477628031291 0.0
    vertex 76.3064984297552 20.07925571260823 1.9999999999999998
    vertex 75.5375224255452 19.33477628031291 1.9999999999999998
  endloop
endfacet
facet normal 0.7833974041349369 -0.6215211236914175 0.0
  outer loop
    vertex 75.5375224255452 19.33477628031291 0.0
    vertex 74.98743409904735 18.41663873440145 1.9999999999999998
    vertex 74.98743409904735 18.41663873440145 0.0
  endloop
endfacet
facet normal 0.9175652886466089 -0.3975851368837436 0.0
  outer loop
    vertex 74.98743409904735 18.41663873440145 1.9999999999999998
    vertex 75.5375224255452 19.33477628031291 0.0
    vertex 75.5375224255452 19.33477628031291 1.9999999999999998
  endloop
endfacet
facet normal 0.9175652886466089 -0.3975851368837436 0.0
  outer loop
    vertex 74.98743409904735 18.41663873440145 0.0
    vertex 74.69372106064853 17.38741263133369 1.9999999999999998
    vertex 74.69372106064853 17.38741263133369 0.0
  endloop
endfacet
facet normal 0.9892026150853492 -0.14655438003794446 0.0
  outer loop
    vertex 74.69372106064853 17.38741263133369 1.9999999999999998
    vertex 74.98743409904735 18.41663873440145 0.0
    vertex 74.98743409904735 18.41663873440145 1.9999999999999998
  endloop
endfacet
facet normal 0.9892026150853492 -0.14655438003794446 0.0
  outer loop
    vertex 74.69372106064853 17.38741263133369 0.0
    vertex 74.67639936853185 16.31723802915714 1.9999999999999998
    vertex 74.67639936853185 16.31723802915714 0.0
  endloop
endfacet
facet normal 0.9934274180406361 0.11446381561487126 0.0
  outer loop
    vertex 74.67639936853185 16.31723802915714 1.9999999999999998
    vertex 74.69372106064853 17.38741263133369 0.0
    vertex 74.69372106064853 17.38741263133369 1.9999999999999998
  endloop
endfacet
facet normal 0.9934274180406361 0.11446381561487126 0.0
  outer loop
    vertex 74.67639936853185 16.31723802915714 0.0
    vertex 74.93664946738963 15.279045558462979 1.9999999999999998
    vertex 74.93664946738963 15.279045558462979 0.0
  endloop
endfacet
facet normal 0.9299517841728862 0.36768149139393164 0.0
  outer loop
    vertex 74.93664946738963 15.279045558462979 1.9999999999999998
    vertex 74.67639936853185 16.31723802915714 0.0
    vertex 74.67639936853185 16.31723802915714 1.9999999999999998
  endloop
endfacet
facet normal 0.9299517841728862 0.36768149139393164 0.0
  outer loop
    vertex 74.93664946738963 15.279045558462979 0.0
    vertex 75.45673574306832 14.343586320434847 1.9999999999999998
    vertex 75.45673574306832 14.343586320434847 0.0
  endloop
endfacet
facet normal 0.8031014730317395 0.5958422811568932 0.0
  outer loop
    vertex 75.45673574306832 14.343586320434847 1.9999999999999998
    vertex 74.93664946738963 15.279045558462979 0.0
    vertex 74.93664946738963 15.279045558462979 1.9999999999999998
  endloop
endfacet
facet normal 0.8031014730317395 0.5958422811568932 0.0
  outer loop
    vertex 75.45673574306832 14.343586320434847 0.0
    vertex 76.20121517536366 13.574610316224861 1.9999999999999998
    vertex 76.20121517536366 13.574610316224861 0.0
  endloop
endfacet
facet normal 0.6215211236914152 0.7833974041349389 0.0
  outer loop
    vertex 76.20121517536366 13.574610316224861 1.9999999999999998
    vertex 75.45673574306832 14.343586320434847 0.0
    vertex 75.45673574306832 14.343586320434847 1.9999999999999998
  endloop
endfacet
facet normal 0.6215211236914152 0.7833974041349389 0.0
  outer loop
    vertex 76.20121517536366 13.574610316224861 1.9999999999999998
    vertex 77.1193527212751 13.024521989727011 0.0
    vertex 76.20121517536366 13.574610316224861 0.0
  endloop
endfacet
facet normal 0.3975851368837427 0.9175652886466094 0.0
  outer loop
    vertex 77.1193527212751 13.024521989727011 0.0
    vertex 76.20121517536366 13.574610316224861 1.9999999999999998
    vertex 77.1193527212751 13.024521989727011 1.9999999999999998
  endloop
endfacet
facet normal 0.3975851368837427 0.9175652886466094 0.0
  outer loop
    vertex 77.1193527212751 13.024521989727011 1.9999999999999998
    vertex 78.14857882434288 12.730808951328179 0.0
    vertex 77.1193527212751 13.024521989727011 0.0
  endloop
endfacet
facet normal 0.14655438003794827 0.9892026150853487 0.0
  outer loop
    vertex 78.14857882434288 12.730808951328179 0.0
    vertex 77.1193527212751 13.024521989727011 1.9999999999999998
    vertex 78.14857882434288 12.730808951328179 1.9999999999999998
  endloop
endfacet
facet normal 0.14655438003794827 0.9892026150853487 0.0
  outer loop
    vertex 78.14857882434288 12.730808951328179 1.9999999999999998
    vertex 79.21875342651943 12.7134872592115 0.0
    vertex 78.14857882434288 12.730808951328179 0.0
  endloop
endfacet
facet normal -0.11446381561486992 0.9934274180406364 0.0
  outer loop
    vertex 79.21875342651943 12.7134872592115 0.0
    vertex 78.14857882434288 12.730808951328179 1.9999999999999998
    vertex 79.21875342651943 12.7134872592115 1.9999999999999998
  endloop
endfacet
facet normal -0.11446381561486992 0.9934274180406364 0.0
  outer loop
    vertex 79.21875342651943 12.7134872592115 1.9999999999999998
    vertex 80.25694589721358 12.973737358069277 0.0
    vertex 79.21875342651943 12.7134872592115 0.0
  endloop
endfacet
facet normal -0.36768149139393486 0.9299517841728848 0.0
  outer loop
    vertex 80.25694589721358 12.973737358069277 0.0
    vertex 79.21875342651943 12.7134872592115 1.9999999999999998
    vertex 80.25694589721358 12.973737358069277 1.9999999999999998
  endloop
endfacet
facet normal -0.36768149139393486 0.9299517841728848 0.0
  outer loop
    vertex 80.25694589721358 12.973737358069277 1.9999999999999998
    vertex 81.19240513524171 13.49382363374798 0.0
    vertex 80.25694589721358 12.973737358069277 0.0
  endloop
endfacet
facet normal -0.5958422811568949 0.8031014730317383 0.0
  outer loop
    vertex 81.19240513524171 13.49382363374798 0.0
    vertex 80.25694589721358 12.973737358069277 1.9999999999999998
    vertex 81.19240513524171 13.49382363374798 1.9999999999999998
  endloop
endfacet
facet normal -0.5958422811568949 0.8031014730317383 0.0
  outer loop
    vertex 81.19240513524171 13.49382363374798 1.9999999999999998
    vertex 81.9613811394517 14.238303066043306 0.0
    vertex 81.19240513524171 13.49382363374798 0.0
  endloop
endfacet
facet normal -0.7833974041349374 0.6215211236914169 0.0
  outer loop
    vertex 81.9613811394517 14.238303066043306 0.0
    vertex 81.19240513524171 13.49382363374798 1.9999999999999998
    vertex 81.9613811394517 14.238303066043306 1.9999999999999998
  endloop
endfacet
facet normal -0.9175652886466089 0.3975851368837436 0.0
  outer loop
    vertex 82.51146946594955 15.156440611954764 1.9999999999999998
    vertex 81.9613811394517 14.238303066043306 0.0
    vertex 81.9613811394517 14.238303066043306 1.9999999999999998
  endloop
endfacet
facet normal -0.7833974041349374 0.6215211236914169 0.0
  outer loop
    vertex 81.9613811394517 14.238303066043306 0.0
    vertex 82.51146946594955 15.156440611954764 1.9999999999999998
    vertex 82.51146946594955 15.156440611954764 0.0
  endloop
endfacet
facet normal -0.9892026150853492 0.14655438003794446 0.0
  outer loop
    vertex 82.80518250434838 16.185666715022524 1.9999999999999998
    vertex 82.51146946594955 15.156440611954764 0.0
    vertex 82.51146946594955 15.156440611954764 1.9999999999999998
  endloop
endfacet
facet normal -0.9175652886466089 0.3975851368837436 0.0
  outer loop
    vertex 82.51146946594955 15.156440611954764 0.0
    vertex 82.80518250434838 16.185666715022524 1.9999999999999998
    vertex 82.80518250434838 16.185666715022524 0.0
  endloop
endfacet
facet normal -1.0 0.0 0.0
  outer loop
    vertex 66.77604271396795 24.800841672235027 1.9999999999999998
    vertex 66.77604271396795 7.550841672235024 0.0
    vertex 66.77604271396795 7.550841672235024 1.9999999999999998
  endloop
endfacet
facet normal -1.0 0.0 0.0
  outer loop
    vertex 66.77604271396795 7.550841672235024 0.0
    vertex 66.77604271396795 24.800841672235027 1.9999999999999998
    vertex 66.77604271396795 24.800841672235027 0.0
  endloop
endfacet
facet normal 0.0 -1.0 0.0
  outer loop
    vertex 66.77604271396795 24.800841672235027 1.9999999999999998
    vertex 50.97604271396795 24.800841672235027 0.0
    vertex 66.77604271396795 24.800841672235027 0.0
  endloop
endfacet
facet normal 0.0 -1.0 0.0
  outer loop
    vertex 50.97604271396795 24.800841672235027 0.0
    vertex 66.77604271396795 24.800841672235027 1.9999999999999998
    vertex 50.97604271396795 24.800841672235027 1.9999999999999998
  endloop
endfacet
facet normal 1.0 -0.0 -0.0
  outer loop
    vertex 50.97604271396795 24.800841672235027 0.0
    vertex 50.97604271396795 7.550841672235024 1.9999999999999998
    vertex 50.97604271396795 7.550841672235024 0.0
  endloop
endfacet
facet normal 1.0 -0.0 -0.0
  outer loop
    vertex 50.97604271396795 7.550841672235024 1.9999999999999998
    vertex 50.97604271396795 24.800841672235027 0.0
    vertex 50.97604271396795 24.800841672235027 1.9999999999999998
  endloop
endfacet
facet normal -0.0 1.0 -0.0
  outer loop
    vertex 50.97604271396795 7.550841672235024 1.9999999999999998
    vertex 66.77604271396795 7.550841672235024 0.0
    vertex 50.97604271396795 7.550841672235024 0.0
  endloop
endfacet
facet normal -0.0 1.0 -0.0
  outer loop
    vertex 66.77604271396795 7.550841672235024 0.0
    vertex 50.97604271396795 7.550841672235024 1.9999999999999998
    vertex 66.77604271396795 7.550841672235024 1.9999999999999998
  endloop
endfacet
facet normal -1.0 0.0 0.0
  outer loop
    vertex 40.91414682098071 21.893949057814662 1.9999999999999998
    vertex 40.91414682098071 11.893949057814662 0.0
    vertex 40.91414682098071 11.893949057814662 1.9999999999999998
  endloop
endfacet
facet normal -1.0 0.0 0.0
  outer loop
    vertex 40.91414682098071 11.893949057814662 0.0
    vertex 40.91414682098071 21.893949057814662 1.9999999999999998
    vertex 40.91414682098071 21.893949057814662 0.0
  endloop
endfacet
facet normal 0.0 -1.0 0.0
  outer loop
    vertex 40.91414682098071 21.893949057814662 1.9999999999999998
    vertex 27.114146820980714 21.893949057814662 0.0
    vertex 40.91414682098071 21.893949057814662 0.0
  endloop
endfacet
facet normal 0.0 -1.0 0.0
  outer loop
    vertex 27.114146820980714 21.893949057814662 0.0
    vertex 40.91414682098071 21.893949057814662 1.9999999999999998
    vertex 27.114146820980714 21.893949057814662 1.9999999999999998
  endloop
endfacet
facet normal 1.0 -0.0 -0.0
  outer loop
    vertex 27.114146820980714 21.893949057814662 0.0
    vertex 27.114146820980714 11.893949057814662 1.9999999999999998
    vertex 27.114146820980714 11.893949057814662 0.0
  endloop
endfacet
facet normal 1.0 -0.0 -0.0
  outer loop
    vertex 27.114146820980714 11.893949057814662 1.9999999999999998
    vertex 27.114146820980714 21.893949057814662 0.0
    vertex 27.114146820980714 21.893949057814662 1.9999999999999998
  endloop
endfacet
facet normal -0.0 1.0 -0.0
  outer loop
    vertex 27.114146820980714 11.893949057814662 1.9999999999999998
    vertex 40.91414682098071 11.893949057814662 0.0
    vertex 27.114146820980714 11.893949057814662 0.0
  endloop
endfacet
facet normal -0.0 1.0 -0.0
  outer loop
    vertex 40.91414682098071 11.893949057814662 0.0
    vertex 27.114146820980714 11.893949057814662 1.9999999999999998
    vertex 40.91414682098071 11.893949057814662 1.9999999999999998
  endloop
endfacet
facet normal 0.0 -1.0 0.0
  outer loop
    vertex 104.85 21.65000000000001 1.9999999999999998
    vertex 104.42294857558085 21.59377761337697 0.0
    vertex 104.85 21.65000000000001 0.0
  endloop
endfacet
facet normal 0.2588190451025161 -0.9659258262890696 0.0
  outer loop
    vertex 104.42294857558085 21.59377761337697 0.0
    vertex 104.85 21.65000000000001 1.9999999999999998
    vertex 104.42294857558085 21.59377761337697 1.9999999999999998
  endloop
endfacet
facet normal 0.2588190451025161 -0.9659258262890696 0.0
  outer loop
    vertex 104.42294857558085 21.59377761337697 1.9999999999999998
    vertex 104.02499999999998 21.42894191624433 0.0
    vertex 104.42294857558085 21.59377761337697 0.0
  endloop
endfacet
facet normal 0.5000000000000049 -0.8660254037844359 0.0
  outer loop
    vertex 104.02499999999998 21.42894191624433 0.0
    vertex 104.42294857558085 21.59377761337697 1.9999999999999998
    vertex 104.02499999999998 21.42894191624433 1.9999999999999998
  endloop
endfacet
facet normal 0.5000000000000049 -0.8660254037844359 0.0
  outer loop
    vertex 104.02499999999998 21.42894191624433 1.9999999999999998
    vertex 103.6832738110422 21.16672618895781 0.0
    vertex 104.02499999999998 21.42894191624433 0.0
  endloop
endfacet
facet normal 0.7071067811865488 -0.7071067811865465 0.0
  outer loop
    vertex 103.6832738110422 21.16672618895781 0.0
    vertex 104.02499999999998 21.42894191624433 1.9999999999999998
    vertex 103.6832738110422 21.16672618895781 1.9999999999999998
  endloop
endfacet
facet normal 0.7071067811865488 -0.7071067811865465 0.0
  outer loop
    vertex 103.6832738110422 21.16672618895781 0.0
    vertex 103.42105808375567 20.825000000000003 1.9999999999999998
    vertex 103.42105808375567 20.825000000000003 0.0
  endloop
endfacet
facet normal 0.866025403784441 -0.4999999999999958 0.0
  outer loop
    vertex 103.42105808375567 20.825000000000003 1.9999999999999998
    vertex 103.6832738110422 21.16672618895781 0.0
    vertex 103.6832738110422 21.16672618895781 1.9999999999999998
  endloop
endfacet
facet normal 0.866025403784441 -0.4999999999999958 0.0
  outer loop
    vertex 103.42105808375567 20.825000000000003 0.0
    vertex 103.25622238662304 20.42705142441916 1.9999999999999998
    vertex 103.25622238662304 20.42705142441916 0.0
  endloop
endfacet
facet normal 0.9659258262890694 -0.2588190451025164 0.0
  outer loop
    vertex 103.25622238662304 20.42705142441916 1.9999999999999998
    vertex 103.42105808375567 20.825000000000003 0.0
    vertex 103.42105808375567 20.825000000000003 1.9999999999999998
  endloop
endfacet
facet normal 0.9659258262890694 -0.2588190451025164 0.0
  outer loop
    vertex 103.25622238662304 20.42705142441916 0.0
    vertex 103.19999999999999 20.0 1.9999999999999998
    vertex 103.19999999999999 20.0 0.0
  endloop
endfacet
facet normal 1.0 0.0 0.0
  outer loop
    vertex 103.19999999999999 20.0 1.9999999999999998
    vertex 103.25622238662304 20.42705142441916 0.0
    vertex 103.25622238662304 20.42705142441916 1.9999999999999998
  endloop
endfacet
facet normal 1.0 0.0 0.0
  outer loop
    vertex 103.19999999999999 20.0 0.0
    vertex 103.25622238662304 19.57294857558084 1.9999999999999998
    vertex 103.25622238662304 19.57294857558084 0.0
  endloop
endfacet
facet normal 0.9659258262890694 0.2588190451025164 0.0
  outer loop
    vertex 103.25622238662304 19.57294857558084 1.9999999999999998
    vertex 103.19999999999999 20.0 0.0
    vertex 103.19999999999999 20.0 1.9999999999999998
  endloop
endfacet
facet normal 0.9659258262890694 0.2588190451025164 0.0
  outer loop
    vertex 103.25622238662304 19.57294857558084 0.0
    vertex 103.42105808375567 19.174999999999997 1.9999999999999998
    vertex 103.42105808375567 19.174999999999997 0.0
  endloop
endfacet
facet normal 0.866025403784441 0.4999999999999958 0.0
  outer loop
    vertex 103.42105808375567 19.174999999999997 1.9999999999999998
    vertex 103.25622238662304 19.57294857558084 0.0
    vertex 103.25622238662304 19.57294857558084 1.9999999999999998
  endloop
endfacet
facet normal 0.866025403784441 0.4999999999999958 0.0
  outer loop
    vertex 103.42105808375567 19.174999999999997 0.0
    vertex 103.6832738110422 18.83327381104219 1.9999999999999998
    vertex 103.6832738110422 18.83327381104219 0.0
  endloop
endfacet
facet normal 0.7071067811865375 0.7071067811865577 0.0
  outer loop
    vertex 103.6832738110422 18.83327381104219 1.9999999999999998
    vertex 103.42105808375567 19.174999999999997 0.0
    vertex 103.42105808375567 19.174999999999997 1.9999999999999998
  endloop
endfacet
facet normal 0.7071067811865375 0.7071067811865577 0.0
  outer loop
    vertex 103.6832738110422 18.83327381104219 1.9999999999999998
    vertex 104.025 18.57105808375567 0.0
    vertex 103.6832738110422 18.83327381104219 0.0
  endloop
endfacet
facet normal 0.4999999999999998 0.8660254037844389 0.0
  outer loop
    vertex 104.025 18.57105808375567 0.0
    vertex 103.6832738110422 18.83327381104219 1.9999999999999998
    vertex 104.025 18.57105808375567 1.9999999999999998
  endloop
endfacet
facet normal 0.4999999999999998 0.8660254037844389 0.0
  outer loop
    vertex 104.025 18.57105808375567 1.9999999999999998
    vertex 104.42294857558085 18.40622238662303 0.0
    vertex 104.025 18.57105808375567 0.0
  endloop
endfacet
facet normal 0.25881904510252574 0.9659258262890671 0.0
  outer loop
    vertex 104.42294857558085 18.40622238662303 0.0
    vertex 104.025 18.57105808375567 1.9999999999999998
    vertex 104.42294857558085 18.40622238662303 1.9999999999999998
  endloop
endfacet
facet normal 0.25881904510252574 0.9659258262890671 0.0
  outer loop
    vertex 104.42294857558085 18.40622238662303 1.9999999999999998
    vertex 104.85 18.34999999999999 0.0
    vertex 104.42294857558085 18.40622238662303 0.0
  endloop
endfacet
facet normal 0.0 1.0 0.0
  outer loop
    vertex 104.85 18.34999999999999 0.0
    vertex 104.42294857558085 18.40622238662303 1.9999999999999998
    vertex 104.85 18.34999999999999 1.9999999999999998
  endloop
endfacet
facet normal 0.0 1.0 0.0
  outer loop
    vertex 104.85 18.34999999999999 1.9999999999999998
    vertex 105.27705142441916 18.40622238662303 0.0
    vertex 104.85 18.34999999999999 0.0
  endloop
endfacet
facet normal -0.2588190451025161 0.9659258262890696 0.0
  outer loop
    vertex 105.27705142441916 18.40622238662303 0.0
    vertex 104.85 18.34999999999999 1.9999999999999998
    vertex 105.27705142441916 18.40622238662303 1.9999999999999998
  endloop
endfacet
facet normal -0.2588190451025161 0.9659258262890696 0.0
  outer loop
    vertex 105.27705142441916 18.40622238662303 1.9999999999999998
    vertex 105.67500000000001 18.57105808375567 0.0
    vertex 105.27705142441916 18.40622238662303 0.0
  endloop
endfacet
facet normal -0.5000000000000049 0.8660254037844359 0.0
  outer loop
    vertex 105.67500000000001 18.57105808375567 0.0
    vertex 105.27705142441916 18.40622238662303 1.9999999999999998
    vertex 105.67500000000001 18.57105808375567 1.9999999999999998
  endloop
endfacet
facet normal -0.5000000000000049 0.8660254037844359 0.0
  outer loop
    vertex 105.67500000000001 18.57105808375567 1.9999999999999998
    vertex 106.0167261889578 18.83327381104219 0.0
    vertex 105.67500000000001 18.57105808375567 0.0
  endloop
endfacet
facet normal -0.7071067811865488 0.7071067811865465 0.0
  outer loop
    vertex 106.0167261889578 18.83327381104219 0.0
    vertex 105.67500000000001 18.57105808375567 1.9999999999999998
    vertex 106.0167261889578 18.83327381104219 1.9999999999999998
  endloop
endfacet
facet normal -0.866025403784441 0.4999999999999958 0.0
  outer loop
    vertex 106.27894191624434 19.174999999999997 1.9999999999999998
    vertex 106.0167261889578 18.83327381104219 0.0
    vertex 106.0167261889578 18.83327381104219 1.9999999999999998
  endloop
endfacet
facet normal -0.7071067811865488 0.7071067811865465 0.0
  outer loop
    vertex 106.0167261889578 18.83327381104219 0.0
    vertex 106.27894191624434 19.174999999999997 1.9999999999999998
    vertex 106.27894191624434 19.174999999999997 0.0
  endloop
endfacet
facet normal -0.9659258262890694 0.2588190451025164 0.0
  outer loop
    vertex 106.44377761337697 19.57294857558084 1.9999999999999998
    vertex 106.27894191624434 19.174999999999997 0.0
    vertex 106.27894191624434 19.174999999999997 1.9999999999999998
  endloop
endfacet
facet normal -0.866025403784441 0.4999999999999958 0.0
  outer loop
    vertex 106.27894191624434 19.174999999999997 0.0
    vertex 106.44377761337697 19.57294857558084 1.9999999999999998
    vertex 106.44377761337697 19.57294857558084 0.0
  endloop
endfacet
facet normal -1.0 -1.782221979129385e-17 0.0
  outer loop
    vertex 106.50000000000001 20.0 1.9999999999999998
    vertex 106.44377761337697 19.57294857558084 0.0
    vertex 106.44377761337697 19.57294857558084 1.9999999999999998
  endloop
endfacet
facet normal -0.9659258262890694 0.2588190451025164 0.0
  outer loop
    vertex 106.44377761337697 19.57294857558084 0.0
    vertex 106.50000000000001 20.0 1.9999999999999998
    vertex 106.50000000000001 20.0 0.0
  endloop
endfacet
facet normal -0.9659258262890694 -0.25881904510251647 0.0
  outer loop
    vertex 106.44377761337697 20.42705142441916 1.9999999999999998
    vertex 106.50000000000001 20.0 0.0
    vertex 106.50000000000001 20.0 1.9999999999999998
  endloop
endfacet
facet normal -1.0 -1.782221979129385e-17 0.0
  outer loop
    vertex 106.50000000000001 20.0 0.0
    vertex 106.44377761337697 20.42705142441916 1.9999999999999998
    vertex 106.44377761337697 20.42705142441916 0.0
  endloop
endfacet
facet normal -0.866025403784441 -0.4999999999999958 0.0
  outer loop
    vertex 106.27894191624434 20.825000000000003 1.9999999999999998
    vertex 106.44377761337697 20.42705142441916 0.0
    vertex 106.44377761337697 20.42705142441916 1.9999999999999998
  endloop
endfacet
facet normal -0.9659258262890694 -0.25881904510251647 0.0
  outer loop
    vertex 106.44377761337697 20.42705142441916 0.0
    vertex 106.27894191624434 20.825000000000003 1.9999999999999998
    vertex 106.27894191624434 20.825000000000003 0.0
  endloop
endfacet
facet normal -0.7071067811865391 -0.7071067811865558 0.0
  outer loop
    vertex 106.0167261889578 21.16672618895781 1.9999999999999998
    vertex 106.27894191624434 20.825000000000003 0.0
    vertex 106.27894191624434 20.825000000000003 1.9999999999999998
  endloop
endfacet
facet normal -0.866025403784441 -0.4999999999999958 0.0
  outer loop
    vertex 106.27894191624434 20.825000000000003 0.0
    vertex 106.0167261889578 21.16672618895781 1.9999999999999998
    vertex 106.0167261889578 21.16672618895781 0.0
  endloop
endfacet
facet normal -0.7071067811865391 -0.7071067811865558 0.0
  outer loop
    vertex 106.0167261889578 21.16672618895781 1.9999999999999998
    vertex 105.675 21.428941916244334 0.0
    vertex 106.0167261889578 21.16672618895781 0.0
  endloop
endfacet
facet normal -0.4999999999999994 -0.8660254037844392 0.0
  outer loop
    vertex 105.675 21.428941916244334 0.0
    vertex 106.0167261889578 21.16672618895781 1.9999999999999998
    vertex 105.675 21.428941916244334 1.9999999999999998
  endloop
endfacet
facet normal -0.4999999999999994 -0.8660254037844392 0.0
  outer loop
    vertex 105.675 21.428941916244334 1.9999999999999998
    vertex 105.27705142441916 21.59377761337697 0.0
    vertex 105.675 21.428941916244334 0.0
  endloop
endfacet
facet normal -0.2588190451025228 -0.9659258262890678 0.0
  outer loop
    vertex 105.27705142441916 21.59377761337697 0.0
    vertex 105.675 21.428941916244334 1.9999999999999998
    vertex 105.27705142441916 21.59377761337697 1.9999999999999998
  endloop
endfacet
facet normal -0.2588190451025228 -0.9659258262890678 0.0
  outer loop
    vertex 105.27705142441916 21.59377761337697 1.9999999999999998
    vertex 104.85 21.65000000000001 0.0
    vertex 105.27705142441916 21.59377761337697 0.0
  endloop
endfacet
facet normal 0.0 -1.0 0.0
  outer loop
    vertex 104.85 21.65000000000001 0.0
    vertex 105.27705142441916 21.59377761337697 1.9999999999999998
    vertex 104.85 21.65000000000001 1.9999999999999998
  endloop
endfacet
facet normal -0.0 -0.0 1.0
  outer loop
    vertex 9.999999999999996 20.0 3.9999999999999996
    vertex 5.999999999999997 24.0 3.9999999999999996
    vertex 5.999999999999997 20.0 3.9999999999999996
  endloop
endfacet
facet normal -0.0 -0.0 1.0
  outer loop
    vertex 5.999999999999997 24.0 3.9999999999999996
    vertex 9.999999999999996 20.0 3.9999999999999996
    vertex 9.999999999999996 24.0 3.9999999999999996
  endloop
endfacet
facet normal -0.0 1.0 -0.0
  outer loop
    vertex 5.999999999999997 24.0 3.9999999999999996
    vertex 9.999999999999996 24.0 1.9999999999999998
    vertex 5.999999999999997 24.0 1.9999999999999998
  endloop
endfacet
facet normal -0.0 1.0 -0.0
  outer loop
    vertex 9.999999999999996 24.0 1.9999999999999998
    vertex 5.999999999999997 24.0 3.9999999999999996
    vertex 9.999999999999996 24.0 3.9999999999999996
  endloop
endfacet
facet normal -1.0 0.0 0.0
  outer loop
    vertex 5.999999999999997 24.0 3.9999999999999996
    vertex 5.999999999999997 20.0 1.9999999999999998
    vertex 5.999999999999997 20.0 3.9999999999999996
  endloop
endfacet
facet normal -1.0 0.0 0.0
  outer loop
    vertex 5.999999999999997 20.0 1.9999999999999998
    vertex 5.999999999999997 24.0 3.9999999999999996
    vertex 5.999999999999997 24.0 1.9999999999999998
  endloop
endfacet
facet normal 0.0 -1.0 0.0
  outer loop
    vertex 9.999999999999996 20.0 3.9999999999999996
    vertex 5.999999999999997 20.0 1.9999999999999998
    vertex 9.999999999999996 20.0 1.9999999999999998
  endloop
endfacet
facet normal 0.0 -1.0 0.0
  outer loop
    vertex 5.999999999999997 20.0 1.9999999999999998
    vertex 9.999999999999996 20.0 3.9999999999999996
    vertex 5.999999999999997 20.0 3.9999999999999996
  endloop
endfacet
facet normal 1.0 -0.0 -0.0
  outer loop
    vertex 9.999999999999996 24.0 1.9999999999999998
    vertex 9.999999999999996 20.0 3.9999999999999996
    vertex 9.999999999999996 20.0 1.9999999999999998
  endloop
endfacet
facet normal 1.0 -0.0 -0.0
  outer loop
    vertex 9.999999999999996 20.0 3.9999999999999996
    vertex 9.999999999999996 24.0 1.9999999999999998
    vertex 9.999999999999996 24.0 3.9999999999999996
  endloop
endfacet
facet normal 0.9659258262890681 -0.2588190451025211 0.0
  outer loop
    vertex 6.0562223866230385 98.42705142441916 0.0
    vertex 5.999999999999999 98.0 1.9999999999999998
    vertex 5.999999999999999 98.0 0.0
  endloop
endfacet
facet normal 1.0 0.0 0.0
  outer loop
    vertex 5.999999999999999 98.0 1.9999999999999998
    vertex 6.0562223866230385 98.42705142441916 0.0
    vertex 6.0562223866230385 98.42705142441916 1.9999999999999998
  endloop
endfacet
facet normal 1.0 0.0 0.0
  outer loop
    vertex 5.999999999999999 98.0 0.0
    vertex 6.0562223866230385 97.57294857558084 1.9999999999999998
    vertex 6.0562223866230385 97.57294857558084 0.0
  endloop
endfacet
facet normal 0.9659258262890681 0.2588190451025211 0.0
  outer loop
    vertex 6.0562223866230385 97.57294857558084 1.9999999999999998
    vertex 5.999999999999999 98.0 0.0
    vertex 5.999999999999999 98.0 1.9999999999999998
  endloop
endfacet
facet normal 0.9659258262890681 0.2588190451025211 0.0
  outer loop
    vertex 6.0562223866230385 97.57294857558084 0.0
    vertex 6.221058083755677 97.175 1.9999999999999998
    vertex 6.221058083755677 97.175 0.0
  endloop
endfacet
facet normal 0.8660254037844388 0.4999999999999996 0.0
  outer loop
    vertex 6.221058083755677 97.175 1.9999999999999998
    vertex 6.0562223866230385 97.57294857558084 0.0
    vertex 6.0562223866230385 97.57294857558084 1.9999999999999998
  endloop
endfacet
facet normal 0.8660254037844388 0.4999999999999996 0.0
  outer loop
    vertex 6.221058083755677 97.175 0.0
    vertex 6.4832738110421975 96.83327381104219 1.9999999999999998
    vertex 6.4832738110421975 96.83327381104219 0.0
  endloop
endfacet
facet normal 0.7071067811865468 0.7071067811865481 0.0
  outer loop
    vertex 6.4832738110421975 96.83327381104219 1.9999999999999998
    vertex 6.221058083755677 97.175 0.0
    vertex 6.221058083755677 97.175 1.9999999999999998
  endloop
endfacet
facet normal 0.7071067811865468 0.7071067811865481 0.0
  outer loop
    vertex 6.4832738110421975 96.83327381104219 1.9999999999999998
    vertex 6.824999999999998 96.57105808375567 0.0
    vertex 6.4832738110421975 96.83327381104219 0.0
  endloop
endfacet
facet normal 0.500000000000001 0.8660254037844382 0.0
  outer loop
    vertex 6.824999999999998 96.57105808375567 0.0
    vertex 6.4832738110421975 96.83327381104219 1.9999999999999998
    vertex 6.824999999999998 96.57105808375567 1.9999999999999998
  endloop
endfacet
facet normal 0.500000000000001 0.8660254037844382 0.0
  outer loop
    vertex 6.824999999999998 96.57105808375567 1.9999999999999998
    vertex 7.222948575580839 96.40622238662304 0.0
    vertex 6.824999999999998 96.57105808375567 0.0
  endloop
endfacet
facet normal 0.25881904510251724 0.9659258262890693 0.0
  outer loop
    vertex 7.222948575580839 96.40622238662304 0.0
    vertex 6.824999999999998 96.57105808375567 1.9999999999999998
    vertex 7.222948575580839 96.40622238662304 1.9999999999999998
  endloop
endfacet
facet normal 0.25881904510251724 0.9659258262890693 0.0
  outer loop
    vertex 7.222948575580839 96.40622238662304 1.9999999999999998
    vertex 7.649999999999998 96.35000000000001 0.0
    vertex 7.222948575580839 96.40622238662304 0.0
  endloop
endfacet
facet normal 1.0960665171645682e-15 1.0 0.0
  outer loop
    vertex 7.649999999999998 96.35000000000001 0.0
    vertex 7.222948575580839 96.40622238662304 1.9999999999999998
    vertex 7.649999999999998 96.35000000000001 1.9999999999999998
  endloop
endfacet
facet normal 1.0960665171645682e-15 1.0 0.0
  outer loop
    vertex 7.649999999999998 96.35000000000001 1.9999999999999998
    vertex 8.077051424419164 96.40622238662304 0.0
    vertex 7.649999999999998 96.35000000000001 0.0
  endloop
endfacet
facet normal -0.25881904510251613 0.9659258262890694 0.0
  outer loop
    vertex 8.077051424419164 96.40622238662304 0.0
    vertex 7.649999999999998 96.35000000000001 1.9999999999999998
    vertex 8.077051424419164 96.40622238662304 1.9999999999999998
  endloop
endfacet
facet normal -0.25881904510251613 0.9659258262890694 0.0
  outer loop
    vertex 8.077051424419164 96.40622238662304 1.9999999999999998
    vertex 8.475000000000003 96.57105808375567 0.0
    vertex 8.077051424419164 96.40622238662304 0.0
  endloop
endfacet
facet normal -0.5000000000000018 0.8660254037844376 0.0
  outer loop
    vertex 8.475000000000003 96.57105808375567 0.0
    vertex 8.077051424419164 96.40622238662304 1.9999999999999998
    vertex 8.475000000000003 96.57105808375567 1.9999999999999998
  endloop
endfacet
facet normal -0.5000000000000018 0.8660254037844376 0.0
  outer loop
    vertex 8.475000000000003 96.57105808375567 1.9999999999999998
    vertex 8.816726188957803 96.83327381104219 0.0
    vertex 8.475000000000003 96.57105808375567 0.0
  endloop
endfacet
facet normal -0.7071067811865476 0.7071067811865476 0.0
  outer loop
    vertex 8.816726188957803 96.83327381104219 0.0
    vertex 8.475000000000003 96.57105808375567 1.9999999999999998
    vertex 8.816726188957803 96.83327381104219 1.9999999999999998
  endloop
endfacet
facet normal -0.8660254037844388 0.49999999999999967 0.0
  outer loop
    vertex 9.078941916244323 97.175 1.9999999999999998
    vertex 8.816726188957803 96.83327381104219 0.0
    vertex 8.816726188957803 96.83327381104219 1.9999999999999998
  endloop
endfacet
facet normal -0.7071067811865476 0.7071067811865476 0.0
  outer loop
    vertex 8.816726188957803 96.83327381104219 0.0
    vertex 9.078941916244323 97.175 1.9999999999999998
    vertex 9.078941916244323 97.175 0.0
  endloop
endfacet
facet normal -0.9659258262890681 0.2588190451025211 0.0
  outer loop
    vertex 9.243777613376961 97.57294857558084 1.9999999999999998
    vertex 9.078941916244323 97.175 0.0
    vertex 9.078941916244323 97.175 1.9999999999999998
  endloop
endfacet
facet normal -0.8660254037844388 0.49999999999999967 0.0
  outer loop
    vertex 9.078941916244323 97.175 0.0
    vertex 9.243777613376961 97.57294857558084 1.9999999999999998
    vertex 9.243777613376961 97.57294857558084 0.0
  endloop
endfacet
facet normal -1.0 0.0 0.0
  outer loop
    vertex 9.3 98.0 1.9999999999999998
    vertex 9.243777613376961 97.57294857558084 0.0
    vertex 9.243777613376961 97.57294857558084 1.9999999999999998
  endloop
endfacet
facet normal -0.9659258262890681 0.2588190451025211 0.0
  outer loop
    vertex 9.243777613376961 97.57294857558084 0.0
    vertex 9.3 98.0 1.9999999999999998
    vertex 9.3 98.0 0.0
  endloop
endfacet
facet normal -0.9659258262890681 -0.2588190451025211 0.0
  outer loop
    vertex 9.243777613376961 98.42705142441916 1.9999999999999998
    vertex 9.3 98.0 0.0
    vertex 9.3 98.0 1.9999999999999998
  endloop
endfacet
facet normal -1.0 0.0 0.0
  outer loop
    vertex 9.3 98.0 0.0
    vertex 9.243777613376961 98.42705142441916 1.9999999999999998
    vertex 9.243777613376961 98.42705142441916 0.0
  endloop
endfacet
facet normal -0.8660254037844388 -0.4999999999999996 0.0
  outer loop
    vertex 9.078941916244323 98.825 1.9999999999999998
    vertex 9.243777613376961 98.42705142441916 0.0
    vertex 9.243777613376961 98.42705142441916 1.9999999999999998
  endloop
endfacet
facet normal -0.9659258262890681 -0.2588190451025211 0.0
  outer loop
    vertex 9.243777613376961 98.42705142441916 0.0
    vertex 9.078941916244323 98.825 1.9999999999999998
    vertex 9.078941916244323 98.825 0.0
  endloop
endfacet
facet normal -0.7071067811865476 -0.7071067811865474 0.0
  outer loop
    vertex 8.816726188957803 99.16672618895781 1.9999999999999998
    vertex 9.078941916244323 98.825 0.0
    vertex 9.078941916244323 98.825 1.9999999999999998
  endloop
endfacet
facet normal -0.8660254037844388 -0.4999999999999996 0.0
  outer loop
    vertex 9.078941916244323 98.825 0.0
    vertex 8.816726188957803 99.16672618895781 1.9999999999999998
    vertex 8.816726188957803 99.16672618895781 0.0
  endloop
endfacet
facet normal -0.7071067811865476 -0.7071067811865474 0.0
  outer loop
    vertex 8.816726188957803 99.16672618895781 1.9999999999999998
    vertex 8.475000000000003 99.42894191624433 0.0
    vertex 8.816726188957803 99.16672618895781 0.0
  endloop
endfacet
facet normal -0.5000000000000018 -0.8660254037844376 0.0
  outer loop
    vertex 8.475000000000003 99.42894191624433 0.0
    vertex 8.816726188957803 99.16672618895781 1.9999999999999998
    vertex 8.475000000000003 99.42894191624433 1.9999999999999998
  endloop
endfacet
facet normal -0.5000000000000018 -0.8660254037844376 0.0
  outer loop
    vertex 8.475000000000003 99.42894191624433 1.9999999999999998
    vertex 8.077051424419164 99.59377761337696 0.0
    vertex 8.475000000000003 99.42894191624433 0.0
  endloop
endfacet
facet normal -0.25881904510251613 -0.9659258262890694 0.0
  outer loop
    vertex 8.077051424419164 99.59377761337696 0.0
    vertex 8.475000000000003 99.42894191624433 1.9999999999999998
    vertex 8.077051424419164 99.59377761337696 1.9999999999999998
  endloop
endfacet
facet normal -0.25881904510251613 -0.9659258262890694 0.0
  outer loop
    vertex 8.077051424419164 99.59377761337696 1.9999999999999998
    vertex 7.649999999999998 99.64999999999999 0.0
    vertex 8.077051424419164 99.59377761337696 0.0
  endloop
endfacet
facet normal 1.0960665171645682e-15 -1.0 0.0
  outer loop
    vertex 7.649999999999998 99.64999999999999 0.0
    vertex 8.077051424419164 99.59377761337696 1.9999999999999998
    vertex 7.649999999999998 99.64999999999999 1.9999999999999998
  endloop
endfacet
facet normal 1.0960665171645682e-15 -1.0 0.0
  outer loop
    vertex 7.649999999999998 99.64999999999999 1.9999999999999998
    vertex 7.222948575580839 99.59377761337696 0.0
    vertex 7.649999999999998 99.64999999999999 0.0
  endloop
endfacet
facet normal 0.25881904510251724 -0.9659258262890693 0.0
  outer loop
    vertex 7.222948575580839 99.59377761337696 0.0
    vertex 7.649999999999998 99.64999999999999 1.9999999999999998
    vertex 7.222948575580839 99.59377761337696 1.9999999999999998
  endloop
endfacet
facet normal 0.25881904510251724 -0.9659258262890693 0.0
  outer loop
    vertex 7.222948575580839 99.59377761337696 1.9999999999999998
    vertex 6.824999999999998 99.42894191624433 0.0
    vertex 7.222948575580839 99.59377761337696 0.0
  endloop
endfacet
facet normal 0.500000000000001 -0.8660254037844382 0.0
  outer loop
    vertex 6.824999999999998 99.42894191624433 0.0
    vertex 7.222948575580839 99.59377761337696 1.9999999999999998
    vertex 6.824999999999998 99.42894191624433 1.9999999999999998
  endloop
endfacet
facet normal 0.500000000000001 -0.8660254037844382 0.0
  outer loop
    vertex 6.824999999999998 99.42894191624433 1.9999999999999998
    vertex 6.4832738110421975 99.16672618895781 0.0
    vertex 6.824999999999998 99.42894191624433 0.0
  endloop
endfacet
facet normal 0.7071067811865468 -0.7071067811865482 0.0
  outer loop
    vertex 6.4832738110421975 99.16672618895781 0.0
    vertex 6.824999999999998 99.42894191624433 1.9999999999999998
    vertex 6.4832738110421975 99.16672618895781 1.9999999999999998
  endloop
endfacet
facet normal 0.7071067811865468 -0.7071067811865482 0.0
  outer loop
    vertex 6.4832738110421975 99.16672618895781 0.0
    vertex 6.221058083755677 98.825 1.9999999999999998
    vertex 6.221058083755677 98.825 0.0
  endloop
endfacet
facet normal 0.8660254037844388 -0.49999999999999967 0.0
  outer loop
    vertex 6.221058083755677 98.825 1.9999999999999998
    vertex 6.4832738110421975 99.16672618895781 0.0
    vertex 6.4832738110421975 99.16672618895781 1.9999999999999998
  endloop
endfacet
facet normal 0.8660254037844388 -0.49999999999999967 0.0
  outer loop
    vertex 6.221058083755677 98.825 0.0
    vertex 6.0562223866230385 98.42705142441916 1.9999999999999998
    vertex 6.0562223866230385 98.42705142441916 0.0
  endloop
endfacet
facet normal 0.9659258262890681 -0.2588190451025211 0.0
  outer loop
    vertex 6.0562223866230385 98.42705142441916 1.9999999999999998
    vertex 6.221058083755677 98.825 0.0
    vertex 6.221058083755677 98.825 1.9999999999999998
  endloop
endfacet
facet normal -0.0 -0.0 1.0
  outer loop
    vertex 106.50000000000001 94.0 3.9999999999999996
    vertex 102.50000000000001 98.0 3.9999999999999996
    vertex 102.50000000000001 94.0 3.9999999999999996
  endloop
endfacet
facet normal -0.0 -0.0 1.0
  outer loop
    vertex 102.50000000000001 98.0 3.9999999999999996
    vertex 106.50000000000001 94.0 3.9999999999999996
    vertex 106.50000000000001 98.0 3.9999999999999996
  endloop
endfacet
facet normal -0.0 1.0 -0.0
  outer loop
    vertex 102.50000000000001 98.0 3.9999999999999996
    vertex 106.50000000000001 98.0 1.9999999999999998
    vertex 102.50000000000001 98.0 1.9999999999999998
  endloop
endfacet
facet normal -0.0 1.0 -0.0
  outer loop
    vertex 106.50000000000001 98.0 1.9999999999999998
    vertex 102.50000000000001 98.0 3.9999999999999996
    vertex 106.50000000000001 98.0 3.9999999999999996
  endloop
endfacet
facet normal -1.0 0.0 0.0
  outer loop
    vertex 102.50000000000001 98.0 3.9999999999999996
    vertex 102.50000000000001 94.0 1.9999999999999998
    vertex 102.50000000000001 94.0 3.9999999999999996
  endloop
endfacet
facet normal -1.0 0.0 0.0
  outer loop
    vertex 102.50000000000001 94.0 1.9999999999999998
    vertex 102.50000000000001 98.0 3.9999999999999996
    vertex 102.50000000000001 98.0 1.9999999999999998
  endloop
endfacet
facet normal 0.0 -1.0 0.0
  outer loop
    vertex 106.50000000000001 94.0 3.9999999999999996
    vertex 102.50000000000001 94.0 1.9999999999999998
    vertex 106.50000000000001 94.0 1.9999999999999998
  endloop
endfacet
facet normal 0.0 -1.0 0.0
  outer loop
    vertex 102.50000000000001 94.0 1.9999999999999998
    vertex 106.50000000000001 94.0 3.9999999999999996
    vertex 102.50000000000001 94.0 3.9999999999999996
  endloop
endfacet
facet normal 1.0 -0.0 -0.0
  outer loop
    vertex 106.50000000000001 98.0 1.9999999999999998
    vertex 106.50000000000001 94.0 3.9999999999999996
    vertex 106.50000000000001 94.0 1.9999999999999998
  endloop
endfacet
facet normal 1.0 -0.0 -0.0
  outer loop
    vertex 106.50000000000001 94.0 3.9999999999999996
    vertex 106.50000000000001 98.0 1.9999999999999998
    vertex 106.50000000000001 98.0 3.9999999999999996
  endloop
endfacet
endsolid New New Back
