solid Top Corner
facet normal 0.0 0.0 -1.0
  outer loop
    vertex 0.0 23.5 0.0
    vertex 3.4467741291070997 12.522840295501807 0.0
    vertex 0.0 0.0 0.0
  endloop
endfacet
facet normal 0.0 0.0 -1.0
  outer loop
    vertex 3.4467741291070997 12.522840295501807 0.0
    vertex 0.0 23.5 0.0
    vertex 3.611609826239727 12.920788871082648 0.0
  endloop
endfacet
facet normal 0.0 0.0 -1.0
  outer loop
    vertex 3.611609826239727 12.920788871082648 0.0
    vertex 0.0 23.5 0.0
    vertex 3.8738255535262582 13.262515060040453 0.0
  endloop
endfacet
facet normal 0.0 0.0 -1.0
  outer loop
    vertex 3.8738255535262582 13.262515060040453 0.0
    vertex 0.0 23.5 0.0
    vertex 4.215551742484047 13.524730787326973 0.0
  endloop
endfacet
facet normal 0.0 0.0 -1.0
  outer loop
    vertex 4.215551742484047 13.524730787326973 0.0
    vertex 0.0 23.5 0.0
    vertex 4.6135003180649035 13.689566484459618 0.0
  endloop
endfacet
facet normal 0.0 0.0 -1.0
  outer loop
    vertex 4.6135003180649035 13.689566484459618 0.0
    vertex 0.0 23.5 0.0
    vertex 5.0405517424840625 13.745788871082652 0.0
  endloop
endfacet
facet normal 0.0 0.0 -1.0
  outer loop
    vertex 5.0405517424840625 13.745788871082652 0.0
    vertex 0.0 23.5 0.0
    vertex 109.0 23.5 0.0
  endloop
endfacet
facet normal 0.0 0.0 -1.0
  outer loop
    vertex 0.0 0.0 0.0
    vertex 3.4467741291070997 12.522840295501807 0.0
    vertex 3.390551742484054 12.095788871082645 0.0
  endloop
endfacet
facet normal 0.0 0.0 -1.0
  outer loop
    vertex 5.0405517424840625 13.745788871082652 0.0
    vertex 109.0 23.5 0.0
    vertex 5.4676031669032215 13.689566484459618 0.0
  endloop
endfacet
facet normal 0.0 0.0 -1.0
  outer loop
    vertex 5.4676031669032215 13.689566484459618 0.0
    vertex 109.0 23.5 0.0
    vertex 5.8655517424840555 13.52473078732698 0.0
  endloop
endfacet
facet normal 0.0 0.0 -1.0
  outer loop
    vertex 5.8655517424840555 13.52473078732698 0.0
    vertex 109.0 23.5 0.0
    vertex 6.207277931441866 13.262515060040453 0.0
  endloop
endfacet
facet normal 0.0 0.0 -1.0
  outer loop
    vertex 6.207277931441866 13.262515060040453 0.0
    vertex 109.0 23.5 0.0
    vertex 6.469493658728398 12.920788871082648 0.0
  endloop
endfacet
facet normal 0.0 0.0 -1.0
  outer loop
    vertex 6.469493658728398 12.920788871082648 0.0
    vertex 109.0 23.5 0.0
    vertex 6.634329355861025 12.522840295501807 0.0
  endloop
endfacet
facet normal 0.0 0.0 -1.0
  outer loop
    vertex 6.634329355861025 12.522840295501807 0.0
    vertex 109.0 23.5 0.0
    vertex 6.690551742484071 12.095788871082645 0.0
  endloop
endfacet
facet normal 0.0 0.0 -1.0
  outer loop
    vertex 6.690551742484071 12.095788871082645 0.0
    vertex 109.0 23.5 0.0
    vertex 102.62663214522821 12.621529816210712 0.0
  endloop
endfacet
facet normal 0.0 0.0 -1.0
  outer loop
    vertex 6.690551742484071 12.095788871082645 0.0
    vertex 102.62663214522821 12.621529816210712 0.0
    vertex 102.46179644809558 12.22358124062987 0.0
  endloop
endfacet
facet normal 0.0 0.0 -1.0
  outer loop
    vertex 6.690551742484071 12.095788871082645 0.0
    vertex 102.46179644809558 12.22358124062987 0.0
    vertex 102.40557406147254 11.79652981621071 0.0
  endloop
endfacet
facet normal 0.0 0.0 -1.0
  outer loop
    vertex 102.62663214522821 12.621529816210712 0.0
    vertex 109.0 23.5 0.0
    vertex 102.88884787251475 12.963256005168518 0.0
  endloop
endfacet
facet normal 0.0 0.0 -1.0
  outer loop
    vertex 102.88884787251475 12.963256005168518 0.0
    vertex 109.0 23.5 0.0
    vertex 103.23057406147254 13.225471732455038 0.0
  endloop
endfacet
facet normal 0.0 0.0 -1.0
  outer loop
    vertex 103.23057406147254 13.225471732455038 0.0
    vertex 109.0 23.5 0.0
    vertex 103.6285226370534 13.39030742958768 0.0
  endloop
endfacet
facet normal 0.0 0.0 -1.0
  outer loop
    vertex 103.6285226370534 13.39030742958768 0.0
    vertex 109.0 23.5 0.0
    vertex 104.05557406147256 13.446529816210717 0.0
  endloop
endfacet
facet normal 0.0 0.0 -1.0
  outer loop
    vertex 104.05557406147256 13.446529816210717 0.0
    vertex 109.0 23.5 0.0
    vertex 104.4826254858917 13.39030742958768 0.0
  endloop
endfacet
facet normal 0.0 0.0 -1.0
  outer loop
    vertex 104.4826254858917 13.39030742958768 0.0
    vertex 109.0 23.5 0.0
    vertex 104.88057406147254 13.225471732455041 0.0
  endloop
endfacet
facet normal 0.0 0.0 -1.0
  outer loop
    vertex 104.88057406147254 13.225471732455041 0.0
    vertex 109.0 23.5 0.0
    vertex 105.22230025043035 12.963256005168518 0.0
  endloop
endfacet
facet normal 0.0 0.0 -1.0
  outer loop
    vertex 105.22230025043035 12.963256005168518 0.0
    vertex 109.0 23.5 0.0
    vertex 105.48451597771688 12.621529816210712 0.0
  endloop
endfacet
facet normal 0.0 0.0 -1.0
  outer loop
    vertex 105.48451597771688 12.621529816210712 0.0
    vertex 109.0 23.5 0.0
    vertex 105.64935167484951 12.22358124062987 0.0
  endloop
endfacet
facet normal 0.0 0.0 -1.0
  outer loop
    vertex 105.64935167484951 12.22358124062987 0.0
    vertex 109.0 23.5 0.0
    vertex 105.70557406147256 11.79652981621071 0.0
  endloop
endfacet
facet normal 0.0 0.0 -1.0
  outer loop
    vertex 0.0 0.0 0.0
    vertex 5.0405517424840625 10.445788871082637 0.0
    vertex 109.0 0.0 0.0
  endloop
endfacet
facet normal 0.0 0.0 -1.0
  outer loop
    vertex 5.0405517424840625 10.445788871082637 0.0
    vertex 0.0 0.0 0.0
    vertex 4.6135003180649035 10.502011257705675 0.0
  endloop
endfacet
facet normal 0.0 0.0 -1.0
  outer loop
    vertex 4.6135003180649035 10.502011257705675 0.0
    vertex 0.0 0.0 0.0
    vertex 4.215551742484069 10.666846954838315 0.0
  endloop
endfacet
facet normal 0.0 0.0 -1.0
  outer loop
    vertex 4.215551742484069 10.666846954838315 0.0
    vertex 0.0 0.0 0.0
    vertex 3.8738255535262582 10.929062682124835 0.0
  endloop
endfacet
facet normal 0.0 0.0 -1.0
  outer loop
    vertex 3.8738255535262582 10.929062682124835 0.0
    vertex 0.0 0.0 0.0
    vertex 3.611609826239727 11.270788871082642 0.0
  endloop
endfacet
facet normal 0.0 0.0 -1.0
  outer loop
    vertex 3.611609826239727 11.270788871082642 0.0
    vertex 0.0 0.0 0.0
    vertex 3.4467741291070997 11.668737446663483 0.0
  endloop
endfacet
facet normal 0.0 0.0 -1.0
  outer loop
    vertex 3.4467741291070997 11.668737446663483 0.0
    vertex 0.0 0.0 0.0
    vertex 3.390551742484054 12.095788871082645 0.0
  endloop
endfacet
facet normal 0.0 0.0 -1.0
  outer loop
    vertex 109.0 0.0 0.0
    vertex 5.0405517424840625 10.445788871082637 0.0
    vertex 5.4676031669032215 10.502011257705675 0.0
  endloop
endfacet
facet normal 0.0 0.0 -1.0
  outer loop
    vertex 109.0 0.0 0.0
    vertex 5.4676031669032215 10.502011257705675 0.0
    vertex 5.865551742484078 10.666846954838315 0.0
  endloop
endfacet
facet normal 0.0 0.0 -1.0
  outer loop
    vertex 109.0 0.0 0.0
    vertex 5.865551742484078 10.666846954838315 0.0
    vertex 6.207277931441866 10.929062682124835 0.0
  endloop
endfacet
facet normal 0.0 0.0 -1.0
  outer loop
    vertex 109.0 0.0 0.0
    vertex 6.207277931441866 10.929062682124835 0.0
    vertex 6.469493658728398 11.270788871082642 0.0
  endloop
endfacet
facet normal 0.0 0.0 -1.0
  outer loop
    vertex 109.0 0.0 0.0
    vertex 6.469493658728398 11.270788871082642 0.0
    vertex 6.634329355861025 11.668737446663483 0.0
  endloop
endfacet
facet normal 0.0 0.0 -1.0
  outer loop
    vertex 109.0 0.0 0.0
    vertex 6.634329355861025 11.668737446663483 0.0
    vertex 6.690551742484071 12.095788871082645 0.0
  endloop
endfacet
facet normal 0.0 0.0 -1.0
  outer loop
    vertex 109.0 0.0 0.0
    vertex 6.690551742484071 12.095788871082645 0.0
    vertex 102.62663214522821 10.971529816210705 0.0
  endloop
endfacet
facet normal 0.0 0.0 -1.0
  outer loop
    vertex 102.62663214522821 10.971529816210705 0.0
    vertex 6.690551742484071 12.095788871082645 0.0
    vertex 102.46179644809558 11.369478391791548 0.0
  endloop
endfacet
facet normal 0.0 0.0 -1.0
  outer loop
    vertex 102.46179644809558 11.369478391791548 0.0
    vertex 6.690551742484071 12.095788871082645 0.0
    vertex 102.40557406147254 11.79652981621071 0.0
  endloop
endfacet
facet normal 0.0 0.0 -1.0
  outer loop
    vertex 109.0 0.0 0.0
    vertex 102.62663214522821 10.971529816210705 0.0
    vertex 102.88884787251475 10.6298036272529 0.0
  endloop
endfacet
facet normal 0.0 0.0 -1.0
  outer loop
    vertex 109.0 0.0 0.0
    vertex 102.88884787251475 10.6298036272529 0.0
    vertex 103.23057406147255 10.367587899966379 0.0
  endloop
endfacet
facet normal 0.0 0.0 -1.0
  outer loop
    vertex 109.0 0.0 0.0
    vertex 103.23057406147255 10.367587899966379 0.0
    vertex 103.6285226370534 10.202752202833738 0.0
  endloop
endfacet
facet normal 0.0 0.0 -1.0
  outer loop
    vertex 109.0 0.0 0.0
    vertex 103.6285226370534 10.202752202833738 0.0
    vertex 104.05557406147256 10.1465298162107 0.0
  endloop
endfacet
facet normal 0.0 0.0 -1.0
  outer loop
    vertex 109.0 0.0 0.0
    vertex 104.05557406147256 10.1465298162107 0.0
    vertex 104.4826254858917 10.202752202833738 0.0
  endloop
endfacet
facet normal 0.0 0.0 -1.0
  outer loop
    vertex 109.0 0.0 0.0
    vertex 104.4826254858917 10.202752202833738 0.0
    vertex 104.88057406147257 10.367587899966379 0.0
  endloop
endfacet
facet normal 0.0 0.0 -1.0
  outer loop
    vertex 109.0 0.0 0.0
    vertex 104.88057406147257 10.367587899966379 0.0
    vertex 105.22230025043035 10.6298036272529 0.0
  endloop
endfacet
facet normal 0.0 0.0 -1.0
  outer loop
    vertex 109.0 0.0 0.0
    vertex 105.22230025043035 10.6298036272529 0.0
    vertex 105.48451597771688 10.971529816210705 0.0
  endloop
endfacet
facet normal 0.0 0.0 -1.0
  outer loop
    vertex 109.0 0.0 0.0
    vertex 105.48451597771688 10.971529816210705 0.0
    vertex 105.64935167484951 11.369478391791548 0.0
  endloop
endfacet
facet normal 0.0 0.0 -1.0
  outer loop
    vertex 109.0 0.0 0.0
    vertex 105.64935167484951 11.369478391791548 0.0
    vertex 105.70557406147256 11.79652981621071 0.0
  endloop
endfacet
facet normal 0.0 0.0 -1.0
  outer loop
    vertex 109.0 0.0 0.0
    vertex 105.70557406147256 11.79652981621071 0.0
    vertex 109.0 23.5 0.0
  endloop
endfacet
facet normal -0.0 -0.0 1.0
  outer loop
    vertex 0.0 0.0 1.9999999999999998
    vertex 3.4467741291070997 11.668737446663483 1.9999999999999998
    vertex 0.0 23.5 1.9999999999999998
  endloop
endfacet
facet normal -0.0 -0.0 1.0
  outer loop
    vertex 3.4467741291070997 11.668737446663483 1.9999999999999998
    vertex 0.0 0.0 1.9999999999999998
    vertex 3.611609826239727 11.270788871082642 1.9999999999999998
  endloop
endfacet
facet normal -0.0 -0.0 1.0
  outer loop
    vertex 3.611609826239727 11.270788871082642 1.9999999999999998
    vertex 0.0 0.0 1.9999999999999998
    vertex 3.8738255535262582 10.929062682124835 1.9999999999999998
  endloop
endfacet
facet normal -0.0 -0.0 1.0
  outer loop
    vertex 3.8738255535262582 10.929062682124835 1.9999999999999998
    vertex 0.0 0.0 1.9999999999999998
    vertex 4.215551742484069 10.666846954838315 1.9999999999999998
  endloop
endfacet
facet normal -0.0 -0.0 1.0
  outer loop
    vertex 4.215551742484069 10.666846954838315 1.9999999999999998
    vertex 0.0 0.0 1.9999999999999998
    vertex 4.6135003180649035 10.502011257705675 1.9999999999999998
  endloop
endfacet
facet normal -0.0 -0.0 1.0
  outer loop
    vertex 4.6135003180649035 10.502011257705675 1.9999999999999998
    vertex 0.0 0.0 1.9999999999999998
    vertex 5.0405517424840625 10.445788871082637 1.9999999999999998
  endloop
endfacet
facet normal -0.0 -0.0 1.0
  outer loop
    vertex 5.0405517424840625 10.445788871082637 1.9999999999999998
    vertex 0.0 0.0 1.9999999999999998
    vertex 109.0 0.0 1.9999999999999998
  endloop
endfacet
facet normal -0.0 -0.0 1.0
  outer loop
    vertex 0.0 23.5 1.9999999999999998
    vertex 3.4467741291070997 11.668737446663483 1.9999999999999998
    vertex 3.390551742484054 12.095788871082645 1.9999999999999998
  endloop
endfacet
facet normal -0.0 -0.0 1.0
  outer loop
    vertex 5.0405517424840625 10.445788871082637 1.9999999999999998
    vertex 109.0 0.0 1.9999999999999998
    vertex 5.4676031669032215 10.502011257705675 1.9999999999999998
  endloop
endfacet
facet normal -0.0 -0.0 1.0
  outer loop
    vertex 5.4676031669032215 10.502011257705675 1.9999999999999998
    vertex 109.0 0.0 1.9999999999999998
    vertex 5.865551742484078 10.666846954838315 1.9999999999999998
  endloop
endfacet
facet normal -0.0 -0.0 1.0
  outer loop
    vertex 5.865551742484078 10.666846954838315 1.9999999999999998
    vertex 109.0 0.0 1.9999999999999998
    vertex 6.207277931441866 10.929062682124835 1.9999999999999998
  endloop
endfacet
facet normal -0.0 -0.0 1.0
  outer loop
    vertex 6.207277931441866 10.929062682124835 1.9999999999999998
    vertex 109.0 0.0 1.9999999999999998
    vertex 6.469493658728398 11.270788871082642 1.9999999999999998
  endloop
endfacet
facet normal -0.0 -0.0 1.0
  outer loop
    vertex 6.469493658728398 11.270788871082642 1.9999999999999998
    vertex 109.0 0.0 1.9999999999999998
    vertex 6.634329355861025 11.668737446663483 1.9999999999999998
  endloop
endfacet
facet normal -0.0 -0.0 1.0
  outer loop
    vertex 6.634329355861025 11.668737446663483 1.9999999999999998
    vertex 109.0 0.0 1.9999999999999998
    vertex 6.690551742484071 12.095788871082645 1.9999999999999998
  endloop
endfacet
facet normal -0.0 -0.0 1.0
  outer loop
    vertex 6.690551742484071 12.095788871082645 1.9999999999999998
    vertex 109.0 0.0 1.9999999999999998
    vertex 102.62663214522821 10.971529816210705 1.9999999999999998
  endloop
endfacet
facet normal -0.0 -0.0 1.0
  outer loop
    vertex 6.690551742484071 12.095788871082645 1.9999999999999998
    vertex 102.62663214522821 10.971529816210705 1.9999999999999998
    vertex 102.46179644809558 11.369478391791548 1.9999999999999998
  endloop
endfacet
facet normal -0.0 -0.0 1.0
  outer loop
    vertex 6.690551742484071 12.095788871082645 1.9999999999999998
    vertex 102.46179644809558 11.369478391791548 1.9999999999999998
    vertex 102.40557406147254 11.79652981621071 1.9999999999999998
  endloop
endfacet
facet normal -0.0 -0.0 1.0
  outer loop
    vertex 102.62663214522821 10.971529816210705 1.9999999999999998
    vertex 109.0 0.0 1.9999999999999998
    vertex 102.88884787251475 10.6298036272529 1.9999999999999998
  endloop
endfacet
facet normal -0.0 -0.0 1.0
  outer loop
    vertex 102.88884787251475 10.6298036272529 1.9999999999999998
    vertex 109.0 0.0 1.9999999999999998
    vertex 103.23057406147255 10.367587899966379 1.9999999999999998
  endloop
endfacet
facet normal -0.0 -0.0 1.0
  outer loop
    vertex 103.23057406147255 10.367587899966379 1.9999999999999998
    vertex 109.0 0.0 1.9999999999999998
    vertex 103.6285226370534 10.202752202833738 1.9999999999999998
  endloop
endfacet
facet normal -0.0 -0.0 1.0
  outer loop
    vertex 103.6285226370534 10.202752202833738 1.9999999999999998
    vertex 109.0 0.0 1.9999999999999998
    vertex 104.05557406147256 10.1465298162107 1.9999999999999998
  endloop
endfacet
facet normal -0.0 -0.0 1.0
  outer loop
    vertex 104.05557406147256 10.1465298162107 1.9999999999999998
    vertex 109.0 0.0 1.9999999999999998
    vertex 104.4826254858917 10.202752202833738 1.9999999999999998
  endloop
endfacet
facet normal -0.0 -0.0 1.0
  outer loop
    vertex 104.4826254858917 10.202752202833738 1.9999999999999998
    vertex 109.0 0.0 1.9999999999999998
    vertex 104.88057406147257 10.367587899966379 1.9999999999999998
  endloop
endfacet
facet normal -0.0 -0.0 1.0
  outer loop
    vertex 104.88057406147257 10.367587899966379 1.9999999999999998
    vertex 109.0 0.0 1.9999999999999998
    vertex 105.22230025043035 10.6298036272529 1.9999999999999998
  endloop
endfacet
facet normal -0.0 -0.0 1.0
  outer loop
    vertex 105.22230025043035 10.6298036272529 1.9999999999999998
    vertex 109.0 0.0 1.9999999999999998
    vertex 105.48451597771688 10.971529816210705 1.9999999999999998
  endloop
endfacet
facet normal -0.0 -0.0 1.0
  outer loop
    vertex 105.48451597771688 10.971529816210705 1.9999999999999998
    vertex 109.0 0.0 1.9999999999999998
    vertex 105.64935167484951 11.369478391791548 1.9999999999999998
  endloop
endfacet
facet normal -0.0 -0.0 1.0
  outer loop
    vertex 105.64935167484951 11.369478391791548 1.9999999999999998
    vertex 109.0 0.0 1.9999999999999998
    vertex 105.70557406147256 11.79652981621071 1.9999999999999998
  endloop
endfacet
facet normal -0.0 -0.0 1.0
  outer loop
    vertex 0.0 23.5 1.9999999999999998
    vertex 5.0405517424840625 13.745788871082652 1.9999999999999998
    vertex 109.0 23.5 1.9999999999999998
  endloop
endfacet
facet normal -0.0 -0.0 1.0
  outer loop
    vertex 5.0405517424840625 13.745788871082652 1.9999999999999998
    vertex 0.0 23.5 1.9999999999999998
    vertex 4.6135003180649035 13.689566484459618 1.9999999999999998
  endloop
endfacet
facet normal -0.0 -0.0 1.0
  outer loop
    vertex 4.6135003180649035 13.689566484459618 1.9999999999999998
    vertex 0.0 23.5 1.9999999999999998
    vertex 4.215551742484047 13.524730787326973 1.9999999999999998
  endloop
endfacet
facet normal -0.0 -0.0 1.0
  outer loop
    vertex 4.215551742484047 13.524730787326973 1.9999999999999998
    vertex 0.0 23.5 1.9999999999999998
    vertex 3.8738255535262582 13.262515060040453 1.9999999999999998
  endloop
endfacet
facet normal -0.0 -0.0 1.0
  outer loop
    vertex 3.8738255535262582 13.262515060040453 1.9999999999999998
    vertex 0.0 23.5 1.9999999999999998
    vertex 3.611609826239727 12.920788871082648 1.9999999999999998
  endloop
endfacet
facet normal -0.0 -0.0 1.0
  outer loop
    vertex 3.611609826239727 12.920788871082648 1.9999999999999998
    vertex 0.0 23.5 1.9999999999999998
    vertex 3.4467741291070997 12.522840295501807 1.9999999999999998
  endloop
endfacet
facet normal -0.0 -0.0 1.0
  outer loop
    vertex 3.4467741291070997 12.522840295501807 1.9999999999999998
    vertex 0.0 23.5 1.9999999999999998
    vertex 3.390551742484054 12.095788871082645 1.9999999999999998
  endloop
endfacet
facet normal -0.0 -0.0 1.0
  outer loop
    vertex 109.0 23.5 1.9999999999999998
    vertex 5.0405517424840625 13.745788871082652 1.9999999999999998
    vertex 5.4676031669032215 13.689566484459618 1.9999999999999998
  endloop
endfacet
facet normal -0.0 -0.0 1.0
  outer loop
    vertex 109.0 23.5 1.9999999999999998
    vertex 5.4676031669032215 13.689566484459618 1.9999999999999998
    vertex 5.8655517424840555 13.52473078732698 1.9999999999999998
  endloop
endfacet
facet normal -0.0 -0.0 1.0
  outer loop
    vertex 109.0 23.5 1.9999999999999998
    vertex 5.8655517424840555 13.52473078732698 1.9999999999999998
    vertex 6.207277931441866 13.262515060040453 1.9999999999999998
  endloop
endfacet
facet normal -0.0 -0.0 1.0
  outer loop
    vertex 109.0 23.5 1.9999999999999998
    vertex 6.207277931441866 13.262515060040453 1.9999999999999998
    vertex 6.469493658728398 12.920788871082648 1.9999999999999998
  endloop
endfacet
facet normal -0.0 -0.0 1.0
  outer loop
    vertex 109.0 23.5 1.9999999999999998
    vertex 6.469493658728398 12.920788871082648 1.9999999999999998
    vertex 6.634329355861025 12.522840295501807 1.9999999999999998
  endloop
endfacet
facet normal -0.0 -0.0 1.0
  outer loop
    vertex 109.0 23.5 1.9999999999999998
    vertex 6.634329355861025 12.522840295501807 1.9999999999999998
    vertex 6.690551742484071 12.095788871082645 1.9999999999999998
  endloop
endfacet
facet normal -0.0 -0.0 1.0
  outer loop
    vertex 109.0 23.5 1.9999999999999998
    vertex 6.690551742484071 12.095788871082645 1.9999999999999998
    vertex 102.62663214522821 12.621529816210712 1.9999999999999998
  endloop
endfacet
facet normal -0.0 -0.0 1.0
  outer loop
    vertex 102.62663214522821 12.621529816210712 1.9999999999999998
    vertex 6.690551742484071 12.095788871082645 1.9999999999999998
    vertex 102.46179644809558 12.22358124062987 1.9999999999999998
  endloop
endfacet
facet normal -0.0 -0.0 1.0
  outer loop
    vertex 102.46179644809558 12.22358124062987 1.9999999999999998
    vertex 6.690551742484071 12.095788871082645 1.9999999999999998
    vertex 102.40557406147254 11.79652981621071 1.9999999999999998
  endloop
endfacet
facet normal -0.0 -0.0 1.0
  outer loop
    vertex 109.0 23.5 1.9999999999999998
    vertex 102.62663214522821 12.621529816210712 1.9999999999999998
    vertex 102.88884787251475 12.963256005168518 1.9999999999999998
  endloop
endfacet
facet normal -0.0 -0.0 1.0
  outer loop
    vertex 109.0 23.5 1.9999999999999998
    vertex 102.88884787251475 12.963256005168518 1.9999999999999998
    vertex 103.23057406147254 13.225471732455038 1.9999999999999998
  endloop
endfacet
facet normal -0.0 -0.0 1.0
  outer loop
    vertex 109.0 23.5 1.9999999999999998
    vertex 103.23057406147254 13.225471732455038 1.9999999999999998
    vertex 103.6285226370534 13.39030742958768 1.9999999999999998
  endloop
endfacet
facet normal -0.0 -0.0 1.0
  outer loop
    vertex 109.0 23.5 1.9999999999999998
    vertex 103.6285226370534 13.39030742958768 1.9999999999999998
    vertex 104.05557406147256 13.446529816210717 1.9999999999999998
  endloop
endfacet
facet normal -0.0 -0.0 1.0
  outer loop
    vertex 109.0 23.5 1.9999999999999998
    vertex 104.05557406147256 13.446529816210717 1.9999999999999998
    vertex 104.4826254858917 13.39030742958768 1.9999999999999998
  endloop
endfacet
facet normal -0.0 -0.0 1.0
  outer loop
    vertex 109.0 23.5 1.9999999999999998
    vertex 104.4826254858917 13.39030742958768 1.9999999999999998
    vertex 104.88057406147254 13.225471732455041 1.9999999999999998
  endloop
endfacet
facet normal -0.0 -0.0 1.0
  outer loop
    vertex 109.0 23.5 1.9999999999999998
    vertex 104.88057406147254 13.225471732455041 1.9999999999999998
    vertex 105.22230025043035 12.963256005168518 1.9999999999999998
  endloop
endfacet
facet normal -0.0 -0.0 1.0
  outer loop
    vertex 109.0 23.5 1.9999999999999998
    vertex 105.22230025043035 12.963256005168518 1.9999999999999998
    vertex 105.48451597771688 12.621529816210712 1.9999999999999998
  endloop
endfacet
facet normal -0.0 -0.0 1.0
  outer loop
    vertex 109.0 23.5 1.9999999999999998
    vertex 105.48451597771688 12.621529816210712 1.9999999999999998
    vertex 105.64935167484951 12.22358124062987 1.9999999999999998
  endloop
endfacet
facet normal -0.0 -0.0 1.0
  outer loop
    vertex 109.0 23.5 1.9999999999999998
    vertex 105.64935167484951 12.22358124062987 1.9999999999999998
    vertex 105.70557406147256 11.79652981621071 1.9999999999999998
  endloop
endfacet
facet normal -0.0 -0.0 1.0
  outer loop
    vertex 109.0 23.5 1.9999999999999998
    vertex 105.70557406147256 11.79652981621071 1.9999999999999998
    vertex 109.0 0.0 1.9999999999999998
  endloop
endfacet
facet normal -0.0 -1.0 -0.0
  outer loop
    vertex 109.0 0.0 1.9999999999999998
    vertex 0.0 0.0 0.0
    vertex 109.0 0.0 0.0
  endloop
endfacet
facet normal -0.0 -1.0 -0.0
  outer loop
    vertex 0.0 0.0 0.0
    vertex 109.0 0.0 1.9999999999999998
    vertex 0.0 0.0 1.9999999999999998
  endloop
endfacet
facet normal -1.0 0.0 0.0
  outer loop
    vertex 0.0 23.5 1.9999999999999998
    vertex 0.0 0.0 0.0
    vertex 0.0 0.0 1.9999999999999998
  endloop
endfacet
facet normal -1.0 0.0 0.0
  outer loop
    vertex 0.0 0.0 0.0
    vertex 0.0 23.5 1.9999999999999998
    vertex 0.0 23.5 0.0
  endloop
endfacet
facet normal -0.0 1.0 0.0
  outer loop
    vertex 0.0 23.5 1.9999999999999998
    vertex 109.0 23.5 0.0
    vertex 0.0 23.5 0.0
  endloop
endfacet
facet normal -0.0 1.0 0.0
  outer loop
    vertex 109.0 23.5 0.0
    vertex 0.0 23.5 1.9999999999999998
    vertex 109.0 23.5 1.9999999999999998
  endloop
endfacet
facet normal 1.0 0.0 0.0
  outer loop
    vertex 109.0 23.5 0.0
    vertex 109.0 0.0 1.9999999999999998
    vertex 109.0 0.0 0.0
  endloop
endfacet
facet normal 1.0 0.0 0.0
  outer loop
    vertex 109.0 0.0 1.9999999999999998
    vertex 109.0 23.5 0.0
    vertex 109.0 23.5 1.9999999999999998
  endloop
endfacet
facet normal -0.9999999999999999 0.0 0.0
  outer loop
    vertex 105.70557406147256 11.79652981621071 1.9999999999999998
    vertex 105.64935167484951 11.369478391791548 0.0
    vertex 105.64935167484951 11.369478391791548 1.9999999999999998
  endloop
endfacet
facet normal -0.9659258262890694 0.25881904510251647 0.0
  outer loop
    vertex 105.64935167484951 11.369478391791548 0.0
    vertex 105.70557406147256 11.79652981621071 1.9999999999999998
    vertex 105.70557406147256 11.79652981621071 0.0
  endloop
endfacet
facet normal -0.9659258262890694 -0.25881904510251647 0.0
  outer loop
    vertex 105.64935167484951 12.22358124062987 1.9999999999999998
    vertex 105.70557406147256 11.79652981621071 0.0
    vertex 105.70557406147256 11.79652981621071 1.9999999999999998
  endloop
endfacet
facet normal -0.9999999999999999 0.0 0.0
  outer loop
    vertex 105.70557406147256 11.79652981621071 0.0
    vertex 105.64935167484951 12.22358124062987 1.9999999999999998
    vertex 105.64935167484951 12.22358124062987 0.0
  endloop
endfacet
facet normal -0.866025403784441 -0.4999999999999958 0.0
  outer loop
    vertex 105.48451597771688 12.621529816210712 1.9999999999999998
    vertex 105.64935167484951 12.22358124062987 0.0
    vertex 105.64935167484951 12.22358124062987 1.9999999999999998
  endloop
endfacet
facet normal -0.9659258262890694 -0.25881904510251647 0.0
  outer loop
    vertex 105.64935167484951 12.22358124062987 0.0
    vertex 105.48451597771688 12.621529816210712 1.9999999999999998
    vertex 105.48451597771688 12.621529816210712 0.0
  endloop
endfacet
facet normal -0.7071067811865391 -0.7071067811865558 0.0
  outer loop
    vertex 105.22230025043035 12.963256005168518 1.9999999999999998
    vertex 105.48451597771688 12.621529816210712 0.0
    vertex 105.48451597771688 12.621529816210712 1.9999999999999998
  endloop
endfacet
facet normal -0.866025403784441 -0.4999999999999958 0.0
  outer loop
    vertex 105.48451597771688 12.621529816210712 0.0
    vertex 105.22230025043035 12.963256005168518 1.9999999999999998
    vertex 105.22230025043035 12.963256005168518 0.0
  endloop
endfacet
facet normal -0.7071067811865391 -0.7071067811865558 0.0
  outer loop
    vertex 105.22230025043035 12.963256005168518 1.9999999999999998
    vertex 104.88057406147254 13.225471732455041 0.0
    vertex 105.22230025043035 12.963256005168518 0.0
  endloop
endfacet
facet normal -0.4999999999999994 -0.8660254037844392 0.0
  outer loop
    vertex 104.88057406147254 13.225471732455041 0.0
    vertex 105.22230025043035 12.963256005168518 1.9999999999999998
    vertex 104.88057406147254 13.225471732455041 1.9999999999999998
  endloop
endfacet
facet normal -0.4999999999999994 -0.8660254037844392 0.0
  outer loop
    vertex 104.88057406147254 13.225471732455041 1.9999999999999998
    vertex 104.4826254858917 13.39030742958768 0.0
    vertex 104.88057406147254 13.225471732455041 0.0
  endloop
endfacet
facet normal -0.25881904510252285 -0.9659258262890678 0.0
  outer loop
    vertex 104.4826254858917 13.39030742958768 0.0
    vertex 104.88057406147254 13.225471732455041 1.9999999999999998
    vertex 104.4826254858917 13.39030742958768 1.9999999999999998
  endloop
endfacet
facet normal -0.25881904510252285 -0.9659258262890678 0.0
  outer loop
    vertex 104.4826254858917 13.39030742958768 1.9999999999999998
    vertex 104.05557406147256 13.446529816210717 0.0
    vertex 104.4826254858917 13.39030742958768 0.0
  endloop
endfacet
facet normal 0.0 -1.0 0.0
  outer loop
    vertex 104.05557406147256 13.446529816210717 0.0
    vertex 104.4826254858917 13.39030742958768 1.9999999999999998
    vertex 104.05557406147256 13.446529816210717 1.9999999999999998
  endloop
endfacet
facet normal 0.0 -1.0 0.0
  outer loop
    vertex 104.05557406147256 13.446529816210717 1.9999999999999998
    vertex 103.6285226370534 13.39030742958768 0.0
    vertex 104.05557406147256 13.446529816210717 0.0
  endloop
endfacet
facet normal 0.25881904510251613 -0.9659258262890696 0.0
  outer loop
    vertex 103.6285226370534 13.39030742958768 0.0
    vertex 104.05557406147256 13.446529816210717 1.9999999999999998
    vertex 103.6285226370534 13.39030742958768 1.9999999999999998
  endloop
endfacet
facet normal 0.25881904510251613 -0.9659258262890696 0.0
  outer loop
    vertex 103.6285226370534 13.39030742958768 1.9999999999999998
    vertex 103.23057406147254 13.225471732455038 0.0
    vertex 103.6285226370534 13.39030742958768 0.0
  endloop
endfacet
facet normal 0.500000000000005 -0.8660254037844358 0.0
  outer loop
    vertex 103.23057406147254 13.225471732455038 0.0
    vertex 103.6285226370534 13.39030742958768 1.9999999999999998
    vertex 103.23057406147254 13.225471732455038 1.9999999999999998
  endloop
endfacet
facet normal 0.500000000000005 -0.8660254037844358 0.0
  outer loop
    vertex 103.23057406147254 13.225471732455038 1.9999999999999998
    vertex 102.88884787251475 12.963256005168518 0.0
    vertex 103.23057406147254 13.225471732455038 0.0
  endloop
endfacet
facet normal 0.7071067811865488 -0.7071067811865465 0.0
  outer loop
    vertex 102.88884787251475 12.963256005168518 0.0
    vertex 103.23057406147254 13.225471732455038 1.9999999999999998
    vertex 102.88884787251475 12.963256005168518 1.9999999999999998
  endloop
endfacet
facet normal 0.7071067811865488 -0.7071067811865465 0.0
  outer loop
    vertex 102.88884787251475 12.963256005168518 0.0
    vertex 102.62663214522821 12.621529816210712 1.9999999999999998
    vertex 102.62663214522821 12.621529816210712 0.0
  endloop
endfacet
facet normal 0.866025403784441 -0.4999999999999958 0.0
  outer loop
    vertex 102.62663214522821 12.621529816210712 1.9999999999999998
    vertex 102.88884787251475 12.963256005168518 0.0
    vertex 102.88884787251475 12.963256005168518 1.9999999999999998
  endloop
endfacet
facet normal 0.866025403784441 -0.4999999999999958 0.0
  outer loop
    vertex 102.62663214522821 12.621529816210712 0.0
    vertex 102.46179644809558 12.22358124062987 1.9999999999999998
    vertex 102.46179644809558 12.22358124062987 0.0
  endloop
endfacet
facet normal 0.9659258262890694 -0.25881904510251647 0.0
  outer loop
    vertex 102.46179644809558 12.22358124062987 1.9999999999999998
    vertex 102.62663214522821 12.621529816210712 0.0
    vertex 102.62663214522821 12.621529816210712 1.9999999999999998
  endloop
endfacet
facet normal 0.9659258262890694 -0.25881904510251647 0.0
  outer loop
    vertex 102.46179644809558 12.22358124062987 0.0
    vertex 102.40557406147254 11.79652981621071 1.9999999999999998
    vertex 102.40557406147254 11.79652981621071 0.0
  endloop
endfacet
facet normal 0.9999999999999999 0.0 0.0
  outer loop
    vertex 102.40557406147254 11.79652981621071 1.9999999999999998
    vertex 102.46179644809558 12.22358124062987 0.0
    vertex 102.46179644809558 12.22358124062987 1.9999999999999998
  endloop
endfacet
facet normal 0.9999999999999999 0.0 0.0
  outer loop
    vertex 102.40557406147254 11.79652981621071 0.0
    vertex 102.46179644809558 11.369478391791548 1.9999999999999998
    vertex 102.46179644809558 11.369478391791548 0.0
  endloop
endfacet
facet normal 0.9659258262890694 0.25881904510251647 0.0
  outer loop
    vertex 102.46179644809558 11.369478391791548 1.9999999999999998
    vertex 102.40557406147254 11.79652981621071 0.0
    vertex 102.40557406147254 11.79652981621071 1.9999999999999998
  endloop
endfacet
facet normal 0.9659258262890694 0.25881904510251647 0.0
  outer loop
    vertex 102.46179644809558 11.369478391791548 0.0
    vertex 102.62663214522821 10.971529816210705 1.9999999999999998
    vertex 102.62663214522821 10.971529816210705 0.0
  endloop
endfacet
facet normal 0.866025403784441 0.4999999999999958 0.0
  outer loop
    vertex 102.62663214522821 10.971529816210705 1.9999999999999998
    vertex 102.46179644809558 11.369478391791548 0.0
    vertex 102.46179644809558 11.369478391791548 1.9999999999999998
  endloop
endfacet
facet normal 0.866025403784441 0.4999999999999958 0.0
  outer loop
    vertex 102.62663214522821 10.971529816210705 0.0
    vertex 102.88884787251475 10.6298036272529 1.9999999999999998
    vertex 102.88884787251475 10.6298036272529 0.0
  endloop
endfacet
facet normal 0.7071067811865375 0.7071067811865577 0.0
  outer loop
    vertex 102.88884787251475 10.6298036272529 1.9999999999999998
    vertex 102.62663214522821 10.971529816210705 0.0
    vertex 102.62663214522821 10.971529816210705 1.9999999999999998
  endloop
endfacet
facet normal 0.7071067811865375 0.7071067811865577 0.0
  outer loop
    vertex 102.88884787251475 10.6298036272529 1.9999999999999998
    vertex 103.23057406147255 10.367587899966379 0.0
    vertex 102.88884787251475 10.6298036272529 0.0
  endloop
endfacet
facet normal 0.4999999999999998 0.8660254037844387 0.0
  outer loop
    vertex 103.23057406147255 10.367587899966379 0.0
    vertex 102.88884787251475 10.6298036272529 1.9999999999999998
    vertex 103.23057406147255 10.367587899966379 1.9999999999999998
  endloop
endfacet
facet normal 0.4999999999999998 0.8660254037844387 0.0
  outer loop
    vertex 103.23057406147255 10.367587899966379 1.9999999999999998
    vertex 103.6285226370534 10.202752202833738 0.0
    vertex 103.23057406147255 10.367587899966379 0.0
  endloop
endfacet
facet normal 0.25881904510252574 0.9659258262890669 0.0
  outer loop
    vertex 103.6285226370534 10.202752202833738 0.0
    vertex 103.23057406147255 10.367587899966379 1.9999999999999998
    vertex 103.6285226370534 10.202752202833738 1.9999999999999998
  endloop
endfacet
facet normal 0.25881904510252574 0.9659258262890669 0.0
  outer loop
    vertex 103.6285226370534 10.202752202833738 1.9999999999999998
    vertex 104.05557406147256 10.1465298162107 0.0
    vertex 103.6285226370534 10.202752202833738 0.0
  endloop
endfacet
facet normal 0.0 1.0 0.0
  outer loop
    vertex 104.05557406147256 10.1465298162107 0.0
    vertex 103.6285226370534 10.202752202833738 1.9999999999999998
    vertex 104.05557406147256 10.1465298162107 1.9999999999999998
  endloop
endfacet
facet normal 0.0 1.0 0.0
  outer loop
    vertex 104.05557406147256 10.1465298162107 1.9999999999999998
    vertex 104.4826254858917 10.202752202833738 0.0
    vertex 104.05557406147256 10.1465298162107 0.0
  endloop
endfacet
facet normal -0.25881904510251613 0.9659258262890696 0.0
  outer loop
    vertex 104.4826254858917 10.202752202833738 0.0
    vertex 104.05557406147256 10.1465298162107 1.9999999999999998
    vertex 104.4826254858917 10.202752202833738 1.9999999999999998
  endloop
endfacet
facet normal -0.25881904510251613 0.9659258262890696 0.0
  outer loop
    vertex 104.4826254858917 10.202752202833738 1.9999999999999998
    vertex 104.88057406147257 10.367587899966379 0.0
    vertex 104.4826254858917 10.202752202833738 0.0
  endloop
endfacet
facet normal -0.500000000000005 0.8660254037844358 0.0
  outer loop
    vertex 104.88057406147257 10.367587899966379 0.0
    vertex 104.4826254858917 10.202752202833738 1.9999999999999998
    vertex 104.88057406147257 10.367587899966379 1.9999999999999998
  endloop
endfacet
facet normal -0.500000000000005 0.8660254037844358 0.0
  outer loop
    vertex 104.88057406147257 10.367587899966379 1.9999999999999998
    vertex 105.22230025043035 10.6298036272529 0.0
    vertex 104.88057406147257 10.367587899966379 0.0
  endloop
endfacet
facet normal -0.7071067811865488 0.7071067811865465 0.0
  outer loop
    vertex 105.22230025043035 10.6298036272529 0.0
    vertex 104.88057406147257 10.367587899966379 1.9999999999999998
    vertex 105.22230025043035 10.6298036272529 1.9999999999999998
  endloop
endfacet
facet normal -0.866025403784441 0.4999999999999958 0.0
  outer loop
    vertex 105.48451597771688 10.971529816210705 1.9999999999999998
    vertex 105.22230025043035 10.6298036272529 0.0
    vertex 105.22230025043035 10.6298036272529 1.9999999999999998
  endloop
endfacet
facet normal -0.7071067811865488 0.7071067811865465 0.0
  outer loop
    vertex 105.22230025043035 10.6298036272529 0.0
    vertex 105.48451597771688 10.971529816210705 1.9999999999999998
    vertex 105.48451597771688 10.971529816210705 0.0
  endloop
endfacet
facet normal -0.9659258262890694 0.25881904510251647 0.0
  outer loop
    vertex 105.64935167484951 11.369478391791548 1.9999999999999998
    vertex 105.48451597771688 10.971529816210705 0.0
    vertex 105.48451597771688 10.971529816210705 1.9999999999999998
  endloop
endfacet
facet normal -0.866025403784441 0.4999999999999958 0.0
  outer loop
    vertex 105.48451597771688 10.971529816210705 0.0
    vertex 105.64935167484951 11.369478391791548 1.9999999999999998
    vertex 105.64935167484951 11.369478391791548 0.0
  endloop
endfacet
facet normal 0.5000000000000075 -0.8660254037844344 0.0
  outer loop
    vertex 4.215551742484047 13.524730787326973 1.9999999999999998
    vertex 3.8738255535262582 13.262515060040453 0.0
    vertex 4.215551742484047 13.524730787326973 0.0
  endloop
endfacet
facet normal 0.7071067811865488 -0.7071067811865465 0.0
  outer loop
    vertex 3.8738255535262582 13.262515060040453 0.0
    vertex 4.215551742484047 13.524730787326973 1.9999999999999998
    vertex 3.8738255535262582 13.262515060040453 1.9999999999999998
  endloop
endfacet
facet normal 0.7071067811865488 -0.7071067811865465 0.0
  outer loop
    vertex 3.8738255535262582 13.262515060040453 0.0
    vertex 3.611609826239727 12.920788871082648 1.9999999999999998
    vertex 3.611609826239727 12.920788871082648 0.0
  endloop
endfacet
facet normal 0.8660254037844407 -0.49999999999999634 0.0
  outer loop
    vertex 3.611609826239727 12.920788871082648 1.9999999999999998
    vertex 3.8738255535262582 13.262515060040453 0.0
    vertex 3.8738255535262582 13.262515060040453 1.9999999999999998
  endloop
endfacet
facet normal 0.8660254037844407 -0.49999999999999634 0.0
  outer loop
    vertex 3.611609826239727 12.920788871082648 0.0
    vertex 3.4467741291070997 12.522840295501807 1.9999999999999998
    vertex 3.4467741291070997 12.522840295501807 0.0
  endloop
endfacet
facet normal 0.9659258262890692 -0.2588190451025171 0.0
  outer loop
    vertex 3.4467741291070997 12.522840295501807 1.9999999999999998
    vertex 3.611609826239727 12.920788871082648 0.0
    vertex 3.611609826239727 12.920788871082648 1.9999999999999998
  endloop
endfacet
facet normal 0.9659258262890692 -0.2588190451025171 0.0
  outer loop
    vertex 3.4467741291070997 12.522840295501807 0.0
    vertex 3.390551742484054 12.095788871082645 1.9999999999999998
    vertex 3.390551742484054 12.095788871082645 0.0
  endloop
endfacet
facet normal 0.9999999999999999 0.0 0.0
  outer loop
    vertex 3.390551742484054 12.095788871082645 1.9999999999999998
    vertex 3.4467741291070997 12.522840295501807 0.0
    vertex 3.4467741291070997 12.522840295501807 1.9999999999999998
  endloop
endfacet
facet normal 0.9999999999999999 0.0 0.0
  outer loop
    vertex 3.390551742484054 12.095788871082645 0.0
    vertex 3.4467741291070997 11.668737446663483 1.9999999999999998
    vertex 3.4467741291070997 11.668737446663483 0.0
  endloop
endfacet
facet normal 0.9659258262890694 0.25881904510251647 0.0
  outer loop
    vertex 3.4467741291070997 11.668737446663483 1.9999999999999998
    vertex 3.390551742484054 12.095788871082645 0.0
    vertex 3.390551742484054 12.095788871082645 1.9999999999999998
  endloop
endfacet
facet normal 0.9659258262890694 0.25881904510251647 0.0
  outer loop
    vertex 3.4467741291070997 11.668737446663483 0.0
    vertex 3.611609826239727 11.270788871082642 1.9999999999999998
    vertex 3.611609826239727 11.270788871082642 0.0
  endloop
endfacet
facet normal 0.866025403784441 0.4999999999999958 0.0
  outer loop
    vertex 3.611609826239727 11.270788871082642 1.9999999999999998
    vertex 3.4467741291070997 11.668737446663483 0.0
    vertex 3.4467741291070997 11.668737446663483 1.9999999999999998
  endloop
endfacet
facet normal 0.866025403784441 0.4999999999999958 0.0
  outer loop
    vertex 3.611609826239727 11.270788871082642 0.0
    vertex 3.8738255535262582 10.929062682124835 1.9999999999999998
    vertex 3.8738255535262582 10.929062682124835 0.0
  endloop
endfacet
facet normal 0.7071067811865375 0.7071067811865577 0.0
  outer loop
    vertex 3.8738255535262582 10.929062682124835 1.9999999999999998
    vertex 3.611609826239727 11.270788871082642 0.0
    vertex 3.611609826239727 11.270788871082642 1.9999999999999998
  endloop
endfacet
facet normal 0.7071067811865375 0.7071067811865577 0.0
  outer loop
    vertex 3.8738255535262582 10.929062682124835 1.9999999999999998
    vertex 4.215551742484069 10.666846954838315 0.0
    vertex 3.8738255535262582 10.929062682124835 0.0
  endloop
endfacet
facet normal 0.4999999999999998 0.8660254037844387 0.0
  outer loop
    vertex 4.215551742484069 10.666846954838315 0.0
    vertex 3.8738255535262582 10.929062682124835 1.9999999999999998
    vertex 4.215551742484069 10.666846954838315 1.9999999999999998
  endloop
endfacet
facet normal 0.4999999999999998 0.8660254037844387 0.0
  outer loop
    vertex 4.215551742484069 10.666846954838315 1.9999999999999998
    vertex 4.6135003180649035 10.502011257705675 0.0
    vertex 4.215551742484069 10.666846954838315 0.0
  endloop
endfacet
facet normal 0.25881904510252574 0.9659258262890669 0.0
  outer loop
    vertex 4.6135003180649035 10.502011257705675 0.0
    vertex 4.215551742484069 10.666846954838315 1.9999999999999998
    vertex 4.6135003180649035 10.502011257705675 1.9999999999999998
  endloop
endfacet
facet normal 0.25881904510252574 0.9659258262890669 0.0
  outer loop
    vertex 4.6135003180649035 10.502011257705675 1.9999999999999998
    vertex 5.0405517424840625 10.445788871082637 0.0
    vertex 4.6135003180649035 10.502011257705675 0.0
  endloop
endfacet
facet normal 0.0 1.0 0.0
  outer loop
    vertex 5.0405517424840625 10.445788871082637 0.0
    vertex 4.6135003180649035 10.502011257705675 1.9999999999999998
    vertex 5.0405517424840625 10.445788871082637 1.9999999999999998
  endloop
endfacet
facet normal 0.0 1.0 0.0
  outer loop
    vertex 5.0405517424840625 10.445788871082637 1.9999999999999998
    vertex 5.4676031669032215 10.502011257705675 0.0
    vertex 5.0405517424840625 10.445788871082637 0.0
  endloop
endfacet
facet normal -0.25881904510251613 0.9659258262890696 0.0
  outer loop
    vertex 5.4676031669032215 10.502011257705675 0.0
    vertex 5.0405517424840625 10.445788871082637 1.9999999999999998
    vertex 5.4676031669032215 10.502011257705675 1.9999999999999998
  endloop
endfacet
facet normal -0.25881904510251613 0.9659258262890696 0.0
  outer loop
    vertex 5.4676031669032215 10.502011257705675 1.9999999999999998
    vertex 5.865551742484078 10.666846954838315 0.0
    vertex 5.4676031669032215 10.502011257705675 0.0
  endloop
endfacet
facet normal -0.500000000000005 0.8660254037844358 0.0
  outer loop
    vertex 5.865551742484078 10.666846954838315 0.0
    vertex 5.4676031669032215 10.502011257705675 1.9999999999999998
    vertex 5.865551742484078 10.666846954838315 1.9999999999999998
  endloop
endfacet
facet normal -0.500000000000005 0.8660254037844358 0.0
  outer loop
    vertex 5.865551742484078 10.666846954838315 1.9999999999999998
    vertex 6.207277931441866 10.929062682124835 0.0
    vertex 5.865551742484078 10.666846954838315 0.0
  endloop
endfacet
facet normal -0.7071067811865488 0.7071067811865465 0.0
  outer loop
    vertex 6.207277931441866 10.929062682124835 0.0
    vertex 5.865551742484078 10.666846954838315 1.9999999999999998
    vertex 6.207277931441866 10.929062682124835 1.9999999999999998
  endloop
endfacet
facet normal -0.866025403784441 0.4999999999999958 0.0
  outer loop
    vertex 6.469493658728398 11.270788871082642 1.9999999999999998
    vertex 6.207277931441866 10.929062682124835 0.0
    vertex 6.207277931441866 10.929062682124835 1.9999999999999998
  endloop
endfacet
facet normal -0.7071067811865488 0.7071067811865465 0.0
  outer loop
    vertex 6.207277931441866 10.929062682124835 0.0
    vertex 6.469493658728398 11.270788871082642 1.9999999999999998
    vertex 6.469493658728398 11.270788871082642 0.0
  endloop
endfacet
facet normal -0.9659258262890694 0.25881904510251647 0.0
  outer loop
    vertex 6.634329355861025 11.668737446663483 1.9999999999999998
    vertex 6.469493658728398 11.270788871082642 0.0
    vertex 6.469493658728398 11.270788871082642 1.9999999999999998
  endloop
endfacet
facet normal -0.866025403784441 0.4999999999999958 0.0
  outer loop
    vertex 6.469493658728398 11.270788871082642 0.0
    vertex 6.634329355861025 11.668737446663483 1.9999999999999998
    vertex 6.634329355861025 11.668737446663483 0.0
  endloop
endfacet
facet normal -0.9999999999999999 0.0 0.0
  outer loop
    vertex 6.690551742484071 12.095788871082645 1.9999999999999998
    vertex 6.634329355861025 11.668737446663483 0.0
    vertex 6.634329355861025 11.668737446663483 1.9999999999999998
  endloop
endfacet
facet normal -0.9659258262890694 0.25881904510251647 0.0
  outer loop
    vertex 6.634329355861025 11.668737446663483 0.0
    vertex 6.690551742484071 12.095788871082645 1.9999999999999998
    vertex 6.690551742484071 12.095788871082645 0.0
  endloop
endfacet
facet normal -0.9659258262890692 -0.2588190451025171 0.0
  outer loop
    vertex 6.634329355861025 12.522840295501807 1.9999999999999998
    vertex 6.690551742484071 12.095788871082645 0.0
    vertex 6.690551742484071 12.095788871082645 1.9999999999999998
  endloop
endfacet
facet normal -0.9999999999999999 0.0 0.0
  outer loop
    vertex 6.690551742484071 12.095788871082645 0.0
    vertex 6.634329355861025 12.522840295501807 1.9999999999999998
    vertex 6.634329355861025 12.522840295501807 0.0
  endloop
endfacet
facet normal -0.8660254037844407 -0.49999999999999634 0.0
  outer loop
    vertex 6.469493658728398 12.920788871082648 1.9999999999999998
    vertex 6.634329355861025 12.522840295501807 0.0
    vertex 6.634329355861025 12.522840295501807 1.9999999999999998
  endloop
endfacet
facet normal -0.9659258262890692 -0.2588190451025171 0.0
  outer loop
    vertex 6.634329355861025 12.522840295501807 0.0
    vertex 6.469493658728398 12.920788871082648 1.9999999999999998
    vertex 6.469493658728398 12.920788871082648 0.0
  endloop
endfacet
facet normal -0.7071067811865411 -0.7071067811865541 0.0
  outer loop
    vertex 6.207277931441866 13.262515060040453 1.9999999999999998
    vertex 6.469493658728398 12.920788871082648 0.0
    vertex 6.469493658728398 12.920788871082648 1.9999999999999998
  endloop
endfacet
facet normal -0.8660254037844407 -0.49999999999999634 0.0
  outer loop
    vertex 6.469493658728398 12.920788871082648 0.0
    vertex 6.207277931441866 13.262515060040453 1.9999999999999998
    vertex 6.207277931441866 13.262515060040453 0.0
  endloop
endfacet
facet normal -0.7071067811865411 -0.7071067811865541 0.0
  outer loop
    vertex 6.207277931441866 13.262515060040453 1.9999999999999998
    vertex 5.8655517424840555 13.52473078732698 0.0
    vertex 6.207277931441866 13.262515060040453 0.0
  endloop
endfacet
facet normal -0.5000000000000017 -0.8660254037844378 0.0
  outer loop
    vertex 5.8655517424840555 13.52473078732698 0.0
    vertex 6.207277931441866 13.262515060040453 1.9999999999999998
    vertex 5.8655517424840555 13.52473078732698 1.9999999999999998
  endloop
endfacet
facet normal -0.5000000000000017 -0.8660254037844378 0.0
  outer loop
    vertex 5.8655517424840555 13.52473078732698 1.9999999999999998
    vertex 5.4676031669032215 13.689566484459618 0.0
    vertex 5.8655517424840555 13.52473078732698 0.0
  endloop
endfacet
facet normal -0.2588190451025197 -0.9659258262890686 0.0
  outer loop
    vertex 5.4676031669032215 13.689566484459618 0.0
    vertex 5.8655517424840555 13.52473078732698 1.9999999999999998
    vertex 5.4676031669032215 13.689566484459618 1.9999999999999998
  endloop
endfacet
facet normal -0.2588190451025197 -0.9659258262890686 0.0
  outer loop
    vertex 5.4676031669032215 13.689566484459618 1.9999999999999998
    vertex 5.0405517424840625 13.745788871082652 0.0
    vertex 5.4676031669032215 13.689566484459618 0.0
  endloop
endfacet
facet normal 0.0 -1.0 0.0
  outer loop
    vertex 5.0405517424840625 13.745788871082652 0.0
    vertex 5.4676031669032215 13.689566484459618 1.9999999999999998
    vertex 5.0405517424840625 13.745788871082652 1.9999999999999998
  endloop
endfacet
facet normal 0.0 -1.0 0.0
  outer loop
    vertex 5.0405517424840625 13.745788871082652 1.9999999999999998
    vertex 4.6135003180649035 13.689566484459618 0.0
    vertex 5.0405517424840625 13.745788871082652 0.0
  endloop
endfacet
facet normal 0.2588190451025158 -0.9659258262890695 0.0
  outer loop
    vertex 4.6135003180649035 13.689566484459618 0.0
    vertex 5.0405517424840625 13.745788871082652 1.9999999999999998
    vertex 4.6135003180649035 13.689566484459618 1.9999999999999998
  endloop
endfacet
facet normal 0.2588190451025158 -0.9659258262890695 0.0
  outer loop
    vertex 4.6135003180649035 13.689566484459618 1.9999999999999998
    vertex 4.215551742484047 13.524730787326973 0.0
    vertex 4.6135003180649035 13.689566484459618 0.0
  endloop
endfacet
facet normal 0.5000000000000075 -0.8660254037844344 0.0
  outer loop
    vertex 4.215551742484047 13.524730787326973 0.0
    vertex 4.6135003180649035 13.689566484459618 1.9999999999999998
    vertex 4.215551742484047 13.524730787326973 1.9999999999999998
  endloop
endfacet
endsolid Top Corner
